<?xml version="1.0" standalone="no"?>
<!DOCTYPE svg PUBLIC "-//W3C//DTD SVG 1.1//EN" "http://www.w3.org/Graphics/SVG/1.1/DTD/svg11.dtd" >
<svg>
<metadata>
Created by FontForge 20090914 at Sun Sep 27 10:08:41 2015
 By www-data
</metadata>
<defs>
<font id="AllerDisplay" horiz-adv-x="450" >
  <font-face 
    font-family="Aller Display"
    font-weight="400"
    font-stretch="normal"
    units-per-em="1000"
    panose-1="2 0 5 3 0 0 0 2 0 3"
    ascent="800"
    descent="-200"
    x-height="517"
    cap-height="725"
    bbox="-235 -248.999 1427 994"
    underline-thickness="50"
    underline-position="-50"
    unicode-range="U+0020-U+FB04"
  />
<missing-glyph horiz-adv-x="500" 
 />
    <glyph glyph-name=".notdef" horiz-adv-x="500" 
 />
    <glyph glyph-name="space" unicode=" " horiz-adv-x="220" 
 />
    <glyph glyph-name="exclam" unicode="!" horiz-adv-x="302" 
d="M62 719c16 2.66699 31.501 4.33301 46.501 5s29.167 1 42.5 1s27.333 -0.333008 42 -1s30.334 -2.33398 47.001 -5.00098l-9 -466c-16.667 -3.33301 -31.334 -5.66602 -44.001 -6.99902s-24.667 -2 -36 -2c-20.667 0 -47.334 3 -80.001 9zM151.001 176.999
c13.333 0 26.833 -0.666992 40.5 -2s28.167 -3.33301 43.5 -6c2 -15.333 3.66699 -29.833 5 -43.5s2 -26.834 2 -39.501s-0.666992 -26 -2 -40s-3 -28.667 -5 -44c-15.333 -2.66699 -29.833 -4.66699 -43.5 -6s-27.167 -2 -40.5 -2s-26.833 0.666992 -40.5 2
s-28.167 3.33301 -43.5 6c-2 15.333 -3.66699 30 -5 44s-2 27.333 -2 40s0.666992 25.834 2 39.501s3 28.167 5 43.5c15.333 2.66699 29.833 4.66699 43.5 6s27.167 2 40.5 2z" />
    <glyph glyph-name="quotedbl" unicode="&#x22;" horiz-adv-x="456" 
d="M40 717c11.333 2.66699 24.333 4.66699 39 6s27.667 2 39 2s24.333 -0.666992 39 -2s27.667 -3.33301 39 -6v-289c-11.333 -2.66699 -24.333 -4.66699 -39 -6s-27.667 -2 -39 -2s-24.333 0.666992 -39 2s-27.667 3.33301 -39 6v289zM260 717
c11.333 2.66699 24.333 4.66699 39 6s27.667 2 39 2s24.333 -0.666992 39 -2s27.667 -3.33301 39 -6v-289c-11.333 -2.66699 -24.333 -4.66699 -39 -6s-27.667 -2 -39 -2s-24.333 0.666992 -39 2s-27.667 3.33301 -39 6v289z" />
    <glyph glyph-name="numbersign" unicode="#" horiz-adv-x="699" 
d="M388 198l-99 -0.00195312l-13 -167c-13.333 -2.66699 -25.166 -4.33398 -35.499 -5.00098s-21.166 -1 -32.499 -1c-10 0 -20.333 0.333008 -31 1s-22.667 2.33398 -36 5.00098l14 167h-105c-1.33301 10.667 -2.5 20.667 -3.5 30s-1.5 18.666 -1.5 27.999
c0 10 0.5 19.833 1.5 29.5s2.16699 19.834 3.5 30.501h115l9 110h-105c-4 20.667 -6 40.334 -6 59.001c0 10 0.5 19.667 1.5 29s2.5 19.333 4.5 30h115l12 144c13.333 2.66699 25.166 4.33398 35.499 5.00098s21.166 1 32.499 1c10.667 0 21.334 -0.333008 32.001 -1
s22 -2.33398 34 -5.00098l-12 -144h99l12 144c13.333 2.66699 25.166 4.33398 35.499 5.00098s20.833 1 31.5 1s21.334 -0.333008 32.001 -1s22.334 -2.33398 35.001 -5.00098l-12 -144h97c2 -10.667 3.5 -20.5 4.5 -29.5s1.5 -18.167 1.5 -27.5c0 -20 -2 -40.333 -6 -61
h-107l-9 -110h98c1.33301 -10.667 2.5 -20.667 3.5 -30s1.5 -18.666 1.5 -27.999s-0.5 -19 -1.5 -29s-2.16699 -20.333 -3.5 -31h-108l-13 -167c-12.667 -2.66699 -24.334 -4.33398 -35.001 -5.00098s-21.334 -1 -32.001 -1c-11.333 0 -22.333 0.333008 -33 1
s-22 2.33398 -34 5.00098zM299 315.998h99l9 110h-99z" />
    <glyph glyph-name="dollar" unicode="$" horiz-adv-x="585" 
d="M238 -11c-19.333 0 -37.1631 0.833984 -53.4961 2.50098s-32.333 4.16699 -48 7.5s-31.167 7.66602 -46.5 12.999s-32 11.666 -50 18.999c2.66699 24 7.16699 48.333 13.5 73s14.166 51 23.499 79c31.333 -13.333 59.666 -23.166 84.999 -29.499s49.666 -9.5 72.999 -9.5
c33.333 0 59 5.5 77 16.5s27 28.167 27 51.5c0 20.667 -7.83301 36.5 -23.5 47.5s-34.834 21.167 -57.501 30.5l-53 22c-20 8.66699 -39 18.334 -57 29.001s-33.5 23.5 -46.5 38.5s-23.333 32.667 -31 53s-11.5 44.5 -11.5 72.5c0 58.667 15.833 105.5 47.5 140.5
s75.5 57.5 131.5 67.5v90c10.667 3.33301 21.334 5.5 32.001 6.5s19.667 1.5 27 1.5s16.5 -0.5 27.5 -1.5s21.5 -3.16699 31.5 -6.5v-87c23.333 -2.66699 46.833 -7 70.5 -13s48.834 -13.667 75.501 -23c-4.66699 -44.667 -18.334 -92 -41.001 -142
c-22.667 10 -45 18.333 -67 25s-50.333 10 -85 10c-8.66699 0 -17.167 -0.5 -25.5 -1.5s-16 -3.33301 -23 -7s-12.667 -8.66699 -17 -15s-6.5 -14.833 -6.5 -25.5c0 -19.333 6.83301 -33.833 20.5 -43.5s28.5 -17.5 44.5 -23.5l56 -21
c22.667 -8.66699 44 -18.334 64 -29.001s37.667 -24 53 -40s27.5 -35.667 36.5 -59s13.5 -52 13.5 -86c0 -54 -14.5 -100.333 -43.5 -139s-70.833 -65.667 -125.5 -81v-118c-10 -3.33301 -20.5 -5.5 -31.5 -6.5s-20.167 -1.5 -27.5 -1.5s-16.333 0.5 -27 1.5
s-21.334 3.16699 -32.001 6.5v105z" />
    <glyph glyph-name="percent" unicode="%" horiz-adv-x="1016" 
d="M280 505c0 30.667 -4.33301 55 -13 73s-22.667 27 -42 27s-33.333 -9 -42 -27s-13 -42.333 -13 -73c0 -30 4.33301 -54.333 13 -73s22.667 -28 42 -28s33.333 9.33301 42 28s13 43 13 73zM33 505c0 27.333 3.83301 53.833 11.5 79.5s19.334 48.5 35.001 68.5
s35.5 36 59.5 48s52.667 18 86 18c32.667 0 61 -6 85 -18s44 -28 60 -48s27.833 -42.833 35.5 -68.5s11.5 -52.167 11.5 -79.5s-3.83301 -53.833 -11.5 -79.5s-19.5 -48.5 -35.5 -68.5s-36 -36 -60 -48s-52.333 -18 -85 -18c-33.333 0 -62 6 -86 18s-43.833 28 -59.5 48
s-27.334 42.833 -35.001 68.5s-11.5 52.167 -11.5 79.5zM378 2c-11.333 -2 -23.5 -3.5 -36.5 -4.5s-25.5 -1.5 -37.5 -1.5c-10.667 0 -22 0.166992 -34 0.5s-27 2.16602 -45 5.49902l413 707c11.333 2 23.5 3.5 36.5 4.5s25.5 1.5 37.5 1.5c10.667 0 22 -0.166992 34 -0.5
s27 -2.16602 45 -5.49902zM846 203c0 30.667 -4.33301 55 -13 73s-22.667 27 -42 27s-33.333 -9 -42 -27s-13 -42.333 -13 -73c0 -30 4.33301 -54.333 13 -73s22.667 -28 42 -28s33.333 9.33301 42 28s13 43 13 73zM599 203c0 27.333 3.83301 53.833 11.5 79.5
s19.334 48.5 35.001 68.5s35.5 36 59.5 48s52.667 18 86 18c32.667 0 61 -6 85 -18s44 -28 60 -48s27.833 -42.833 35.5 -68.5s11.5 -52.167 11.5 -79.5s-3.83301 -53.833 -11.5 -79.5s-19.5 -48.5 -35.5 -68.5s-36 -36 -60 -48s-52.333 -18 -85 -18c-33.333 0 -62 6 -86 18
s-43.833 28 -59.5 48s-27.334 42.833 -35.001 68.5s-11.5 52.167 -11.5 79.5z" />
    <glyph glyph-name="ampersand" unicode="&#x26;" horiz-adv-x="724" 
d="M569 609c10.667 3.33301 27.002 3.99707 49.002 1.99707v-136h93c3.33301 -12.667 5.33301 -24.167 6 -34.5s1 -20.5 1 -30.5c0 -11.333 -0.333008 -22.166 -1 -32.499s-2.66699 -22.5 -6 -36.5h-93v-98c0 -42 -7.16699 -78.833 -21.5 -110.5
s-34.833 -58.167 -61.5 -79.5s-59 -37.333 -97 -48s-80.333 -16 -127 -16c-34.667 0 -68.334 4 -101.001 12s-61.834 20.833 -87.501 38.5s-46.167 40.667 -61.5 69s-23 62.5 -23 102.5c0 21.333 2.66699 41.666 8 60.999s12.5 37 21.5 53s19.333 30.333 31 43
s23.834 23.334 36.501 32.001c-18.667 15.333 -34.834 34.833 -48.501 58.5s-20.5 51.5 -20.5 83.5c0 31.333 5.83301 58.833 17.5 82.5s27.834 43.334 48.501 59.001s44.667 27.5 72 35.5s56.666 12 87.999 12c20 0 42.667 -1.5 68 -4.5s52.333 -9.83301 81 -20.5
c1.33301 -24.667 -1.5 -47.667 -8.5 -69s-17.167 -41.666 -30.5 -60.999c-25.333 9.33301 -46 15 -62 17s-29.667 3 -41 3c-24 0 -41.333 -6 -52 -18s-16 -25.667 -16 -41c0 -17.333 5.16699 -32 15.5 -44s27.5 -18 51.5 -18h165zM326.002 134.997
c26.667 0 48.3311 4 64.998 12s29.834 18.5 39.501 31.5s16.334 27.833 20.001 44.5s5.5 34 5.5 52v66h-142c-29.333 0 -52.5 -9.66699 -69.5 -29s-25.5 -44 -25.5 -74c0 -31.333 8.83301 -56.333 26.5 -75s44.5 -28 80.5 -28z" />
    <glyph glyph-name="quotesingle" unicode="'" horiz-adv-x="236" 
d="M40 717c11.333 2.66699 24.333 4.66699 39 6s27.667 2 39 2s24.333 -0.666992 39 -2s27.667 -3.33301 39 -6v-289c-11.333 -2.66699 -24.333 -4.66699 -39 -6s-27.667 -2 -39 -2s-24.333 0.666992 -39 2s-27.667 3.33301 -39 6v289z" />
    <glyph glyph-name="parenleft" unicode="(" horiz-adv-x="367" 
d="M50 305c0 53.333 3 103.17 9 149.503s14.333 89 25 128s22.834 74.5 36.501 106.5s28.167 60 43.5 84c9.33301 3.33301 21.666 5.66602 36.999 6.99902s29.666 2 42.999 2c12.667 0 27.667 -1 45 -3s33.333 -4.66699 48 -8c-8 -14 -18.5 -34.833 -31.5 -62.5
s-25.833 -61.5 -38.5 -101.5s-23.5 -85.5 -32.5 -136.5s-13.5 -106.167 -13.5 -165.5s4.5 -114.5 13.5 -165.5s19.833 -96.5 32.5 -136.5s25.5 -73.833 38.5 -101.5s23.5 -48.5 31.5 -62.5c-14.667 -3.33301 -30.667 -6 -48 -8s-32.333 -3 -45 -3
c-13.333 0 -27.666 0.666992 -42.999 2s-27.666 3.66602 -36.999 6.99902c-15.333 24 -29.833 52 -43.5 84s-25.834 67.5 -36.501 106.5s-19 81.667 -25 128s-9 96.166 -9 149.499z" />
    <glyph glyph-name="parenright" unicode=")" horiz-adv-x="367" 
d="M317 305c0 -53.333 -3 -103.17 -9 -149.503s-14.333 -89 -25 -128s-22.834 -74.5 -36.501 -106.5s-28.167 -60 -43.5 -84c-9.33301 -3.33301 -21.666 -5.66602 -36.999 -6.99902s-29.666 -2 -42.999 -2c-12.667 0 -27.667 1 -45 3s-33.333 4.66699 -48 8
c8 14 18.5 34.833 31.5 62.5s25.833 61.5 38.5 101.5s23.5 85.5 32.5 136.5s13.5 106.167 13.5 165.5s-4.5 114.5 -13.5 165.5s-19.833 96.5 -32.5 136.5s-25.5 73.833 -38.5 101.5s-23.5 48.5 -31.5 62.5c14.667 3.33301 30.667 6 48 8s32.333 3 45 3
c13.333 0 27.666 -0.666992 42.999 -2s27.666 -3.66602 36.999 -6.99902c15.333 -24 29.833 -52 43.5 -84s25.834 -67.5 36.501 -106.5s19 -81.667 25 -128s9 -96.166 9 -149.499z" />
    <glyph glyph-name="asterisk" unicode="*" horiz-adv-x="464" 
d="M416 615c9.33301 -15.333 16.3311 -31.001 20.998 -47.001s8.33398 -30.667 11.001 -44l-122 -52l72 -114c-11.333 -11.333 -23.666 -21.833 -36.999 -31.5s-27.666 -18.167 -42.999 -25.5l-86 98l-86 -99c-14.667 7.33301 -28.667 15.833 -42 25.5
s-25.666 20.167 -36.999 31.5l70 114l-121 51c1.33301 16.667 5 32.834 11 48.501s12.333 30.167 19 43.5l126 -28l11 131l25.5 3.5c7.66699 1 14.5 1.5 20.5 1.5c7.33301 0 15.166 -0.5 23.499 -1.5s17.166 -2.16699 26.499 -3.5l12 -131zM228.998 559.999
c-11.333 0 -24.001 0.998047 -38.001 2.99805c-3.33301 -15.333 -7.5 -30.166 -12.5 -44.499s-10.833 -28.166 -17.5 -41.499c12 -7.33301 23.833 -15.166 35.5 -23.499s23.167 -17.5 34.5 -27.5c24 20.667 47.333 37.667 70 51c-6.66699 14.667 -12.167 29.167 -16.5 43.5
s-8.16602 28.166 -11.499 41.499c-8.66699 -1.33301 -16.5 -2 -23.5 -2h-20.5z" />
    <glyph glyph-name="plus" unicode="+" horiz-adv-x="579" 
d="M218 282l-147.002 -0.00195312c-2 13.333 -3.66699 25.5 -5 36.5s-2 22.5 -2 34.5c0 11.333 0.666992 22.833 2 34.5s3 24.167 5 37.5h147v159c12.667 2.66699 24.667 4.66699 36 6s23 2 35 2c11.333 0 22.833 -0.666992 34.5 -2s24.167 -3.33301 37.5 -6v-159h146
c2.66699 -13.333 4.66699 -25.666 6 -36.999s2 -22.666 2 -33.999s-0.666992 -22.833 -2 -34.5s-3.33301 -24.167 -6 -37.5h-146v-159c-13.333 -2.66699 -25.666 -4.66699 -36.999 -6s-22.666 -2 -33.999 -2c-21.333 0 -45.333 2.66699 -72 8v159z" />
    <glyph glyph-name="comma" unicode="," horiz-adv-x="302" 
d="M93 160c14.667 3.33301 28.498 5.83398 41.498 7.50098s24.833 2.5 35.5 2.5s23.834 -0.833008 39.501 -2.5s32.167 -4.83398 49.5 -9.50098l-76 -267c-16 -4 -30.333 -6.5 -43 -7.5s-24 -1.5 -34 -1.5c-10.667 0 -22.167 0.666992 -34.5 2s-28.166 4.33301 -47.499 9z
" />
    <glyph glyph-name="hyphen" unicode="-" horiz-adv-x="369" 
d="M42 273c0 22.667 3 47.999 9 75.999h268c3.33301 -14 5.5 -27.167 6.5 -39.5s1.5 -24.166 1.5 -35.499s-0.5 -23.333 -1.5 -36s-3.16699 -26 -6.5 -40h-268c-6 28 -9 53 -9 75z" />
    <glyph glyph-name="period" unicode="." horiz-adv-x="296" 
d="M148 179c13.333 0 27 -0.666992 41 -2s28.667 -3 44 -5c2.66699 -15.333 4.66699 -30 6 -44s2 -27.667 2 -41s-0.666992 -27 -2 -41s-3.33301 -28.667 -6 -44c-15.333 -2.66699 -30 -4.66699 -44 -6s-27.667 -2 -41 -2s-27 0.666992 -41 2s-28.667 3.33301 -44 6
c-2.66699 15.333 -4.66699 30 -6 44s-2 27.667 -2 41s0.666992 27 2 41s3.33301 28.667 6 44c15.333 2 30 3.66699 44 5s27.667 2 41 2z" />
    <glyph glyph-name="slash" unicode="/" horiz-adv-x="416" 
d="M247 717c14 2.66699 27.333 4.66699 40 6s25.667 2 39 2c11.333 0 24 -0.5 38 -1.5s29.667 -3.16699 47 -6.5l-242 -715c-14 -2.66699 -27.333 -4.66699 -40 -6s-25.667 -2 -39 -2c-11.333 0 -24 0.5 -38 1.5s-29.667 3.16699 -47 6.5z" />
    <glyph glyph-name="zero" unicode="0" horiz-adv-x="598" 
d="M301 662c44.667 0 83.333 -8.66699 116 -26s59.667 -41.166 81 -71.499s37 -66.166 47 -107.499s15 -86 15 -134s-5.33301 -92.333 -16 -133s-26.667 -76 -48 -106s-48.666 -53.5 -81.999 -70.5s-72.333 -25.5 -117 -25.5s-83.334 8.5 -116.001 25.5
s-59.5 40.5 -80.5 70.5s-36.667 65.333 -47 106s-15.5 85 -15.5 133s5.33301 92.667 16 134s26.667 77.166 48 107.499s48.5 54.166 81.5 71.499s72.167 26 117.5 26zM298.999 511c-26.667 0 -47.333 -15.667 -62 -47s-22 -78.333 -22 -141c0 -62 7.5 -108.667 22.5 -140
s35.5 -47 61.5 -47c25.333 0 45.333 15.667 60 47s22 78 22 140c0 62.667 -7.33301 109.667 -22 141s-34.667 47 -60 47z" />
    <glyph glyph-name="one" unicode="1" horiz-adv-x="536" 
d="M96 392c-6 8.66699 -12 18.668 -18 30.001s-11.667 23 -17 35s-10 24.167 -14 36.5s-7 24.166 -9 35.499l293 125h43v-504h128c6 -26 9 -50.667 9 -74c0 -24.667 -3 -50 -9 -76h-428c-6 26 -9 51.333 -9 76c0 23.333 3 48 9 74h130v284z" />
    <glyph glyph-name="two" unicode="2" horiz-adv-x="528" 
d="M28 0l-12.001 28.999l178 234c30.667 41.333 53.5 76.166 68.5 104.499s22.5 53.833 22.5 76.5c0 20.667 -7.5 37.167 -22.5 49.5s-35.833 18.5 -62.5 18.5c-25.333 0 -49 -4.5 -71 -13.5s-41.667 -18.5 -59 -28.5c-10.667 23.333 -20 47 -28 71s-12.667 48.667 -14 74
c22.667 12.667 50.334 23.667 83.001 33s69.667 14 111 14c34 0 65.5 -4 94.5 -12s54.167 -20.167 75.5 -36.5s38 -36.833 50 -61.5s18 -54 18 -88c0 -24 -3 -46.667 -9 -68s-13.667 -41.666 -23 -60.999s-19.833 -37.666 -31.5 -54.999l-34.5 -50l-57 -80h175
c6 -28 9 -52.333 9 -73c0 -23.333 -3 -49 -9 -77h-452z" />
    <glyph glyph-name="three" unicode="3" horiz-adv-x="539" 
d="M48 502c-6 26 -8.99414 51.335 -8.99414 76.002c0 24 3 49 9 75h423l18 -28l-142 -245c48 -8.66699 85.333 -29.5 112 -62.5s40 -75.5 40 -127.5c0 -41.333 -7.5 -78 -22.5 -110s-35.667 -58.833 -62 -80.5s-57.333 -38 -93 -49s-73.834 -16.5 -114.501 -16.5
c-18.667 0 -36 0.5 -52 1.5s-31.833 3 -47.5 6s-31.334 6.66699 -47.001 11s-32.5 10.166 -50.5 17.499c1.33301 24.667 6.16602 49.667 14.499 75s18.166 48 29.499 68c25.333 -8.66699 49.666 -15.834 72.999 -21.501s48 -8.5 74 -8.5c39.333 0 70.5 8 93.5 24
s34.5 40.333 34.5 73c0 14 -3 26.333 -9 37s-14 19.5 -24 26.5s-21.333 12.333 -34 16s-26 5.5 -40 5.5c-10.667 0 -21.834 -0.5 -33.501 -1.5s-25.167 -3.5 -40.5 -7.5l-22 33l123 213h-201z" />
    <glyph glyph-name="four" unicode="4" horiz-adv-x="627" 
d="M579 211c6 -26 9 -50.668 9 -74.001s-3 -48 -9 -74h-53v-118c-14 -3.33301 -27.833 -5.5 -41.5 -6.5s-26.834 -1.5 -39.501 -1.5c-13.333 0 -26.833 0.5 -40.5 1.5s-27.834 3.16699 -42.501 6.5v118h-318l-17 30l269 576c26 -3.33301 51.5 -9.16602 76.5 -17.499
s49.167 -21.5 72.5 -39.5l-182 -401h99v112c14.667 3.33301 28.834 5.5 42.501 6.5s27.167 1.5 40.5 1.5c12.667 0 25.834 -0.5 39.501 -1.5s27.5 -3.16699 41.5 -6.5v-112h53z" />
    <glyph glyph-name="five" unicode="5" horiz-adv-x="539" 
d="M449 653c6 -28 9.00098 -52.3311 9.00098 -72.998c0 -23.333 -3 -49 -9 -77h-211l-2 -104c6 1.33301 11.667 2 17 2h19c32.667 0 62.667 -4.66699 90 -14s50.666 -23 69.999 -41s34.333 -40.333 45 -67s16 -57.334 16 -92.001c0 -41.333 -7 -77.666 -21 -108.999
s-34.167 -57.666 -60.5 -78.999s-58.166 -37.333 -95.499 -48s-79 -16 -125 -16c-8.66699 0 -19.5 0.666992 -32.5 2s-27.5 3.16602 -43.5 5.49902s-32.833 5.66602 -50.5 9.99902s-34.834 9.5 -51.501 15.5c0.666992 12.667 2.5 25.834 5.5 39.501s6.5 27 10.5 40
s8.16699 25.333 12.5 37s8.83301 22.167 13.5 31.5c26 -9.33301 49.667 -16.5 71 -21.5s42 -7.5 62 -7.5c24 0 44.333 2.66699 61 8s30 12.166 40 20.499s17.167 18 21.5 29s6.5 22.5 6.5 34.5c0 25.333 -9 45.666 -27 60.999s-46.667 23 -86 23
c-16 0 -33.167 -1.83301 -51.5 -5.5s-37.5 -10.167 -57.5 -19.5l-26 17l15 398h365z" />
    <glyph glyph-name="six" unicode="6" horiz-adv-x="596" 
d="M448 727c5.33301 -5.33301 10.334 -14.8301 15.001 -28.4971s7 -30.167 7 -49.5c0 -16 -1 -30.333 -3 -43s-4.66699 -23 -8 -31c-26 -2 -50.667 -6.83301 -74 -14.5s-44.666 -17.834 -63.999 -30.501s-36.166 -27.334 -50.499 -44.001s-25.166 -35.334 -32.499 -56.001
l3 -2c7.33301 9.33301 20.833 18 40.5 26s43.5 12 71.5 12c28.667 0 55.5 -4.33301 80.5 -13s47 -22.167 66 -40.5s34 -41.833 45 -70.5s16.5 -63.334 16.5 -104.001s-6.66699 -76.5 -20 -107.5s-31.5 -57 -54.5 -78s-49.833 -36.833 -80.5 -47.5s-63.334 -16 -98.001 -16
c-84 0 -148 24 -192 72s-66 120.667 -66 218c0 56 7.66699 109.5 23 160.5s39.166 96.833 71.499 137.5s73.666 74.334 123.999 101.001s110.166 43 179.499 49zM309.001 333.003c-25.333 0 -46 -8.33398 -62 -25.001s-24 -41 -24 -73c0 -35.333 7.66699 -62 23 -80
s35 -27 59 -27s44.333 8.33301 61 25s25 42.334 25 77.001c0 36 -7.83301 62.167 -23.5 78.5s-35.167 24.5 -58.5 24.5z" />
    <glyph glyph-name="seven" unicode="7" horiz-adv-x="550" 
d="M34 502c-3.33301 14 -5.66602 27.667 -6.99902 41s-2 25.666 -2 36.999c0 20.667 3 45 9 73h486l15 -27l-285 -699c-28 6.66699 -53.833 14.334 -77.5 23.001s-48.834 22 -75.501 40l210 512h-273z" />
    <glyph glyph-name="eight" unicode="8" horiz-adv-x="581" 
d="M514 526c0 -30 -6.83203 -57.333 -20.499 -82s-33.167 -45.667 -58.5 -63c30.667 -16.667 56.5 -40.167 77.5 -70.5s31.5 -67.5 31.5 -111.5c0 -37.333 -7.16699 -69.166 -21.5 -95.499s-33.5 -48 -57.5 -65s-51.167 -29.5 -81.5 -37.5s-61.5 -12 -93.5 -12
s-63.167 4 -93.5 12s-57.333 20.5 -81 37.5s-42.667 38.667 -57 65s-21.5 58.166 -21.5 95.499c0 44 10.333 81 31 111s46 53.667 76 71c-26 17.333 -45.5 38.333 -58.5 63s-19.5 52 -19.5 82c0 28.667 5.83301 54.834 17.5 78.501s27.5 44 47.5 61s43.667 30.167 71 39.5
s56.666 14 87.999 14c32 0 61.667 -4.66699 89 -14s51 -22.5 71 -39.5s35.667 -37.333 47 -61s17 -49.834 17 -78.501zM377.001 206c0 25.333 -8.33203 46.666 -24.999 63.999s-37.667 30.333 -63 39c-25.333 -8.66699 -45.833 -21.667 -61.5 -39
s-23.5 -38.666 -23.5 -63.999c0 -23.333 7.33301 -42.666 22 -57.999s36 -23 64 -23c29.333 0 51.166 7.66699 65.499 23s21.5 34.666 21.5 57.999zM224.002 527c0 -20.667 6.16797 -38.168 18.501 -52.501s28.166 -25.166 47.499 -32.499c20.667 7.33301 37 18 49 32
s18 31.667 18 53c0 16.667 -5.5 31.167 -16.5 43.5s-27.5 18.5 -49.5 18.5s-38.667 -6.16699 -50 -18.5s-17 -26.833 -17 -43.5z" />
    <glyph glyph-name="nine" unicode="9" horiz-adv-x="596" 
d="M149 -75c-5.33301 5.33301 -10.334 14.8311 -15.001 28.498s-7 30.167 -7 49.5c0 16 1 30.333 3 43s4.66699 23 8 31c26 2 50.667 6.83301 74 14.5s44.666 17.667 63.999 30s36.166 27 50.499 44s25.166 35.833 32.499 56.5l-3 2
c-7.33301 -9.33301 -20.833 -18 -40.5 -26s-43.5 -12 -71.5 -12c-28.667 0 -55.5 4.33301 -80.5 13s-47 22.167 -66 40.5s-34 41.833 -45 70.5s-16.5 63.334 -16.5 104.001s6.66699 76.5 20 107.5s31.5 57 54.5 78s49.833 36.833 80.5 47.5s63.334 16 98.001 16
c84 0 148 -24 192 -72s66 -120.667 66 -218c0 -56 -7.66699 -109.667 -23 -161s-39.166 -97.166 -71.499 -137.499s-73.666 -73.833 -123.999 -100.5s-110.166 -43 -179.499 -49zM287.999 318.998c25.333 0 46 8.33398 62 25.001s24 41 24 73c0 35.333 -7.66699 62 -23 80
s-35 27 -59 27s-44.333 -8.33301 -61 -25s-25 -42.334 -25 -77.001c0 -36 7.83301 -62.167 23.5 -78.5s35.167 -24.5 58.5 -24.5z" />
    <glyph glyph-name="colon" unicode=":" horiz-adv-x="296" 
d="M148 179c13.333 0 27 -0.666992 41 -2s28.667 -3 44 -5c2.66699 -15.333 4.66699 -30 6 -44s2 -27.667 2 -41s-0.666992 -27 -2 -41s-3.33301 -28.667 -6 -44c-15.333 -2.66699 -30 -4.66699 -44 -6s-27.667 -2 -41 -2s-27 0.666992 -41 2s-28.667 3.33301 -44 6
c-2.66699 15.333 -4.66699 30 -6 44s-2 27.667 -2 41s0.666992 27 2 41s3.33301 28.667 6 44c15.333 2 30 3.66699 44 5s27.667 2 41 2zM148 517c13.333 0 27 -0.666992 41 -2s28.667 -3 44 -5c2.66699 -15.333 4.66699 -30 6 -44s2 -27.667 2 -41s-0.666992 -27 -2 -41
s-3.33301 -28.667 -6 -44c-15.333 -2.66699 -30 -4.66699 -44 -6s-27.667 -2 -41 -2s-27 0.666992 -41 2s-28.667 3.33301 -44 6c-2.66699 15.333 -4.66699 30 -6 44s-2 27.667 -2 41s0.666992 27 2 41s3.33301 28.667 6 44c15.333 2 30 3.66699 44 5s27.667 2 41 2z" />
    <glyph glyph-name="semicolon" unicode=";" horiz-adv-x="320" 
d="M87 160c14.667 3.33301 28.498 5.83398 41.498 7.50098s24.833 2.5 35.5 2.5s23.834 -0.833008 39.501 -2.5s32.167 -4.83398 49.5 -9.50098l-76 -267c-16 -4 -30.333 -6.5 -43 -7.5s-24 -1.5 -34 -1.5c-10.667 0 -22.167 0.666992 -34.5 2s-28.166 4.33301 -47.499 9z
M171.998 517.001c13.333 0 27 -0.666992 41 -2s28.667 -3 44 -5c2.66699 -15.333 4.66699 -30 6 -44s2 -27.667 2 -41s-0.666992 -27 -2 -41s-3.33301 -28.667 -6 -44c-15.333 -2.66699 -30 -4.66699 -44 -6s-27.667 -2 -41 -2s-27 0.666992 -41 2s-28.667 3.33301 -44 6
c-2.66699 15.333 -4.66699 30 -6 44s-2 27.667 -2 41s0.666992 27 2 41s3.33301 28.667 6 44c15.333 2 30 3.66699 44 5s27.667 2 41 2z" />
    <glyph glyph-name="less" unicode="&#x3c;" horiz-adv-x="579" 
d="M240 353l260 -87.001c3.33301 -13.333 5.16602 -26 5.49902 -38s0.5 -23.667 0.5 -35c0 -4.66699 -0.166992 -10.667 -0.5 -18s-0.833008 -15 -1.5 -23s-1.5 -15.833 -2.5 -23.5s-2.16699 -14.5 -3.5 -20.5l-415 169c-6.66699 27.333 -10 53.666 -10 78.999
c0 24.667 3.33301 49 10 73l415 169c2.66699 -11.333 4.66699 -25.5 6 -42.5s2 -30.167 2 -39.5c0 -11.333 -0.166992 -22.666 -0.5 -33.999s-2.16602 -23.666 -5.49902 -36.999z" />
    <glyph glyph-name="equal" unicode="=" horiz-adv-x="579" 
d="M71 174c-2 13.333 -3.66699 25.498 -5 36.498s-2 22.5 -2 34.5c0 11.333 0.666992 22.833 2 34.5s3 24.167 5 37.5h436c2.66699 -13.333 4.66699 -25.666 6 -36.999s2 -22.666 2 -33.999s-0.666992 -22.833 -2 -34.5s-3.33301 -24.167 -6 -37.5h-436zM71 388.998
c-2 13.333 -3.66699 25.498 -5 36.498s-2 22.5 -2 34.5c0 11.333 0.666992 22.833 2 34.5s3 24.167 5 37.5h436c2.66699 -13.333 4.66699 -25.666 6 -36.999s2 -22.666 2 -33.999s-0.666992 -22.833 -2 -34.5s-3.33301 -24.167 -6 -37.5h-436z" />
    <glyph glyph-name="greater" unicode="&#x3e;" horiz-adv-x="579" 
d="M79 445c-3.33301 13.333 -5.16602 25.667 -5.49902 37s-0.5 22.666 -0.5 33.999c0 9.33301 0.666992 22.5 2 39.5s3.33301 31.167 6 42.5l415 -169c6.66699 -24 10 -48.333 10 -73c0 -25.333 -3.33301 -51.666 -10 -78.999l-415 -169c-1.33301 6 -2.5 12.833 -3.5 20.5
s-1.83301 15.5 -2.5 23.5s-1.16699 15.667 -1.5 23s-0.5 13.333 -0.5 18c0 11.333 0.166992 23 0.5 35s2.16602 24.667 5.49902 38l260 87z" />
    <glyph glyph-name="question" unicode="?" horiz-adv-x="479" 
d="M71 550c-4 8.66699 -8.16699 18.665 -12.5 29.998s-8.16602 23 -11.499 35s-6.33301 23.833 -9 35.5s-4.33398 22.5 -5.00098 32.5c18.667 6.66699 35.834 12.334 51.501 17.001s30.667 8.33398 45 11.001s28.5 4.66699 42.5 6s28.667 2 44 2
c80.667 0 141.334 -18.333 182.001 -55s61 -87.334 61 -152.001c0 -29.333 -5.16699 -55 -15.5 -77s-23 -40.667 -38 -56s-30.833 -28 -47.5 -38s-31.667 -18 -45 -24v-91c-14.667 -2 -29 -3.66699 -43 -5s-26.667 -2 -38 -2c-12 0 -24.833 0.666992 -38.5 2
s-27.167 3 -40.5 5v188c17.333 2 34.333 5.16699 51 9.5s31.5 10.166 44.5 17.499s23.5 16.5 31.5 27.5s12 24.167 12 39.5c0 22.667 -8.33301 39.834 -25 51.501s-39 17.5 -67 17.5c-12.667 0 -24 -0.5 -34 -1.5s-19.833 -2.66699 -29.5 -5
s-19.834 -5.16602 -30.501 -8.49902s-22.334 -7.33301 -35.001 -12zM229 178.998c13.333 0 27 -0.666992 41 -2s28.667 -3 44 -5c2.66699 -15.333 4.66699 -30 6 -44s2 -27.667 2 -41s-0.666992 -27 -2 -41s-3.33301 -28.667 -6 -44c-15.333 -2.66699 -30 -4.66699 -44 -6
s-27.667 -2 -41 -2s-27 0.666992 -41 2s-28.667 3.33301 -44 6c-2.66699 15.333 -4.66699 30 -6 44s-2 27.667 -2 41s0.666992 27 2 41s3.33301 28.667 6 44c15.333 2 30 3.66699 44 5s27.667 2 41 2z" />
    <glyph glyph-name="at" unicode="@" horiz-adv-x="982" 
d="M553 401c-5.33301 0.666992 -10 1.16699 -14 1.5s-8.66699 0.5 -14 0.5c-19.333 0 -36.666 -4.5 -51.999 -13.5s-28.333 -21 -39 -36s-18.834 -32.333 -24.501 -52s-8.5 -39.834 -8.5 -60.501c0 -25.333 5.33301 -43.666 16 -54.999s25 -17 43 -17
c10 0 19.333 0.5 28 1.5s17.667 3.16699 27 6.5zM660 50c-47.333 0 -83.666 11.668 -108.999 35.001c-18.667 -9.33301 -38.334 -17.5 -59.001 -24.5s-47 -10.5 -79 -10.5c-21.333 0 -41.666 3.33301 -60.999 10s-36.333 16.834 -51 30.501s-26.167 31.167 -34.5 52.5
s-12.5 46.666 -12.5 75.999c0 44.667 7.5 85.834 22.5 123.501s35.5 70.167 61.5 97.5s56.167 48.5 90.5 63.5s70.833 22.5 109.5 22.5c28.667 0 57.834 -2.5 87.501 -7.5s58.5 -12.5 86.5 -22.5l-62 -327c6 -2 14.333 -3 25 -3c22.667 0 42.834 6.83301 60.501 20.5
s32.5 31.167 44.5 52.5s21.167 45 27.5 71s9.5 51.667 9.5 77c0 70.667 -22.5 126 -67.5 166s-110.5 60 -196.5 60c-60 0 -113.833 -10.833 -161.5 -32.5s-87.834 -50.667 -120.501 -87s-57.667 -77.833 -75 -124.5s-26 -95 -26 -145c0 -44 6.83301 -82.167 20.5 -114.5
s32.167 -59 55.5 -80s50.666 -36.5 81.999 -46.5s64.666 -15 99.999 -15c33.333 0 64.666 2.33301 93.999 7s57 12 83 22c16.667 -38 29.334 -73.333 38.001 -106c-26.667 -13.333 -61.167 -23.5 -103.5 -30.5s-84.833 -10.5 -127.5 -10.5c-52 0 -101 7.66699 -147 23
s-86.167 38.333 -120.5 69s-61.666 69.167 -81.999 115.5s-30.5 100.833 -30.5 163.5c0 38.667 4.66699 78 14 118s23.666 78.833 42.999 116.5s43.5 73.167 72.5 106.5s63.167 62.333 102.5 87s84 44.167 134 58.5s105.667 21.5 167 21.5c54 0 104.5 -7.16699 151.5 -21.5
s87.667 -35.833 122 -64.5s61.5 -64.334 81.5 -107.001s30 -92.334 30 -149.001c0 -41.333 -6.83301 -82.166 -20.5 -122.499s-33.167 -76.333 -58.5 -108s-55.833 -57.334 -91.5 -77.001s-75.5 -29.5 -119.5 -29.5z" />
    <glyph glyph-name="A" unicode="A" horiz-adv-x="642" 
d="M178 2c-15.333 -2.66699 -29.335 -4.66699 -42.002 -6s-25 -2 -37 -2s-25.833 0.833008 -41.5 2.5s-33.167 4.16699 -52.5 7.5l224 714c17.333 2 33.5 3.66699 48.5 5s30.167 2 45.5 2c12.667 0 26.5 -0.666992 41.5 -2s32.167 -3 51.5 -5l221 -715
c-38 -6 -71.333 -9 -100 -9c-13.333 0 -26.666 0.666992 -39.999 2s-27.666 3.33301 -42.999 6l-38 139c-18.667 -5.33301 -36.5 -9.33301 -53.5 -12s-33.833 -4 -50.5 -4c-15.333 0 -31 1.16699 -47 3.5s-32.667 5.83301 -50 10.5zM317.998 530l-67 -257
c11.333 -3.33301 22 -6 32 -8s20.333 -3 31 -3c11.333 0 22.5 0.833008 33.5 2.5s22.5 4.16699 34.5 7.5z" />
    <glyph glyph-name="B" unicode="B" horiz-adv-x="597" 
d="M566 210c0 -44 -7.99902 -80.3311 -23.999 -108.998s-38 -51.334 -66 -68.001s-61.333 -28.334 -100 -35.001s-80.667 -10 -126 -10c-36 0 -68.333 1.33301 -97 4s-59.667 6 -93 10v715c25.333 4 53 7.33301 83 10s65 4 105 4c38 0 73.5 -3.16699 106.5 -9.5
s61.833 -17 86.5 -32s44.167 -35 58.5 -60s21.5 -56.5 21.5 -94.5c0 -31.333 -7 -59.833 -21 -85.5s-31.667 -45.5 -53 -59.5c15.333 -6 30.166 -13.833 44.499 -23.5s27 -21.667 38 -36s19.833 -31.5 26.5 -51.5s10 -43 10 -69zM233.001 302.002v-168
c4.66699 -0.666992 10.5 -1.16699 17.5 -1.5s16.167 -0.5 27.5 -0.5c12.667 0 25.5 1.33301 38.5 4s24.833 7.16699 35.5 13.5s19.167 15 25.5 26s9.5 24.833 9.5 41.5c0 32 -10.5 54.167 -31.5 66.5s-48.167 18.5 -81.5 18.5h-41zM233.001 444.002h28.002
c28.667 0 51 5.83301 67 17.5s24 31.834 24 60.501c0 14 -2.83301 25.667 -8.5 35s-12.834 16.666 -21.501 21.999s-18.334 9 -29.001 11s-21 3 -31 3h-14.5c-5.66699 0 -10.5 -0.333008 -14.5 -1v-148z" />
    <glyph glyph-name="C" unicode="C" horiz-adv-x="609" 
d="M228 358c0 -141.333 59.333 -211.999 178 -211.999c21.333 0 41.5 2 60.5 6s42.167 10.667 69.5 20c22 -48 36.667 -97.333 44 -148c-19.333 -7.33301 -37.333 -13.333 -54 -18s-32.667 -8.16699 -48 -10.5s-30.5 -4 -45.5 -5s-30.5 -1.5 -46.5 -1.5
c-56.667 0 -106.5 9.16699 -149.5 27.5s-79 43.833 -108 76.5s-50.833 71.667 -65.5 117s-22 94.666 -22 147.999s7.66699 102.833 23 148.5s37.5 85.167 66.5 118.5s64.833 59.333 107.5 78s91 28 145 28c32 0 62.333 -2.33301 91 -7s60.667 -14 96 -28
c-1.33301 -27.333 -6.33301 -53.833 -15 -79.5s-17.667 -48.167 -27 -67.5c-13.333 4.66699 -25.5 8.66699 -36.5 12s-21.5 6 -31.5 8s-20 3.5 -30 4.5s-20.667 1.5 -32 1.5c-54 0 -95.833 -18.167 -125.5 -54.5s-44.5 -90.5 -44.5 -162.5z" />
    <glyph glyph-name="D" unicode="D" horiz-adv-x="685" 
d="M259 731c126 0 221.668 -31.5 287.001 -94.5s98 -156.833 98 -281.5c0 -126.667 -33.333 -219.5 -100 -278.5s-165.334 -88.5 -296.001 -88.5c-33.333 0 -65.5 1.5 -96.5 4.5s-61.5 6.5 -91.5 10.5v714c10 1.33301 22.667 2.83301 38 4.5s32 3.16699 50 4.5
s36.5 2.5 55.5 3.5s37.5 1.5 55.5 1.5zM237.001 145c4.66699 -0.666992 9.99902 -1 15.999 -1h19c26 0 50.5 3.16699 73.5 9.5s42.833 17.5 59.5 33.5s29.834 37.667 39.501 65s14.5 62.333 14.5 105c0 42 -5 77 -15 105s-23.167 50.167 -39.5 66.5s-35.5 28 -57.5 35
s-45 10.5 -69 10.5c-13.333 0 -23 -0.166992 -29 -0.5s-10 -0.5 -12 -0.5v-428z" />
    <glyph glyph-name="E" unicode="E" horiz-adv-x="527" 
d="M439 375c0 -23.333 -3 -49.332 -9 -77.999h-193v-142h251c6 -28 9 -53.333 9 -76c0 -24.667 -3 -51 -9 -79h-428v719h422c2.66699 -14.667 4.66699 -28.334 6 -41.001s2 -24.667 2 -36c0 -22 -2.66699 -48.333 -8 -79h-245v-110h193c6 -29.333 9 -55.333 9 -78z" />
    <glyph glyph-name="F" unicode="F" horiz-adv-x="510" 
d="M60 719l422 0.000976562c2.66699 -14.667 4.66699 -28.334 6 -41.001s2 -24.667 2 -36c0 -22 -2.66699 -48.333 -8 -79h-245v-122h193c6 -30 9 -56 9 -78c0 -22.667 -3 -49 -9 -79h-193v-281c-35.333 -6 -64.666 -9 -87.999 -9c-24.667 0 -54.334 3 -89.001 9v716z" />
    <glyph glyph-name="G" unicode="G" horiz-adv-x="659" 
d="M434 389c18 2.66699 33.998 4.66992 47.998 6.00293s27 2 39 2c11.333 0 25 -0.666992 41 -2s31.667 -3.33301 47 -6v-364c-39.333 -14.667 -78.166 -24.334 -116.499 -29.001s-71.166 -7 -98.499 -7c-58.667 0 -110 9.16699 -154 27.5s-80.833 43.833 -110.5 76.5
s-51.834 71.667 -66.501 117s-22 94.666 -22 147.999s7.66699 102.833 23 148.5s37.5 85.167 66.5 118.5s64.833 59.333 107.5 78s91 28 145 28c32 0 62.5 -2.33301 91.5 -7s60.833 -14.334 95.5 -29.001c-1.33301 -27.333 -6.33301 -54 -15 -80s-17.667 -48 -27 -66
c-13.333 4.66699 -25.5 8.66699 -36.5 12s-21.5 6 -31.5 8s-20 3.5 -30 4.5s-20.667 1.5 -32 1.5c-54 0 -95.667 -18.167 -125 -54.5s-44 -90.5 -44 -162.5c0 -71.333 14.333 -124.5 43 -159.5s71.334 -52.5 128.001 -52.5c12.667 0 24 1 34 3v240z" />
    <glyph glyph-name="H" unicode="H" horiz-adv-x="651" 
d="M503 -6c-24.667 0 -54.334 3 -89.001 9v292h-177v-292c-35.333 -6 -64.666 -9 -87.999 -9c-24.667 0 -54.334 3 -89.001 9v714c18 2.66699 34.333 4.66699 49 6s27.667 2 39 2c12 0 25.5 -0.666992 40.5 -2s31.167 -3.33301 48.5 -6v-265h177v265
c18 2.66699 34.167 4.66699 48.5 6s27.5 2 39.5 2s25.5 -0.666992 40.5 -2s31.167 -3.33301 48.5 -6v-714c-35.333 -6 -64.666 -9 -87.999 -9z" />
    <glyph glyph-name="I" unicode="I" horiz-adv-x="297" 
d="M149 -6c-24.667 0 -54.334 3 -89.001 9v714c18 2.66699 34.333 4.66699 49 6s27.667 2 39 2c12 0 25.5 -0.666992 40.5 -2s31.167 -3.33301 48.5 -6v-714c-35.333 -6 -64.666 -9 -87.999 -9z" />
    <glyph glyph-name="J" unicode="J" horiz-adv-x="411" 
d="M35 152c6 -1.33301 14.999 -2.99805 26.999 -4.99805s24.667 -3 38 -3c8 0 16.667 0.5 26 1.5s17.833 4 25.5 9s14.167 12.5 19.5 22.5s8 24 8 42v344h-109c-6 28 -9 54.333 -9 79c0 23.333 3 49 9 77h286v-520c0 -38 -6 -70.5 -18 -97.5s-28.333 -48.833 -49 -65.5
s-44.834 -28.834 -72.501 -36.501s-57.5 -11.5 -89.5 -11.5c-19.333 0 -38.666 1.5 -57.999 4.5s-36.666 6.83301 -51.999 11.5c-0.666992 5.33301 -1.16699 10.666 -1.5 15.999s-0.5 11 -0.5 17c0 38.667 6.66699 77 20 115z" />
    <glyph glyph-name="K" unicode="K" horiz-adv-x="633" 
d="M446 372l187.001 -369c-11.333 -2.66699 -26.5 -4.83398 -45.5 -6.50098s-36.167 -2.5 -51.5 -2.5c-19.333 0 -38 0.833008 -56 2.5s-33.333 3.83398 -46 6.50098l-183 360l169 354c20 3.33301 37.333 5.5 52 6.5s29.667 1.5 45 1.5
c7.33301 0 15.666 -0.166992 24.999 -0.5s18.5 -1 27.5 -2l26 -3l21.5 -2.5zM60.001 717c18 2.66699 34.333 4.66699 49 6s27.667 2 39 2c12 0 25.5 -0.666992 40.5 -2s31.167 -3.33301 48.5 -6v-714c-35.333 -6 -64.666 -9 -87.999 -9c-24.667 0 -54.334 3 -89.001 9v714z
" />
    <glyph glyph-name="L" unicode="L" horiz-adv-x="491" 
d="M60 717c18 2.66699 34.333 4.66504 49 5.99805s27.667 2 39 2c12 0 25.5 -0.666992 40.5 -2s31.167 -3.33301 48.5 -6v-560h231c3.33301 -16.667 5.5 -31.167 6.5 -43.5s1.5 -23.5 1.5 -33.5c0 -11.333 -0.5 -23.166 -1.5 -35.499s-3.16699 -27.166 -6.5 -44.499h-408
v717z" />
    <glyph glyph-name="M" unicode="M" horiz-adv-x="801" 
d="M81 717c14 2 29.167 3.83301 45.5 5.5s31.5 2.5 45.5 2.5c13.333 0 27.833 -0.833008 43.5 -2.5s30.167 -3.5 43.5 -5.5l142 -372l147 372c13.333 2 26.833 3.83301 40.5 5.5s27.167 2.5 40.5 2.5c14 0 28.333 -0.833008 43 -2.5s29 -3.5 43 -5.5l34 -714
c-10.667 -2 -22.5 -4 -35.5 -6s-30.167 -3 -51.5 -3c-23.333 0 -51 3 -83 9l-14 414l-110 -273c-12 -2 -24 -3.66699 -36 -5s-23 -2 -33 -2s-20.333 0.5 -31 1.5s-21.667 2.83301 -33 5.5l-98 269l-11 -410c-28 -6 -54.667 -9 -80 -9c-23.333 0 -50.333 3 -81 9z" />
    <glyph glyph-name="N" unicode="N" horiz-adv-x="659" 
d="M60 717c14.667 2.66699 28.002 4.66797 40.002 6.00098s23.667 2 35 2c12 0 24.5 -0.833008 37.5 -2.5s24.167 -3.5 33.5 -5.5l232 -392v392c17.333 2.66699 33 4.66699 47 6s26.667 2 38 2s23.333 -0.666992 36 -2s26 -3.33301 40 -6l-1 -714
c-6.66699 -2 -16.334 -4 -29.001 -6s-26.334 -3 -41.001 -3c-16.667 0 -31.667 1.16699 -45 3.5s-23 4.16602 -29 5.49902l-233 390v-390c-29.333 -6 -56 -9 -80 -9s-51 3 -81 9v714z" />
    <glyph glyph-name="O" unicode="O" horiz-adv-x="711" 
d="M41 357c0 53.333 6.16699 102.833 18.5 148.5s31.333 85.167 57 118.5s58.334 59.5 98.001 78.5s86.834 28.5 141.501 28.5s101.667 -9.5 141 -28.5s71.833 -45.167 97.5 -78.5s44.667 -72.833 57 -118.5s18.5 -95.167 18.5 -148.5s-6.16699 -102.5 -18.5 -147.5
s-31.333 -84 -57 -117s-58.167 -58.667 -97.5 -77s-86.333 -27.5 -141 -27.5s-101.834 9.16699 -141.501 27.5s-72.334 44 -98.001 77s-44.667 72 -57 117s-18.5 94.167 -18.5 147.5zM484 357c0 145.333 -42.333 218.001 -127 218.001c-86.667 0 -130 -72.667 -130 -218
c0 -72.667 10.5 -126.834 31.5 -162.501s53.5 -53.5 97.5 -53.5c85.333 0 128 72 128 216z" />
    <glyph glyph-name="P" unicode="P" horiz-adv-x="585" 
d="M233 379c3.33301 -1.33301 8.99902 -2.33203 16.999 -2.99902s16.333 -1 25 -1c28.667 0 52 8.33301 70 25s27 42 27 76c0 20 -2.83301 36.833 -8.5 50.5s-13.5 24.667 -23.5 33s-21.667 14.166 -35 17.499s-27.333 5 -42 5h-14c-5.33301 0 -10.666 -0.333008 -15.999 -1
v-202zM59.999 717.001c15.333 2 38.833 4.8291 70.5 8.49609s71.5 5.5 119.5 5.5c35.333 0 71 -3.33301 107 -10s68.5 -19.167 97.5 -37.5s52.5 -44.166 70.5 -77.499s27 -76.666 27 -129.999c0 -47.333 -7.16699 -86.666 -21.5 -117.999s-33.333 -56.333 -57 -75
s-50.667 -32 -81 -40s-61.5 -12 -93.5 -12c-12.667 0 -25.5 0.5 -38.5 1.5s-22.167 2.16699 -27.5 3.5v-233c-17.333 -3.33301 -33 -5.66602 -47 -6.99902s-27 -2 -39 -2c-23.333 0 -52.333 3 -87 9v714z" />
    <glyph glyph-name="Q" unicode="Q" horiz-adv-x="711" 
d="M317 -169l0.000976562 28.5c0 5.66699 0.333008 10.834 1 15.501c3.33301 32.667 12.666 66.667 27.999 102l331 -54c-0.666992 -25.333 -3 -50.333 -7 -75s-10.333 -49.334 -19 -74.001zM41.001 357c0 53.333 6.16699 102.833 18.5 148.5s31.333 85.167 57 118.5
s58.334 59.5 98.001 78.5s86.834 28.5 141.501 28.5s101.667 -9.5 141 -28.5s71.833 -45.167 97.5 -78.5s44.667 -72.833 57 -118.5s18.5 -95.167 18.5 -148.5s-6.16699 -102.5 -18.5 -147.5s-31.333 -84 -57 -117s-58.167 -58.667 -97.5 -77s-86.333 -27.5 -141 -27.5
s-101.834 9.16699 -141.501 27.5s-72.334 44 -98.001 77s-44.667 72 -57 117s-18.5 94.167 -18.5 147.5zM484.001 357c0 145.333 -42.333 218.001 -127 218.001c-86.667 0 -130 -72.667 -130 -218c0 -72.667 10.5 -126.834 31.5 -162.501s53.5 -53.5 97.5 -53.5
c85.333 0 128 72 128 216z" />
    <glyph glyph-name="R" unicode="R" horiz-adv-x="616" 
d="M60 717l90.499 9.50195c27.667 3 56.834 4.5 87.501 4.5c36.667 0 73.334 -3.5 110.001 -10.5s69.334 -19.167 98.001 -36.5s52 -41 70 -71s27 -68 27 -114c0 -24.667 -2.83301 -46.834 -8.5 -66.501s-13 -37.167 -22 -52.5s-19 -28.666 -30 -39.999
s-21.833 -21 -32.5 -29l156 -308c-16 -2.66699 -33.5 -4.66699 -52.5 -6s-36.167 -2 -51.5 -2c-13.333 0 -28.833 0.666992 -46.5 2s-33.167 3.33301 -46.5 6l-142 327l9 5c8 4 16.833 10.667 26.5 20s18.667 20.5 27 33.5s15.333 27.5 21 43.5s8.5 32.667 8.5 50
c0 33.333 -9.33301 57.666 -28 72.999s-41.667 23 -69 23c-6.66699 0 -12.334 -0.333008 -17.001 -1s-7.66699 -1.33398 -9 -2.00098v-572c-35.333 -6 -64.333 -9 -87 -9c-24.667 0 -54.334 3 -89.001 9v714z" />
    <glyph glyph-name="S" unicode="S" horiz-adv-x="564" 
d="M340 439c28 -11.333 53.1689 -22.8301 75.502 -34.4971s41.5 -25.667 57.5 -42s28.333 -36 37 -59s13 -50.833 13 -83.5c0 -35.333 -6.16699 -67.166 -18.5 -95.499s-30.5 -52.666 -54.5 -72.999s-53.5 -36 -88.5 -47s-75.167 -16.5 -120.5 -16.5
c-41.333 0 -77.833 3.33301 -109.5 10s-65.834 17 -102.501 31c2.66699 23.333 7.33398 48.166 14.001 74.499s14.667 53.166 24 80.499c61.333 -26.667 114.666 -40 159.999 -40c34 0 60.5 5.16699 79.5 15.5s28.5 28.166 28.5 53.499c0 10.667 -2 19.834 -6 27.501
s-9.33301 14.167 -16 19.5s-14.167 9.83301 -22.5 13.5s-16.833 7.16699 -25.5 10.5l-56 21c-24 8.66699 -45.833 19 -65.5 31s-36.5 26.167 -50.5 42.5s-24.833 35.166 -32.5 56.499s-11.5 46.333 -11.5 75c0 35.333 6 66.666 18 93.999s28.833 50.5 50.5 69.5
s47.834 33.333 78.501 43s65 14.5 103 14.5c34 0 66.833 -3.33301 98.5 -10s65.5 -16.334 101.5 -29.001c-2.66699 -21.333 -7.5 -44.833 -14.5 -70.5s-15.833 -49.834 -26.5 -72.501c-17.333 7.33301 -37.666 15 -60.999 23s-52.333 12 -87 12
c-10.667 0 -20.834 -1 -30.501 -3s-18.334 -5.16699 -26.001 -9.5s-13.834 -10.333 -18.501 -18s-7 -17.167 -7 -28.5c0 -19.333 6.33301 -33.666 19 -42.999s27.667 -17.333 45 -24z" />
    <glyph glyph-name="T" unicode="T" horiz-adv-x="558" 
d="M191 563l-167 0.000976562c-6 28.667 -9 55 -9 79c0 22 3 47.667 9 77h511c2.66699 -14.667 4.66699 -28.334 6 -41.001s2 -24.667 2 -36c0 -22 -2.66699 -48.333 -8 -79h-167v-560c-35.333 -6 -64.666 -9 -87.999 -9c-24.667 0 -54.334 3 -89.001 9v560z" />
    <glyph glyph-name="U" unicode="U" horiz-adv-x="662" 
d="M331 -11c-54 0 -98.832 7.33301 -134.499 22s-63.834 35.834 -84.501 63.501s-35.167 61.167 -43.5 100.5s-12.5 83.666 -12.5 132.999v409c19.333 2.66699 36 4.5 50 5.5s27.333 1.5 40 1.5c11.333 0 23.833 -0.5 37.5 -1.5s30.167 -2.83301 49.5 -5.5v-388
c0 -33.333 1.33301 -61.666 4 -84.999s7.5 -42.333 14.5 -57s16.833 -25.167 29.5 -31.5s29.334 -9.5 50.001 -9.5s37.5 3.16699 50.5 9.5s23 16.833 30 31.5s11.667 33.667 14 57s3.5 51.666 3.5 84.999v388c20 2.66699 36.833 4.5 50.5 5.5s26.167 1.5 37.5 1.5
c12 0 25 -0.5 39 -1.5s30.667 -2.83301 50 -5.5v-409c0 -49.333 -4.16699 -93.666 -12.5 -132.999s-22.833 -72.833 -43.5 -100.5s-48.834 -48.834 -84.501 -63.501s-80.5 -22 -134.5 -22z" />
    <glyph glyph-name="V" unicode="V" horiz-adv-x="652" 
d="M328 233l136.998 484c15.333 2.66699 30.833 4.66699 46.5 6s32.167 2 49.5 2c11.333 0 25.333 -0.833008 42 -2.5s31.334 -3.5 44.001 -5.5l-230 -715c-17.333 -2.66699 -33.5 -4.66699 -48.5 -6s-29.5 -2 -43.5 -2c-13.333 0 -27 0.666992 -41 2s-30.667 3.33301 -50 6
l-229 715c11.333 2 26.333 3.83301 45 5.5s36.667 2.5 54 2.5c14 0 29.333 -0.833008 46 -2.5s31.334 -3.5 44.001 -5.5z" />
    <glyph glyph-name="W" unicode="W" horiz-adv-x="896" 
d="M720 717c17.333 3.33301 32.002 5.50098 44.002 6.50098s24.333 1.5 37 1.5c13.333 0 27.333 -0.5 42 -1.5s31.334 -3.16699 50.001 -6.5l-172 -714c-10 -2 -22.833 -4 -38.5 -6s-32.834 -3 -51.501 -3s-36.834 1.16699 -54.501 3.5s-29.5 4.16602 -35.5 5.49902l-95 414
l-101 -414c-6 -1.33301 -17.167 -3.16602 -33.5 -5.49902s-33.833 -3.5 -52.5 -3.5s-35.334 1 -50.001 3s-27 4 -37 6l-169 713c18.667 3.33301 36.667 5.66602 54 6.99902s32.666 2 45.999 2c12.667 0 25.834 -0.5 39.501 -1.5s29.167 -3.16699 46.5 -6.5l83 -457l50 229.5
l49 227.5c12 2 25.333 3.83301 40 5.5s29.667 2.5 45 2.5c13.333 0 27 -0.833008 41 -2.5s26 -3.5 36 -5.5l104 -462z" />
    <glyph glyph-name="X" unicode="X" horiz-adv-x="645" 
d="M39 717c17.333 3.33301 34.168 5.5 50.501 6.5s33.166 1.5 50.499 1.5c11.333 0 26 -0.833008 44 -2.5s32.333 -3.5 43 -5.5l95 -347l97 347c10.667 2.66699 25 4.66699 43 6s32.667 2 44 2c17.333 0 34 -0.5 50 -1.5s32.667 -3.16699 50 -6.5l-117 -343l144 -371
c-34 -6 -67.667 -9 -101 -9c-11.333 0 -26 0.833008 -44 2.5s-32.333 3.83398 -43 6.50098l-123 357l-122 -357c-10.667 -2.66699 -25 -4.83398 -43 -6.50098s-32.667 -2.5 -44 -2.5c-33.333 0 -67 3 -101 9l145 371z" />
    <glyph glyph-name="Y" unicode="Y" horiz-adv-x="622" 
d="M433 717c15.333 2.66699 31.335 4.66699 48.002 6s33.667 2 51 2c11.333 0 26 -0.833008 44 -2.5s33.333 -3.5 46 -5.5l-223 -459v-255c-35.333 -6 -64.666 -9 -87.999 -9c-24.667 0 -54.334 3 -89.001 9v255l-54.5 112.5l-57 117l-56.5 117l-54 112.5
c11.333 2 26.666 3.83301 45.999 5.5s37.666 2.5 54.999 2.5c14 0 29.5 -0.833008 46.5 -2.5s31.833 -3.5 44.5 -5.5l123 -278z" />
    <glyph glyph-name="Z" unicode="Z" horiz-adv-x="577" 
d="M529 79c0 -24.667 -3 -51 -9 -79h-482l-18 27l276 536h-245c-3.33301 14.667 -5.5 28.334 -6.5 41.001s-1.5 24.667 -1.5 36s0.5 23.666 1.5 36.999s3.16699 27.333 6.5 42h487l15 -29l-274 -535h241c6 -28 9 -53.333 9 -76z" />
    <glyph glyph-name="bracketleft" unicode="[" horiz-adv-x="344" 
d="M314 -97c0 -11.333 -0.666016 -22.501 -1.99902 -33.501s-3.66602 -23.5 -6.99902 -37.5h-255v944h255c3.33301 -13.333 5.66602 -25.5 6.99902 -36.5s2 -22.167 2 -33.5c0 -20.667 -3 -45 -9 -73h-90v-658h90c3.33301 -14 5.66602 -26.667 6.99902 -38
s2 -22.666 2 -33.999z" />
    <glyph glyph-name="backslash" unicode="\" horiz-adv-x="416" 
d="M411 2c-17.333 -3.33301 -33 -5.5 -47 -6.5s-26.667 -1.5 -38 -1.5c-13.333 0 -26.333 0.666992 -39 2s-26 3.33301 -40 6l-242 715c17.333 3.33301 33 5.5 47 6.5s26.667 1.5 38 1.5c13.333 0 26.333 -0.666992 39 -2s26 -3.33301 40 -6z" />
    <glyph glyph-name="bracketright" unicode="]" horiz-adv-x="344" 
d="M30 -97c0 11.333 0.667969 22.667 2.00098 34s3.66602 24 6.99902 38h90v658h-90c-6 28 -9 52.333 -9 73c0 11.333 0.666992 22.5 2 33.5s3.66602 23.167 6.99902 36.5h255v-944h-255c-3.33301 14 -5.66602 26.5 -6.99902 37.5s-2 22.167 -2 33.5z" />
    <glyph glyph-name="asciicircum" unicode="^" horiz-adv-x="549" 
d="M273 549l-70.998 -184c-11.333 -2.66699 -23.833 -4.83398 -37.5 -6.50098s-28.834 -2.5 -45.501 -2.5c-24.667 0 -51 3 -79 9l162 352c8.66699 2 20.5 3.83301 35.5 5.5s27.833 2.5 38.5 2.5s23.5 -0.833008 38.5 -2.5s27.167 -3.5 36.5 -5.5l158 -352
c-28 -6 -54.333 -9 -79 -9c-16.667 0 -31.834 0.833008 -45.501 2.5s-26.167 3.83398 -37.5 6.50098z" />
    <glyph glyph-name="underscore" unicode="_" horiz-adv-x="500" 
d="M492 -2c3.33301 -14 5.5 -26 6.5 -36s1.5 -20 1.5 -30c0 -7.33301 -0.666992 -15.5 -2 -24.5s-3.66602 -21.5 -6.99902 -37.5h-483c-3.33301 14 -5.5 26.167 -6.5 36.5s-1.5 20.166 -1.5 29.499c0 7.33301 0.666992 15.833 2 25.5s3.66602 21.834 6.99902 36.501h483z
" />
    <glyph glyph-name="grave" unicode="`" horiz-adv-x="480" 
d="M94 709c12 2 26.167 3.50098 42.5 4.50098s33.166 1.5 50.499 1.5c35.333 0 66 -2 92 -6l107 -123c-11.333 -2.66699 -23.166 -4.33398 -35.499 -5.00098s-24.833 -1 -37.5 -1c-28.667 0 -53 2 -73 6z" />
    <glyph glyph-name="a" unicode="a" horiz-adv-x="523" 
d="M30 169c0 32.667 6.99805 59.667 20.998 81s32 38.333 54 51s46.333 21.5 73 26.5s52.667 7.5 78 7.5h61c-0.666992 12 -4 22 -10 30s-13.667 14.167 -23 18.5s-19.666 7.33301 -30.999 9s-23 2.5 -35 2.5c-16 0 -34.667 -1.83301 -56 -5.5s-43.333 -9.5 -66 -17.5
c-6 11.333 -11.167 21.666 -15.5 30.999s-7.66602 18.833 -9.99902 28.5s-4 19.667 -5 30s-1.5 22.166 -1.5 35.499c32 10.667 63.833 18.667 95.5 24s60.167 8 85.5 8c34.667 0 66 -4.16699 94 -12.5s51.833 -21.166 71.5 -38.499s34.834 -39.5 45.501 -66.5
s16 -59.167 16 -96.5v-293c-25.333 -7.33301 -56 -14.666 -92 -21.999s-74 -11 -114 -11c-34.667 0 -66.5 3.16699 -95.5 9.5s-53.833 16.5 -74.5 30.5s-36.834 32.5 -48.501 55.5s-17.5 51.167 -17.5 84.5zM265.998 113c6 0 14.668 0.667969 26.001 2.00098
s19.666 2.66602 24.999 3.99902v110h-57c-23.333 0 -43 -5 -59 -15s-24 -24 -24 -42c0 -13.333 3 -23.833 9 -31.5s13.5 -13.5 22.5 -17.5s18.667 -6.66699 29 -8s19.833 -2 28.5 -2z" />
    <glyph glyph-name="b" unicode="b" horiz-adv-x="562" 
d="M56 515c13.333 2 28.668 3.83398 46.001 5.50098s35 3.16699 53 4.5s35.5 2.33301 52.5 3s31.833 1 44.5 1c83.333 0 145.666 -11.833 186.999 -35.5s62 -60.5 62 -110.5c0 -25.333 -5.83301 -46.833 -17.5 -64.5s-27.5 -32.834 -47.5 -45.501c28 -10 51 -24.333 69 -43
s27 -45 27 -79c0 -61.333 -22.667 -103.833 -68 -127.5s-112.333 -35.5 -201 -35.5c-23.333 0 -53.833 0.833008 -91.5 2.5s-76.167 5.16699 -115.5 10.5v514zM223.002 214.001l-0.000976562 -103c2 0 7.33301 -0.333008 16 -1s20.334 -1 35.001 -1c28 0 48 4.66699 60 14
s18 22.333 18 39c0 6.66699 -1.16699 13.167 -3.5 19.5s-6.5 11.833 -12.5 16.5s-14.333 8.5 -25 11.5s-24.667 4.5 -42 4.5h-46zM223.001 319.001h49.001c25.333 0 42.333 5.5 51 16.5s13 22.5 13 34.5c0 11.333 -4.5 21.833 -13.5 31.5s-25.5 14.5 -49.5 14.5
c-7.33301 0 -15.833 -0.166992 -25.5 -0.5s-17.834 -0.833008 -24.501 -1.5v-95z" />
    <glyph glyph-name="c" unicode="c" horiz-adv-x="471" 
d="M31 258c0 40 5.66895 76.667 17.002 110s28 61.833 50 85.5s49 42.167 81 55.5s68.667 20 110 20c14 0 27.333 -0.333008 40 -1s25.167 -2 37.5 -4s25 -5 38 -9s27.5 -9 43.5 -15c1.33301 -22.667 -0.666992 -45.167 -6 -67.5s-13.666 -44.166 -24.999 -65.499
c-11.333 4 -21.5 7.16699 -30.5 9.5s-17.5 4.16602 -25.5 5.49902s-15.833 2.16602 -23.5 2.49902s-15.834 0.5 -24.501 0.5c-32 0 -58.5 -9.5 -79.5 -28.5s-31.5 -51.833 -31.5 -98.5c0 -24.667 3.16699 -45.167 9.5 -61.5s14.666 -29.166 24.999 -38.499
s22.333 -16 36 -20s28.167 -6 43.5 -6c19.333 0 36.166 1.66699 50.499 5s31.166 8.66602 50.499 15.999c11.333 -18 20.333 -38.167 27 -60.5s10 -47.833 10 -76.5c-30.667 -12 -58.667 -19.667 -84 -23s-50.666 -5 -75.999 -5c-42.667 0 -80.334 6.33301 -113.001 19
s-60.167 30.834 -82.5 54.501s-39.166 52 -50.499 85s-17 70.167 -17 111.5z" />
    <glyph glyph-name="d" unicode="d" horiz-adv-x="568" 
d="M233 529c54 0 100.169 -6.33301 138.502 -19s69.833 -30.5 94.5 -53.5s42.667 -50.833 54 -83.5s17 -69 17 -109c0 -42 -5.83301 -80 -17.5 -114s-30 -63 -55 -87s-57.333 -42.5 -97 -55.5s-87.5 -19.5 -143.5 -19.5c-32.667 0 -61.834 1.16699 -87.501 3.5
s-52.5 5.5 -80.5 9.5v514c28 3.33301 57.667 6.5 89 9.5s60.666 4.5 87.999 4.5zM225.002 131c2.66699 0 6.16797 -0.333008 10.501 -1s10.833 -1 19.5 -1c37.333 0 65.166 10.5 83.499 31.5s27.5 55.5 27.5 103.5c0 42.667 -9 73.834 -27 93.501s-43.667 29.5 -77 29.5
c-8 0 -15.333 -0.333008 -22 -1s-11.667 -1.33398 -15 -2.00098v-253z" />
    <glyph glyph-name="e" unicode="e" horiz-adv-x="538" 
d="M201 205c7.33301 -27.333 20.168 -46.6689 38.501 -58.002s42.5 -17 72.5 -17c19.333 0 41 2.33301 65 7s47.667 11.667 71 21c9.33301 -17.333 17.5 -38 24.5 -62s10.833 -49 11.5 -75c-59.333 -22 -120 -33 -182 -33c-48 0 -89.167 6.66699 -123.5 20
s-62.333 31.833 -84 55.5s-37.667 51.834 -48 84.501s-15.5 68.334 -15.5 107.001c0 38 5.33301 73.667 16 107s26.667 62.333 48 87s48 44.167 80 58.5s69.333 21.5 112 21.5c35.333 0 66.833 -6 94.5 -18s51.167 -28.5 70.5 -49.5s34.166 -46.333 44.499 -76
s15.5 -61.834 15.5 -96.501c0 -18 -0.833008 -34.167 -2.5 -48.5s-3.16699 -26.166 -4.5 -35.499h-304zM281.002 401.997c-21.333 0 -39.667 -6.66699 -55 -20s-24.333 -34 -27 -62h160c-1.33301 23.333 -8.5 42.833 -21.5 58.5s-31.833 23.5 -56.5 23.5z" />
    <glyph glyph-name="f" unicode="f" horiz-adv-x="461" 
d="M225 155v-153c-14 -3.33301 -28.333 -5.5 -43 -6.5s-28.334 -1.5 -41.001 -1.5c-13.333 0 -27.166 0.5 -41.499 1.5s-28.833 3.16699 -43.5 6.5v515h382c3.33301 -13.333 5.5 -25.666 6.5 -36.999s1.5 -22.333 1.5 -33s-0.5 -21.834 -1.5 -33.501
s-3.16699 -24.167 -6.5 -37.5h-213v-80h172c3.33301 -13.333 5.5 -25.666 6.5 -36.999s1.5 -22.333 1.5 -33s-0.5 -21.834 -1.5 -33.501s-3.16699 -24.167 -6.5 -37.5h-172z" />
    <glyph glyph-name="g" unicode="g" horiz-adv-x="536" 
d="M297 -12c-48 0 -88.834 7.16797 -122.501 21.501s-61.167 33.833 -82.5 58.5s-36.833 53.667 -46.5 87s-14.5 69 -14.5 107c0 36.667 5.83301 71.334 17.5 104.001s29 61 52 85s51.5 43 85.5 57s73.333 21 118 21c23.333 0 49 -2.66699 77 -8s58.667 -14.666 92 -27.999
c-0.666992 -11.333 -2 -22 -4 -32s-4.5 -20.167 -7.5 -30.5s-6.66699 -21.333 -11 -33s-9.5 -24.834 -15.5 -39.501c-22.667 9.33301 -43.667 16.166 -63 20.499s-36 6.5 -50 6.5c-22 0 -40.667 -3.33301 -56 -10s-27.666 -15.667 -36.999 -27s-16.166 -24.5 -20.499 -39.5
s-6.5 -30.5 -6.5 -46.5c0 -44.667 9.66699 -77.5 29 -98.5s47.666 -31.5 84.999 -31.5h18v147c16.667 3.33301 31.5 5.66602 44.5 6.99902s25.5 2 37.5 2c23.333 0 51 -3 83 -9v-254c-19.333 -7.33301 -46.333 -15.333 -81 -24s-75 -13 -121 -13z" />
    <glyph glyph-name="h" unicode="h" horiz-adv-x="598" 
d="M373 191h-148v-190c-17.333 -2.66699 -33 -4.66699 -47 -6s-26.667 -2 -38 -2s-24 0.666992 -38 2s-29.333 3.33301 -46 6v516c14.667 3.33301 29.167 5.66602 43.5 6.99902s28.166 2 41.499 2c12.667 0 26.334 -0.666992 41.001 -2s29 -3.66602 43 -6.99902v-176h148
v176c14.667 3.33301 29.167 5.66602 43.5 6.99902s28.166 2 41.499 2c12.667 0 26.334 -0.666992 41.001 -2s29 -3.66602 43 -6.99902v-516c-17.333 -2.66699 -33 -4.66699 -47 -6s-26.667 -2 -38 -2s-24 0.666992 -38 2s-29.333 3.33301 -46 6v190z" />
    <glyph glyph-name="i" unicode="i" horiz-adv-x="281" 
d="M225 1c-17.333 -2.66699 -33 -4.66699 -47 -6s-26.667 -2 -38 -2s-24 0.666992 -38 2s-29.333 3.33301 -46 6v516c14.667 3.33301 29.167 5.66602 43.5 6.99902s28.166 2 41.499 2c12.667 0 26.334 -0.666992 41.001 -2s29 -3.66602 43 -6.99902v-516z" />
    <glyph glyph-name="j" unicode="j" horiz-adv-x="377" 
d="M60 376c-3.33301 13.333 -5.49805 25.8359 -6.49805 37.5029s-1.5 22.834 -1.5 33.501s0.5 21.667 1.5 33s3.16699 23.666 6.5 36.999h269v-318c0 -38 -5.5 -70.5 -16.5 -97.5s-26.333 -48.833 -46 -65.5s-42.667 -28.834 -69 -36.501s-54.833 -11.5 -85.5 -11.5
c-10 0 -24.167 1.16699 -42.5 3.5s-37.5 6.83301 -57.5 13.5c-0.666992 5.33301 -1.16699 10.5 -1.5 15.5s-0.5 10.167 -0.5 15.5c0 17.333 1.66699 34.666 5 51.999s8 35.333 14 54c2.66699 -0.666992 6.66699 -1.5 12 -2.5s11.166 -1.83301 17.499 -2.5
s12.333 -1.33398 18 -2.00098s10.167 -1 13.5 -1c7.33301 0 15.166 0.5 23.499 1.5s16 4 23 9s12.667 12.5 17 22.5s6.5 24 6.5 42v167h-100z" />
    <glyph glyph-name="k" unicode="k" horiz-adv-x="563" 
d="M56 517c14.667 3.33301 29.167 5.66602 43.5 6.99902s28.166 2 41.499 2c12.667 0 26.334 -0.666992 41.001 -2s29 -3.66602 43 -6.99902v-515c-17.333 -3.33301 -33 -5.5 -47 -6.5s-26.333 -1.5 -37 -1.5c-11.333 0 -24 0.5 -38 1.5s-29.667 3.16699 -47 6.5v515z
M359 517c12 2.66699 26.667 4.66699 44 6s32.666 2 45.999 2c17.333 0 34.833 -0.666992 52.5 -2s31.834 -3.33301 42.501 -6l-124 -240l138 -275c-12 -2.66699 -27 -4.66699 -45 -6s-33.667 -2 -47 -2c-17.333 0 -34.5 0.666992 -51.5 2s-30.5 3.33301 -40.5 6l-133 268z
" />
    <glyph glyph-name="l" unicode="l" horiz-adv-x="437" 
d="M225 141h189c3.33301 -13.333 5.5 -25.666 6.5 -36.999s1.5 -22.333 1.5 -33s-0.5 -21.834 -1.5 -33.501s-3.16699 -24.167 -6.5 -37.5h-358l1 517c14.667 3.33301 29.167 5.66602 43.5 6.99902s28.166 2 41.499 2c12.667 0 26.334 -0.666992 41.001 -2
s29 -3.66602 43 -6.99902z" />
    <glyph glyph-name="m" unicode="m" horiz-adv-x="842" 
d="M264 527c27.333 0 54.333 -2.16797 81 -6.50098s51.334 -13.166 74.001 -26.499c17.333 8.66699 37.666 16.334 60.999 23.001s49.666 10 78.999 10c26 0 52.833 -2.5 80.5 -7.5s52.667 -15.5 75 -31.5s40.666 -39 54.999 -69s21.5 -69.667 21.5 -119v-299
c-17.333 -3.33301 -33 -5.5 -47 -6.5s-26.333 -1.5 -37 -1.5c-11.333 0 -24 0.5 -38 1.5s-29.667 3.16699 -47 6.5v281c0 35.333 -6 60.666 -18 75.999s-31.667 23 -59 23c-9.33301 0 -18.5 -1 -27.5 -3s-15.167 -3.66699 -18.5 -5c6 -23.333 9 -50 9 -80v-292
c-17.333 -3.33301 -33 -5.5 -47 -6.5s-26.333 -1.5 -37 -1.5c-11.333 0 -24 0.5 -38 1.5s-29.667 3.16699 -47 6.5v281c0 35.333 -5.66699 60.666 -17 75.999s-30.666 23 -57.999 23c-7.33301 0 -15.166 -0.666992 -23.499 -2s-13.5 -2.66602 -15.5 -3.99902v-374
c-17.333 -3.33301 -33 -5.5 -47 -6.5s-26.333 -1.5 -37 -1.5c-11.333 0 -24 0.5 -38 1.5s-29.667 3.16699 -47 6.5v491c23.333 8 51.333 15.833 84 23.5s74 11.5 124 11.5z" />
    <glyph glyph-name="n" unicode="n" horiz-adv-x="565" 
d="M266 527c29.333 0 58.666 -2.5 87.999 -7.5s55.833 -15.5 79.5 -31.5s43 -39 58 -69s22.5 -69.667 22.5 -119v-299c-17.333 -3.33301 -33 -5.5 -47 -6.5s-26.333 -1.5 -37 -1.5c-11.333 0 -24 0.5 -38 1.5s-29.667 3.16699 -47 6.5v281
c0 35.333 -6.66699 60.666 -20 75.999s-33.666 23 -60.999 23c-7.33301 0 -15.166 -0.666992 -23.499 -2s-13.5 -2.66602 -15.5 -3.99902v-374c-17.333 -3.33301 -33 -5.5 -47 -6.5s-26.333 -1.5 -37 -1.5c-11.333 0 -24 0.5 -38 1.5s-29.667 3.16699 -47 6.5v491
c23.333 8 51.666 15.833 84.999 23.5s75 11.5 125 11.5z" />
    <glyph glyph-name="o" unicode="o" horiz-adv-x="577" 
d="M31 256c0 40.667 5.5 77.834 16.5 111.501s27.333 62.5 49 86.5s48.5 42.5 80.5 55.5s69 19.5 111 19.5c42.667 0 80 -6.5 112 -19.5s58.833 -31.5 80.5 -55.5s38 -52.833 49 -86.5s16.5 -70.834 16.5 -111.501c0 -40 -5.5 -76.5 -16.5 -109.5s-27.333 -61.333 -49 -85
s-48.5 -41.834 -80.5 -54.501s-69.333 -19 -112 -19c-42 0 -79 6.33301 -111 19s-58.833 30.834 -80.5 54.501s-38 52 -49 85s-16.5 69.5 -16.5 109.5zM375 256c0 42.667 -7.16699 75.334 -21.5 98.001s-36.166 34 -65.499 34s-51 -11.333 -65 -34s-21 -55.334 -21 -98.001
c0 -42 7 -74.333 21 -97s35.667 -34 65 -34s51.166 11.333 65.499 34s21.5 55 21.5 97z" />
    <glyph glyph-name="p" unicode="p" horiz-adv-x="516" 
d="M221 250c3.33301 -0.666992 7.5 -1.16699 12.5 -1.5s9.16699 -0.5 12.5 -0.5c23.333 0 42.5 5.83301 57.5 17.5s22.5 31.5 22.5 59.5c0 24 -7.5 42.5 -22.5 55.5s-33.5 19.5 -55.5 19.5h-11.5c-5 0 -10.167 -0.333008 -15.5 -1v-149zM56 515
c30.667 4.66699 62.1699 8.16602 94.5029 10.499s63.5 3.5 93.5 3.5c30.667 0 60.667 -2.83301 90 -8.5s55.666 -16 78.999 -31s42.166 -35.667 56.499 -62s21.5 -60.5 21.5 -102.5c0 -38 -6.5 -70 -19.5 -96s-30.167 -47 -51.5 -63s-45.5 -27.5 -72.5 -34.5
s-54.5 -10.5 -82.5 -10.5c-11.333 0 -21 0.333008 -29 1s-13 1.33398 -15 2.00098v-123c-17.333 -3.33301 -32.833 -5.5 -46.5 -6.5s-25.834 -1.5 -36.501 -1.5c-11.333 0 -23.5 0.5 -36.5 1.5s-28.167 3.16699 -45.5 6.5v514z" />
    <glyph glyph-name="q" unicode="q" horiz-adv-x="577" 
d="M256 -139c0.666992 19.333 2.83398 39.5 6.50098 60.5s8.83398 40.5 15.501 58.5l273 -39c-0.666992 -19.333 -2.83398 -39.5 -6.50098 -60.5s-8.83398 -40.5 -15.501 -58.5zM31 256c0 40.667 5.5 77.834 16.5 111.501s27.333 62.5 49 86.5s48.5 42.5 80.5 55.5
s69 19.5 111 19.5c42.667 0 80 -6.5 112 -19.5s58.833 -31.5 80.5 -55.5s38 -52.833 49 -86.5s16.5 -70.834 16.5 -111.501c0 -40 -5.5 -76.5 -16.5 -109.5s-27.333 -61.333 -49 -85s-48.5 -41.834 -80.5 -54.501s-69.333 -19 -112 -19c-42 0 -79 6.33301 -111 19
s-58.833 30.834 -80.5 54.501s-38 52 -49 85s-16.5 69.5 -16.5 109.5zM375 256c0 42.667 -7.16699 75.334 -21.5 98.001s-36.166 34 -65.499 34s-51 -11.333 -65 -34s-21 -55.334 -21 -98.001c0 -42 7 -74.333 21 -97s35.667 -34 65 -34s51.166 11.333 65.499 34
s21.5 55 21.5 97z" />
    <glyph glyph-name="r" unicode="r" horiz-adv-x="549" 
d="M56 515c31.333 4 63.8301 7.33301 97.4971 10s65.5 4 95.5 4c80.667 0 141.167 -15.167 181.5 -45.5s60.5 -72.833 60.5 -127.5c0 -20.667 -2.33301 -38.667 -7 -54s-10.334 -28.5 -17.001 -39.5s-13.667 -19.833 -21 -26.5l-18 -16l114 -218
c-13.333 -2.66699 -28.166 -4.66699 -44.499 -6s-32.166 -2 -47.499 -2c-18.667 0 -36.667 0.666992 -54 2s-31.666 3.33301 -42.999 6l-111 236l14 8c23.333 13.333 39.333 27.5 48 42.5s13 31.167 13 48.5s-5.16699 31.5 -15.5 42.5s-26.833 16.5 -49.5 16.5
c-12.667 0 -22.334 -0.666992 -29.001 -2v-393c-17.333 -3.33301 -33 -5.5 -47 -6.5s-26.333 -1.5 -37 -1.5c-11.333 0 -23.666 0.5 -36.999 1.5s-28.666 3.16699 -45.999 6.5v514z" />
    <glyph glyph-name="s" unicode="s" horiz-adv-x="470" 
d="M305 324c20 -5.33301 38.166 -11.833 54.499 -19.5s30.333 -17.5 42 -29.5s20.834 -26.667 27.501 -44s10 -38.333 10 -63c0 -25.333 -5.16699 -49 -15.5 -71s-25.666 -41 -45.999 -57s-45.333 -28.667 -75 -38s-63.834 -14 -102.501 -14c-32 0 -61.667 2.33301 -89 7
s-56.333 12.667 -87 24c3.33301 45.333 15.666 91.333 36.999 138c21.333 -10 43.666 -17.5 66.999 -22.5s46.666 -7.5 69.999 -7.5c8 0 16.333 0.333008 25 1s16.334 2.16699 23.001 4.5s12.167 5.5 16.5 9.5s6.5 9.33301 6.5 16c0 8.66699 -4.33301 15.167 -13 19.5
s-18.667 8.16602 -30 11.499l-68 19c-35.333 10 -64.666 27 -87.999 51s-35 56.667 -35 98c0 26 5.33301 49.667 16 71s25.667 39.5 45 54.5s42.166 26.5 68.499 34.5s55.5 12 87.5 12c25.333 0 53 -2.66699 83 -8s59.667 -13 89 -23
c-1.33301 -21.333 -5.66602 -44.166 -12.999 -68.499s-15.666 -45.833 -24.999 -64.5c-18 7.33301 -39.667 14 -65 20s-48.666 9 -69.999 9c-31.333 0 -47 -8.66699 -47 -26c0 -7.33301 3.66699 -13 11 -17s15.666 -7.33301 24.999 -10z" />
    <glyph glyph-name="t" unicode="t" horiz-adv-x="511" 
d="M171 376h-148c-3.33301 13.333 -5.5 25.833 -6.5 37.5s-1.5 22.834 -1.5 33.501s0.5 21.667 1.5 33s3.16699 23.666 6.5 36.999h465c3.33301 -13.333 5.5 -25.666 6.5 -36.999s1.5 -22.333 1.5 -33s-0.5 -21.834 -1.5 -33.501s-3.16699 -24.167 -6.5 -37.5h-148v-375
c-17.333 -2.66699 -33 -4.66699 -47 -6s-26.667 -2 -38 -2s-24 0.666992 -38 2s-29.333 3.33301 -46 6v375z" />
    <glyph glyph-name="u" unicode="u" horiz-adv-x="565" 
d="M509 24c-11.333 -4 -24.8301 -8 -40.4971 -12s-32.334 -7.83301 -50.001 -11.5s-35.834 -6.5 -54.501 -8.5s-37 -3 -55 -3c-34 0 -66.667 2.66699 -98 8s-58.833 16.166 -82.5 32.499s-42.5 40 -56.5 71s-21 72.5 -21 124.5v292
c14.667 3.33301 29.167 5.66602 43.5 6.99902s28.166 2 41.499 2c12.667 0 26.334 -0.666992 41.001 -2s29 -3.66602 43 -6.99902v-278c0 -40 6.66699 -67.333 20 -82s33.666 -22 60.999 -22c11.333 0 20 0.333008 26 1s10.333 1.33398 13 2.00098v379
c14.667 3.33301 29.167 5.66602 43.5 6.99902s28.166 2 41.499 2c12.667 0 26.334 -0.666992 41.001 -2s29 -3.66602 43 -6.99902v-493z" />
    <glyph glyph-name="v" unicode="v" horiz-adv-x="561" 
d="M371 517c5.33301 1.33301 16.334 2.66602 33.001 3.99902s33.667 2 51 2c22 0 42.5 -0.666992 61.5 -2s32.167 -2.66602 39.5 -3.99902l-196 -515c-14 -3.33301 -28.167 -5.5 -42.5 -6.5s-28.166 -1.5 -41.499 -1.5s-27 0.5 -41 1.5s-26.667 3.16699 -38 6.5l-192 515
c7.33301 1.33301 20.5 2.66602 39.5 3.99902s39.5 2 61.5 2c17.333 0 34.666 -0.666992 51.999 -2s28.666 -2.66602 33.999 -3.99902l91 -310l44.5 156z" />
    <glyph glyph-name="w" unicode="w" horiz-adv-x="799" 
d="M556 219l62.002 298c5.33301 1.33301 15.666 2.66602 30.999 3.99902s31.666 2 48.999 2c22 0 41.5 -0.666992 58.5 -2s29.167 -2.66602 36.5 -3.99902l-162 -515c-11.333 -3.33301 -23.666 -5.5 -36.999 -6.5s-26.666 -1.5 -39.999 -1.5s-26.833 0.5 -40.5 1.5
s-27.834 3.16699 -42.501 6.5l-73 280l-38.5 -141l-37.5 -139c-14 -3.33301 -27.833 -5.5 -41.5 -6.5s-27.167 -1.5 -40.5 -1.5s-26.666 0.5 -39.999 1.5s-25.666 3.16699 -36.999 6.5l-157 515c7.33301 1.33301 20.166 2.66602 38.499 3.99902s38.5 2 60.5 2
c17.333 0 34.166 -0.666992 50.499 -2s27.166 -2.66602 32.499 -3.99902l65 -306l72 306c11.333 3.33301 23.833 5.5 37.5 6.5s27.167 1.5 40.5 1.5s26.833 -0.5 40.5 -1.5s27.5 -3.16699 41.5 -6.5z" />
    <glyph glyph-name="x" unicode="x" horiz-adv-x="536" 
d="M268 277l65.998 240c5.33301 1.33301 15.833 2.66602 31.5 3.99902s32.167 2 49.5 2c22 0 41.667 -0.666992 59 -2s29.666 -2.66602 36.999 -3.99902l-90 -248l110 -268c-7.33301 -1.33301 -18.833 -2.83301 -34.5 -4.5s-33.5 -2.5 -53.5 -2.5
c-19.333 0 -36.666 0.833008 -51.999 2.5s-25.666 3.16699 -30.999 4.5l-92 256l-92 -256c-5.33301 -1.33301 -15.333 -2.83301 -30 -4.5s-30.667 -2.5 -48 -2.5c-22 0 -41.167 1 -57.5 3s-28.166 3.66699 -35.499 5l110 267l-90 248
c7.33301 1.33301 19.5 2.66602 36.5 3.99902s36.5 2 58.5 2c17.333 0 33.833 -0.666992 49.5 -2s26.167 -2.66602 31.5 -3.99902z" />
    <glyph glyph-name="y" unicode="y" horiz-adv-x="564" 
d="M384 517c5.33301 1.33301 15.502 2.66602 30.502 3.99902s31.167 2 48.5 2c22 0 41.667 -0.666992 59 -2s29.666 -2.66602 36.999 -3.99902l-193 -335v-181c-17.333 -2.66699 -33 -4.66699 -47 -6s-26.667 -2 -38 -2s-24 0.666992 -38 2s-29.333 3.33301 -46 6v181
l-192 335c7.33301 1.33301 20.166 2.66602 38.499 3.99902s38.5 2 60.5 2c17.333 0 34.333 -0.666992 51 -2s27.667 -2.66602 33 -3.99902l98 -197z" />
    <glyph glyph-name="z" unicode="z" horiz-adv-x="481" 
d="M252 137l191 -0.000976562c4.66699 -27.333 7 -50.666 7 -69.999c0 -10 -0.5 -20.167 -1.5 -30.5s-2.83301 -22.5 -5.5 -36.5h-420l-16 30l209 350h-171c-3.33301 14.667 -5.5 27.5 -6.5 38.5s-1.5 21.5 -1.5 31.5s0.5 20.167 1.5 30.5s3.16699 22.5 6.5 36.5h407l10 -32
z" />
    <glyph glyph-name="braceleft" unicode="{" horiz-adv-x="430" 
d="M45 335c16.667 8 30.5 16.1738 41.5 24.5068s19.833 17.833 26.5 28.5s11.334 22.667 14.001 36s4.33398 28.666 5.00098 45.999l3 100c1.33301 34 5.33301 64.5 12 91.5s17.667 49.833 33 68.5s35.833 33 61.5 43s58.5 15 98.5 15h19.5
c6.33301 0 15.166 -0.666992 26.499 -2c6 -27.333 9 -50.333 9 -69c0 -20 -3 -43.333 -9 -70h-31c-13.333 0 -24 -2.33301 -32 -7s-14 -11.834 -18 -21.501s-6.5 -21.834 -7.5 -36.501s-1.5 -32.334 -1.5 -53.001c0 -36 -1.33301 -66 -4 -90s-6.66699 -44 -12 -60
s-12 -29.167 -20 -39.5s-17.333 -19.5 -28 -27.5c10.667 -8 20 -17.167 28 -27.5s14.667 -23.666 20 -39.999s9.33301 -36.5 12 -60.5s4 -54 4 -90c0 -20.667 0.5 -38.334 1.5 -53.001s3.5 -26.834 7.5 -36.501s10 -16.834 18 -21.501s18.667 -7 32 -7h31
c6 -27.333 9 -50.666 9 -69.999s-3 -42.333 -9 -69c-11.333 -1.33301 -20.166 -2 -26.499 -2h-19.5c-40 0 -72.833 5 -98.5 15s-46.167 24.333 -61.5 43s-26.333 41.5 -33 68.5s-10.667 57.5 -12 91.5l-3 101c-0.666992 17.333 -2.33398 32.666 -5.00098 45.999
s-7.33398 25.166 -14.001 35.499s-15.5 19.833 -26.5 28.5s-24.833 17 -41.5 25v46z" />
    <glyph glyph-name="bar" unicode="|" horiz-adv-x="349" 
d="M175 -174c-22.667 0 -50.333 3 -83 9v939c16.667 2.66699 31.667 4.66699 45 6s25.666 2 36.999 2s24 -0.666992 38 -2s29 -3.33301 45 -6v-939c-33.333 -6 -60.666 -9 -81.999 -9z" />
    <glyph glyph-name="braceright" unicode="}" horiz-adv-x="430" 
d="M385 289c-16.667 -8 -30.5 -16.3398 -41.5 -25.0068s-19.833 -18.167 -26.5 -28.5s-11.334 -22.166 -14.001 -35.499s-4.33398 -28.666 -5.00098 -45.999l-3 -101c-1.33301 -34 -5.33301 -64.5 -12 -91.5s-17.667 -49.833 -33 -68.5s-35.833 -33 -61.5 -43
s-58.5 -15 -98.5 -15h-19.5c-6.33301 0 -15.166 0.666992 -26.499 2c-6 26.667 -9 49.667 -9 69s3 42.666 9 69.999h31c13.333 0 24 2.33301 32 7s14 11.834 18 21.501s6.5 21.834 7.5 36.501s1.5 32.334 1.5 53.001c0 36 1.33301 66 4 90s6.66699 44.167 12 60.5
s12 29.666 20 39.999s17.333 19.5 28 27.5c-10.667 8 -20 17.167 -28 27.5s-14.667 23.5 -20 39.5s-9.33301 36 -12 60s-4 54 -4 90c0 20.667 -0.5 38.334 -1.5 53.001s-3.5 26.834 -7.5 36.501s-10 16.834 -18 21.501s-18.667 7 -32 7h-31c-6 26.667 -9 50 -9 70
c0 18.667 3 41.667 9 69c11.333 1.33301 20.166 2 26.499 2h19.5c40 0 72.833 -5 98.5 -15s46.167 -24.333 61.5 -43s26.333 -41.5 33 -68.5s10.667 -57.5 12 -91.5l3 -100c0.666992 -17.333 2.33398 -32.666 5.00098 -45.999s7.33398 -25.333 14.001 -36
s15.5 -20.167 26.5 -28.5s24.833 -16.5 41.5 -24.5v-46z" />
    <glyph glyph-name="asciitilde" unicode="~" horiz-adv-x="466" 
d="M150 495c15.333 0 30.002 -2 44.002 -6s28.333 -8.66699 43 -14l38 -12c12.667 -4 25.667 -6 39 -6c6 0 11.667 0.5 17 1.5s11.166 3 17.499 6s13.166 7 20.499 12s15.666 11.833 24.999 20.5c17.333 -16.667 31.833 -35 43.5 -55s20.5 -39.333 26.5 -58
c-16.667 -19.333 -37.667 -35.5 -63 -48.5s-54 -19.5 -86 -19.5c-16 0 -31.5 2 -46.5 6s-29.833 8.66699 -44.5 14l-38 11.5c-12 3.66699 -23.667 5.5 -35 5.5c-6 0 -11.833 -0.333008 -17.5 -1s-11.5 -2.33398 -17.5 -5.00098s-12.5 -6.66699 -19.5 -12
s-15.5 -12.333 -25.5 -21c-16 16.667 -30.167 34.5 -42.5 53.5s-21.166 38.5 -26.499 58.5c16 18.667 36.667 34.834 62 48.501s54 20.5 86 20.5z" />
    <glyph glyph-name="uni00A0" unicode="&#xa0;" horiz-adv-x="220" 
 />
    <glyph glyph-name="exclamdown" unicode="&#xa1;" horiz-adv-x="302" 
d="M240 0c-16 -2.66699 -31.5 -4.33398 -46.5 -5.00098s-29.167 -1 -42.5 -1s-27.333 0.333008 -42 1s-30.334 2.33398 -47.001 5.00098l9 466c32.667 6 59.334 9 80.001 9c20 0 46.667 -3 80 -9zM151 542c-13.333 0 -26.833 0.666992 -40.5 2s-28.167 3.33301 -43.5 6
c-2 15.333 -3.66699 29.833 -5 43.5s-2 26.834 -2 39.501s0.666992 26 2 40s3 28.667 5 44c15.333 2.66699 29.833 4.66699 43.5 6s27.167 2 40.5 2s26.833 -0.666992 40.5 -2s28.167 -3.33301 43.5 -6c2 -15.333 3.66699 -30 5 -44s2 -27.333 2 -40
s-0.666992 -25.834 -2 -39.501s-3 -28.167 -5 -43.5c-15.333 -2.66699 -29.833 -4.66699 -43.5 -6s-27.167 -2 -40.5 -2z" />
    <glyph glyph-name="cent" unicode="&#xa2;" horiz-adv-x="466" 
d="M31 258c0 32.667 4.16895 63.6689 12.502 93.002s20.666 55.666 36.999 78.999s36.833 43.166 61.5 59.499s53 27.5 85 33.5v110c5.33301 2 13.5 3.83301 24.5 5.5s21.5 2.5 31.5 2.5c9.33301 0 19.5 -0.833008 30.5 -2.5s19.833 -3.5 26.5 -5.5v-107
c16 -1.33301 32 -4.16602 48 -8.49902s34.333 -10.5 55 -18.5c1.33301 -22.667 -0.666992 -45.167 -6 -67.5s-13.666 -44.166 -24.999 -65.499c-11.333 4 -21.5 7.16699 -30.5 9.5s-17.333 4.16602 -25 5.49902s-15.334 2.33301 -23.001 3s-15.834 1 -24.501 1
c-32 0 -57.833 -10.667 -77.5 -32s-29.5 -53 -29.5 -95c0 -44.667 10.5 -76.834 31.5 -96.501s46.5 -29.5 76.5 -29.5c19.333 0 36.333 1.83301 51 5.5s31.667 9.16699 51 16.5c11.333 -18 20.333 -38.167 27 -60.5s10 -47.833 10 -76.5
c-20.667 -8 -39.834 -14.167 -57.501 -18.5s-34.834 -7.16602 -51.501 -8.49902v-106c-6.66699 -2 -15.5 -3.83301 -26.5 -5.5s-21.167 -2.5 -30.5 -2.5c-10 0 -20.5 0.833008 -31.5 2.5s-19.167 3.5 -24.5 5.5v110c-32.667 6 -61.167 17 -85.5 33
s-44.666 35.5 -60.999 58.5s-28.666 49.167 -36.999 78.5s-12.5 60.666 -12.5 93.999z" />
    <glyph glyph-name="sterling" unicode="&#xa3;" horiz-adv-x="582" 
d="M64 31c10.667 8.66699 21.168 19.502 31.501 32.502s19.5 28.167 27.5 45.5s14.333 36.333 19 57s7 42.667 7 66c0 12.667 -1 26.667 -3 42h-83c-2.66699 16 -4.5 29.333 -5.5 40s-1.5 21 -1.5 31c0 9.33301 0.5 19 1.5 29s2.83301 22.667 5.5 38h61
c-1.33301 12 -2.33301 25 -3 39s-1 27.667 -1 41c0 28 4.83301 55.5 14.5 82.5s24.5 51.167 44.5 72.5s45.333 38.666 76 51.999s67 20 109 20c35.333 0 66.5 -3 93.5 -9s53.5 -14.667 79.5 -26c-1.33301 -19.333 -5 -41.333 -11 -66s-15.667 -50.667 -29 -78
c-15.333 7.33301 -32 14.333 -50 21s-39.667 10 -65 10c-16.667 0 -30.667 -2.83301 -42 -8.5s-20.5 -12.834 -27.5 -21.501s-12 -18.167 -15 -28.5s-4.5 -20.5 -4.5 -30.5c0 -12.667 0.666992 -25.167 2 -37.5s2.66602 -23.166 3.99902 -32.499h145
c2.66699 -16 4.5 -29.167 5.5 -39.5s1.5 -20.833 1.5 -31.5c0 -9.33301 -0.5 -19 -1.5 -29s-2.83301 -22.667 -5.5 -38h-125c0.666992 -2 1 -4.16699 1 -6.5v-6.5c0 -17.333 -1.33301 -35.333 -4 -54s-7.66699 -36.334 -15 -53.001h231c3.33301 -16 5.33301 -30.333 6 -43
s1 -23.667 1 -33c0 -10.667 -0.333008 -22.167 -1 -34.5s-2.66699 -26.833 -6 -43.5h-459z" />
    <glyph glyph-name="currency" unicode="&#xa4;" horiz-adv-x="579" 
d="M65 342c0 18 2.33105 35.4932 6.99805 52.4932s10.667 32.833 18 47.5l-66 67c10.667 23.333 24.334 42.833 41.001 58.5s36.334 29.834 59.001 42.501l69 -69c30.667 14.667 63 22 97 22s66.333 -7.33301 97 -22l69 70c18.667 -12 36.667 -26.167 54 -42.5
s32.333 -35.5 45 -57.5l-66 -65c8 -15.333 14.5 -31.666 19.5 -48.999s7.5 -35.666 7.5 -54.999c0 -17.333 -2.16699 -34.666 -6.5 -51.999s-10.166 -33.666 -17.499 -48.999c10 -10.667 20.833 -21.667 32.5 -33l31.5 -30c-12.667 -19.333 -27.334 -37.666 -44.001 -54.999
s-35.667 -32.333 -57 -45l-66 67c-30.667 -15.333 -63.667 -23 -99 -23s-69 7.66699 -101 23l-65 -66c-24 11.333 -43.833 25.5 -59.5 42.5s-29.5 36.167 -41.5 57.5l65 65c-7.33301 14.667 -13 30.334 -17 47.001s-6 33.667 -6 51zM202.998 341.993
c0 -28 8.33301 -50.333 25 -67s37.334 -25 62.001 -25c25.333 0 46.333 8.33301 63 25s25 39 25 67s-8.33301 50.667 -25 68s-37.667 26 -63 26c-24.667 0 -45.334 -8.66699 -62.001 -26s-25 -40 -25 -68z" />
    <glyph glyph-name="yen" unicode="&#xa5;" horiz-adv-x="587" 
d="M204 308l-150 -0.000976562c-3.33301 10 -5 25.333 -5 46c0 9.33301 0.5 18.166 1.5 26.499s2.16699 15.166 3.5 20.499h109l-161 306c9.33301 1.33301 23.5 2.66602 42.5 3.99902s37.167 2 54.5 2c14 0 29.5 -0.666992 46.5 -2s30.5 -2.66602 40.5 -3.99902l111 -240
l106 240c15.333 2.66699 30.666 4.33398 45.999 5.00098s31.666 1 48.999 1c11.333 0 25.833 -0.5 43.5 -1.5s32.167 -2.5 43.5 -4.5l-163 -306h125c1.33301 -5.33301 2.5 -12.166 3.5 -20.499s1.5 -17.166 1.5 -26.499c0 -20.667 -1.66699 -36 -5 -46h-166v-62h166
c1.33301 -5.33301 2.5 -12.166 3.5 -20.499s1.5 -17.166 1.5 -26.499c0 -20.667 -1.66699 -36 -5 -46h-166v-151c-17.333 -3.33301 -33.333 -5.5 -48 -6.5s-28 -1.5 -40 -1.5c-11.333 0 -24.666 0.5 -39.999 1.5s-31.666 3.16699 -48.999 6.5v151h-150
c-3.33301 10 -5 25.333 -5 46c0 9.33301 0.5 18.166 1.5 26.499s2.16699 15.166 3.5 20.499h150v62z" />
    <glyph glyph-name="brokenbar" unicode="&#xa6;" horiz-adv-x="349" 
d="M257 443c-16 -2.66699 -31 -4.66699 -45 -6s-26.667 -2 -38 -2s-23.666 0.666992 -36.999 2s-28.333 3.33301 -45 6v331c16.667 2.66699 31.667 4.66699 45 6s25.666 2 36.999 2s24 -0.666992 38 -2s29 -3.33301 45 -6v-331zM257 -165c-33.333 -6 -60.665 -9 -81.998 -9
c-22.667 0 -50.334 3 -83.001 9v330c16.667 2.66699 31.667 4.66699 45 6s25.666 2 36.999 2s24 -0.666992 38 -2s29 -3.33301 45 -6v-330z" />
    <glyph glyph-name="section" unicode="&#xa7;" horiz-adv-x="571" 
d="M54 347c0 46.667 20.333 85.334 61 116.001c-13.333 11.333 -22.333 24.666 -27 39.999s-7 31.333 -7 48c0 52.667 20.5 93.834 61.5 123.501s97.167 44.5 168.5 44.5c30.667 0 60 -2.33301 88 -7s57 -12.667 87 -24c-1.33301 -21.333 -5.83301 -43.833 -13.5 -67.5
s-16.167 -44.5 -25.5 -62.5c-6 2.66699 -13.833 5.66699 -23.5 9s-20.5 6.66602 -32.5 9.99902s-24.833 6.16602 -38.5 8.49902s-26.834 3.5 -39.501 3.5c-22.667 0 -38.667 -2.83301 -48 -8.5s-14 -13.167 -14 -22.5c0 -6.66699 3.5 -12.5 10.5 -17.5
s15.167 -8.83301 24.5 -11.5l118 -34c44 -13.333 74.167 -31.833 90.5 -55.5s24.5 -49.5 24.5 -77.5c0 -23.333 -5 -44.833 -15 -64.5s-25.667 -37.5 -47 -53.5c13.333 -11.333 22.5 -24.666 27.5 -39.999s7.5 -31.333 7.5 -48c0 -26.667 -6.33301 -50.334 -19 -71.001
s-30.167 -38.167 -52.5 -52.5s-48.666 -25.333 -78.999 -33s-63.166 -11.5 -98.499 -11.5c-30.667 0 -61.334 2.5 -92.001 7.5s-61 13.167 -91 24.5c1.33301 21.333 6.16602 44 14.499 68s17.833 45.333 28.5 64c15.333 -7.33301 36 -14.666 62 -21.999s55 -11 87 -11
c26 0 44.167 2.5 54.5 7.5s15.5 11.5 15.5 19.5c0 9.33301 -4 16.333 -12 21s-17.667 8.66699 -29 12l-104 31c-45.333 14 -77.166 33.5 -95.499 58.5s-27.5 51.167 -27.5 78.5zM220 409c-4.66699 -5.33301 -8.66602 -11.6689 -11.999 -19.002s-5 -14.666 -5 -21.999
s3.16699 -14.5 9.5 -21.5s17.166 -12.833 32.499 -17.5l106 -29c10.667 10.667 16 23.334 16 38.001c0 8 -3 16 -9 24s-19.667 15 -41 21z" />
    <glyph glyph-name="dieresis" unicode="&#xa8;" horiz-adv-x="480" 
d="M277 646c0 20 2 40 6 60c10 2 21.667 3.5 35 4.5s24.666 1.5 33.999 1.5s20.666 -0.5 33.999 -1.5s25.333 -2.5 36 -4.5c4 -20 6 -40 6 -60s-2 -40 -6 -60c-10.667 -2 -22.667 -3.5 -36 -4.5s-24.666 -1.5 -33.999 -1.5s-20.666 0.5 -33.999 1.5s-25 2.5 -35 4.5
c-4 20 -6 40 -6 60zM52 646c0 20 2 40 6 60c10 2 21.667 3.5 35 4.5s24.666 1.5 33.999 1.5s20.666 -0.5 33.999 -1.5s25.333 -2.5 36 -4.5c4 -20 6 -40 6 -60s-2 -40 -6 -60c-10.667 -2 -22.667 -3.5 -36 -4.5s-24.666 -1.5 -33.999 -1.5s-20.666 0.5 -33.999 1.5
s-25 2.5 -35 4.5c-4 20 -6 40 -6 60z" />
    <glyph glyph-name="copyright" unicode="&#xa9;" horiz-adv-x="802" 
d="M503 293c2.66699 -5.33301 5.83105 -12.501 9.49805 -21.501s6.83398 -19 9.50098 -30s5 -22.5 7 -34.5s3 -23.333 3 -34c-23.333 -9.33301 -45 -15.333 -65 -18s-40 -4 -60 -4c-32 0 -60.333 5.16699 -85 15.5s-45.5 24.833 -62.5 43.5s-30 40.834 -39 66.501
s-13.5 53.5 -13.5 83.5c0 28 4.5 54.667 13.5 80s21.833 47.5 38.5 66.5s37.167 34.167 61.5 45.5s51.833 17 82.5 17c24 0 45 -1.33301 63 -4s38.667 -8.66699 62 -18c0 -18 -2 -37.667 -6 -59s-10.667 -41.333 -20 -60c-13.333 5.33301 -26.833 9.5 -40.5 12.5
s-26.167 4.5 -37.5 4.5c-23.333 0 -42.166 -7.5 -56.499 -22.5s-21.5 -35.833 -21.5 -62.5c0 -29.333 7.33301 -51 22 -65s34.334 -21 59.001 -21c25.333 0 50.666 6.33301 75.999 19zM400.997 78.999c42.667 0 80.834 7.16699 114.501 21.5s62.334 34 86.001 59
s41.834 54.667 54.501 89s19 71.166 19 110.499s-6.33301 76.166 -19 110.499s-30.834 64 -54.501 89s-52.334 44.667 -86.001 59s-71.834 21.5 -114.501 21.5s-80.834 -7.16699 -114.501 -21.5s-62.334 -34 -86.001 -59s-41.834 -54.667 -54.501 -89
s-19 -71.166 -19 -110.499s6.33301 -76.166 19 -110.499s30.834 -64 54.501 -89s52.334 -44.667 86.001 -59s71.834 -21.5 114.501 -21.5zM400.997 -13.001c-55.333 0 -105.833 9.49707 -151.5 28.4971s-84.667 45 -117 78s-57.5 72.167 -75.5 117.5s-27 94.666 -27 147.999
c0 52.667 9 101.834 27 147.501s43.167 85 75.5 118s71.333 59 117 78s96.167 28.5 151.5 28.5s105.833 -9.33301 151.5 -28s84.667 -44.667 117 -78s57.5 -72.666 75.5 -117.999s27 -94.666 27 -147.999s-9 -102.666 -27 -147.999s-43.167 -84.5 -75.5 -117.5
s-71.333 -59 -117 -78s-96.167 -28.5 -151.5 -28.5z" />
    <glyph glyph-name="ordfeminine" unicode="&#xaa;" horiz-adv-x="427" 
d="M241 487c-5.33301 0.666992 -10.4971 0.999023 -15.4971 0.999023h-20.5c-18 0 -32.167 -3.33301 -42.5 -10s-15.5 -17.667 -15.5 -33c0 -8.66699 2.33301 -15.5 7 -20.5s10.167 -8.66699 16.5 -11s13.166 -3.66602 20.499 -3.99902s13.666 -0.5 18.999 -0.5
s10.666 0.166992 15.999 0.5s10.333 0.833008 15 1.5v76zM205.003 572.999l19.002 0.000976562c5.33301 0 11 -0.333008 17 -1c-1.33301 16 -7 27.5 -17 34.5s-26.667 10.5 -50 10.5c-28 0 -60 -5.66699 -96 -17c-10 16 -17.167 32 -21.5 48s-6.5 31.667 -6.5 47
c24 7.33301 48.5 13.166 73.5 17.499s47.5 6.5 67.5 6.5c56 0 99.5 -13.167 130.5 -39.5s46.5 -68.5 46.5 -126.5v-222c-18 -6 -41.333 -11.833 -70 -17.5s-58.667 -8.5 -90 -8.5c-27.333 0 -52.333 2.33301 -75 7s-42 12.5 -58 23.5s-28.5 25 -37.5 42
s-13.5 38.167 -13.5 63.5c0 26 5.5 47.5 16.5 64.5s25.167 30.5 42.5 40.5s36.666 17 57.999 21s42.666 6 63.999 6z" />
    <glyph glyph-name="guillemotleft" unicode="&#xab;" horiz-adv-x="653" 
d="M211 266l154 -222.002c-31.333 -6 -63 -9 -95 -9c-16 0 -31.5 0.833008 -46.5 2.5s-27.5 3.83398 -37.5 6.50098l-156 222l156 222c10 2.66699 22.5 4.83398 37.5 6.50098s30.5 2.5 46.5 2.5c32 0 63.667 -3 95 -9zM478 265.998l154 -222.002c-31.333 -6 -63 -9 -95 -9
c-16 0 -31.5 0.833008 -46.5 2.5s-27.5 3.83398 -37.5 6.50098l-156 222l156 222c10 2.66699 22.5 4.83398 37.5 6.50098s30.5 2.5 46.5 2.5c32 0 63.667 -3 95 -9z" />
    <glyph glyph-name="logicalnot" unicode="&#xac;" horiz-adv-x="579" 
d="M513 126c-13.333 -2.66699 -25.668 -4.66699 -37.001 -6s-22.666 -2 -33.999 -2c-21.333 0 -45.333 2.66699 -72 8v156h-296c-2.66699 13.333 -4.66699 25.5 -6 36.5s-2 22.167 -2 33.5s0.666992 23 2 35s3.33301 24.667 6 38h439v-299z" />
    <glyph glyph-name="uni00AD" unicode="&#xad;" horiz-adv-x="369" 
d="M42 273c0 22.667 3 47.999 9 75.999h268c3.33301 -14 5.5 -27.167 6.5 -39.5s1.5 -24.166 1.5 -35.499s-0.5 -23.333 -1.5 -36s-3.16699 -26 -6.5 -40h-268c-6 28 -9 53 -9 75z" />
    <glyph glyph-name="registered" unicode="&#xae;" horiz-adv-x="802" 
d="M399 365c7.33301 5.33301 15.8281 13.835 25.4951 25.502s14.5 24.167 14.5 37.5s-4.16699 24 -12.5 32s-21.5 12 -39.5 12h-20v-297c-11.333 -2 -21.5 -3.33301 -30.5 -4s-18.167 -1 -27.5 -1c-8.66699 0 -18.167 0.333008 -28.5 1s-21.166 2 -32.499 4v386
c20.667 3.33301 40.334 6 59.001 8s39 3 61 3c65.333 0 114.333 -11.833 147 -35.5s49 -56.5 49 -98.5c0 -26.667 -5.16699 -48.334 -15.5 -65.001s-22.166 -30.334 -35.499 -41.001l68 -156c-13.333 -1.33301 -26.166 -2.5 -38.499 -3.5s-25.166 -1.5 -38.499 -1.5
c-10 0 -19.167 0.166992 -27.5 0.5s-17.5 1.5 -27.5 3.5l-68 176zM400.995 79.002c42.667 0 80.834 7.16699 114.501 21.5s62.334 34 86.001 59s41.834 54.667 54.501 89s19 71.166 19 110.499s-6.33301 76.166 -19 110.499s-30.834 64 -54.501 89
s-52.334 44.667 -86.001 59s-71.834 21.5 -114.501 21.5s-80.834 -7.16699 -114.501 -21.5s-62.334 -34 -86.001 -59s-41.834 -54.667 -54.501 -89s-19 -71.166 -19 -110.499s6.33301 -76.166 19 -110.499s30.834 -64 54.501 -89s52.334 -44.667 86.001 -59
s71.834 -21.5 114.501 -21.5zM400.995 -12.998c-55.333 0 -105.833 9.49707 -151.5 28.4971s-84.667 45 -117 78s-57.5 72.167 -75.5 117.5s-27 94.666 -27 147.999c0 52.667 9 101.834 27 147.501s43.167 85 75.5 118s71.333 59 117 78s96.167 28.5 151.5 28.5
s105.833 -9.33301 151.5 -28s84.667 -44.667 117 -78s57.5 -72.666 75.5 -117.999s27 -94.666 27 -147.999s-9 -102.666 -27 -147.999s-43.167 -84.5 -75.5 -117.5s-71.333 -59 -117 -78s-96.167 -28.5 -151.5 -28.5z" />
    <glyph glyph-name="macron" unicode="&#xaf;" horiz-adv-x="480" 
d="M391 713c4.66699 -18 7 -36.6689 7 -56.002c0 -8 -0.5 -17 -1.5 -27s-2.83301 -19.667 -5.5 -29h-302c-2.66699 9.33301 -4.5 18.833 -5.5 28.5s-1.5 18.834 -1.5 27.501s0.5 17.834 1.5 27.501s2.83301 19.167 5.5 28.5h302z" />
    <glyph glyph-name="degree" unicode="&#xb0;" horiz-adv-x="387" 
d="M28 565c0 22.667 4.33301 43.667 13 63s20.5 36.333 35.5 51s32.5 26.167 52.5 34.5s41.333 12.5 64 12.5s44.167 -4.16699 64.5 -12.5s38 -19.833 53 -34.5s26.833 -31.667 35.5 -51s13 -40.333 13 -63c0 -22 -4.33301 -42.667 -13 -62s-20.5 -36.166 -35.5 -50.499
s-32.667 -25.666 -53 -33.999s-41.833 -12.5 -64.5 -12.5s-44 4.16699 -64 12.5s-37.5 19.666 -52.5 33.999s-26.833 31.166 -35.5 50.499s-13 40 -13 62zM136 565c0 -16.667 5.83301 -30.667 17.5 -42s24.834 -17 39.501 -17s28 5.66699 40 17s18 25.333 18 42
c0 17.333 -6 31.833 -18 43.5s-25.333 17.5 -40 17.5s-27.834 -5.83301 -39.501 -17.5s-17.5 -26.167 -17.5 -43.5z" />
    <glyph glyph-name="plusminus" unicode="&#xb1;" horiz-adv-x="579" 
d="M71 -11c-2 13.333 -3.66699 25.4961 -5 36.4961s-2 22.5 -2 34.5c0 11.333 0.666992 22.833 2 34.5s3 24.167 5 37.5h147v150h-147c-2 13.333 -3.66699 25.5 -5 36.5s-2 22.5 -2 34.5c0 11.333 0.666992 22.833 2 34.5s3 24.167 5 37.5h147v159
c12.667 2.66699 24.667 4.66699 36 6s23 2 35 2c11.333 0 22.833 -0.666992 34.5 -2s24.167 -3.33301 37.5 -6v-159h146c2.66699 -13.333 4.66699 -25.666 6 -36.999s2 -22.666 2 -33.999s-0.666992 -22.833 -2 -34.5s-3.33301 -24.167 -6 -37.5h-146v-150h146
c2.66699 -13.333 4.66699 -25.666 6 -36.999s2 -22.666 2 -33.999s-0.666992 -22.833 -2 -34.5s-3.33301 -24.167 -6 -37.5h-436z" />
    <glyph glyph-name="twosuperior" unicode="&#xb2;" 
d="M255 414h107.999c2.66699 -11.333 4.33398 -21.166 5.00098 -29.499s1 -16.5 1 -24.5s-0.333008 -16.333 -1 -25s-2.33398 -18.667 -5.00098 -30h-318l-9 23l109 132c23.333 28 40.333 50.833 51 68.5s16 32.167 16 43.5c0 12 -4.33301 21.333 -13 28s-20.667 10 -36 10
c-16 0 -30.167 -2.16699 -42.5 -6.5s-28.166 -10.833 -47.499 -19.5c-6.66699 13.333 -13 28.833 -19 46.5s-10 36.167 -12 55.5c16.667 9.33301 37.667 17.166 63 23.499s50.333 9.5 75 9.5c50 0 90.167 -11.833 120.5 -35.5s45.5 -56.834 45.5 -99.501
c0 -16 -2.66699 -31.5 -8 -46.5s-12 -29.167 -20 -42.5s-16.667 -25.666 -26 -36.999l-26 -31z" />
    <glyph glyph-name="threesuperior" unicode="&#xb3;" 
d="M72 600c-2.66699 10 -4.33984 19.3311 -5.00684 27.998s-1 17 -1 25s0.333008 16.167 1 24.5s2.33398 17.5 5.00098 27.5h279l12 -21l-85 -129c30.667 -7.33301 53.834 -21.5 69.501 -42.5s23.5 -45.5 23.5 -73.5c0 -24.667 -4.83301 -46.167 -14.5 -64.5
s-23 -33.666 -40 -45.999s-37.167 -21.666 -60.5 -27.999s-48.333 -9.5 -75 -9.5c-29.333 0 -55.166 2.33301 -77.499 7s-41.833 10 -58.5 16c0.666992 19.333 4.33398 38.5 11.001 57.5s14 34.5 22 46.5c11.333 -5.33301 25.5 -10.666 42.5 -15.999s34.167 -8 51.5 -8
c18.667 0 34.834 3.66699 48.501 11s20.5 19 20.5 35c0 11.333 -4.83301 21.166 -14.5 29.499s-25.167 12.5 -46.5 12.5c-5.33301 0 -11.166 -0.333008 -17.499 -1s-16.166 -3 -29.499 -7l-18 21l72 105h-115z" />
    <glyph glyph-name="acute" unicode="&#xb4;" horiz-adv-x="480" 
d="M240 586c-20 -4 -44.333 -6.00098 -73 -6.00098c-12.667 0 -25.167 0.333008 -37.5 1s-24.166 2.33398 -35.499 5.00098l107 123c26 4 56.667 6 92 6c17.333 0 34.166 -0.5 50.499 -1.5s30.5 -2.5 42.5 -4.5z" />
    <glyph glyph-name="mu" unicode="&#xb5;" horiz-adv-x="571" 
d="M328 -11c-30 0 -53.334 2.99902 -70.001 8.99902s-27.667 11.667 -33 17v-240c-14 -3.33301 -28.333 -5.66602 -43 -6.99902s-28.334 -2 -41.001 -2c-13.333 0 -27.166 0.666992 -41.499 2s-28.833 3.66602 -43.5 6.99902v742
c14.667 3.33301 29.334 5.66602 44.001 6.99902s28.667 2 42 2c12.667 0 26.334 -0.666992 41.001 -2s29 -3.66602 43 -6.99902v-278c0 -40 6.66699 -67.333 20 -82s33.666 -22 60.999 -22c11.333 0 20 0.333008 26 1s10.333 1.33398 13 2.00098v379
c14.667 3.33301 29.167 5.66602 43.5 6.99902s28.166 2 41.499 2c12.667 0 26.334 -0.666992 41.001 -2s29 -3.66602 43 -6.99902v-493c-23.333 -8 -51 -15.833 -83 -23.5s-66.667 -11.5 -104 -11.5z" />
    <glyph glyph-name="paragraph" unicode="&#xb6;" horiz-adv-x="620" 
d="M434 725c13.333 0 31.667 -0.333008 55 -1s45.333 -2.33398 66 -5.00098v-719c-6 -1.33301 -20.167 -2.66602 -42.5 -3.99902s-48.5 -2 -78.5 -2v731zM260.001 306c-28 0.666992 -55.168 4.83398 -81.501 12.501s-49.666 19.167 -69.999 34.5s-36.833 35.5 -49.5 60.5
s-19 55.5 -19 91.5c0 79.333 28.333 135.833 85 169.5s142 50.5 256 50.5v-731c-30 0 -56.167 0.666992 -78.5 2s-36.5 2.66602 -42.5 3.99902v306z" />
    <glyph glyph-name="periodcentered" unicode="&#xb7;" horiz-adv-x="296" 
d="M148 415c13.333 0 27 -0.666992 41 -2s28.667 -3 44 -5c2.66699 -15.333 4.66699 -30 6 -44s2 -27.667 2 -41s-0.666992 -27 -2 -41s-3.33301 -28.667 -6 -44c-15.333 -2.66699 -30 -4.66699 -44 -6s-27.667 -2 -41 -2s-27 0.666992 -41 2s-28.667 3.33301 -44 6
c-2.66699 15.333 -4.66699 30 -6 44s-2 27.667 -2 41s0.666992 27 2 41s3.33301 28.667 6 44c15.333 2 30 3.66699 44 5s27.667 2 41 2z" />
    <glyph glyph-name="cedilla" unicode="&#xb8;" horiz-adv-x="480" 
d="M210 -115c-6.66699 0 -14.002 -0.498047 -22.002 -1.49805s-20.333 -4.16699 -37 -9.5l-20 20l84 132h84l-49 -76c36.667 -1.33301 65.334 -9.83301 86.001 -25.5s31 -36.167 31 -61.5c0 -34.667 -14.5 -60.834 -43.5 -78.501s-68.167 -26.5 -117.5 -26.5
c-15.333 0 -31.166 1 -47.499 3s-31.166 5.66699 -44.499 11c0 7.33301 1.66699 17.666 5 30.999s8.66602 25.333 15.999 36c12.667 -4 24.167 -6.83301 34.5 -8.5s21.833 -2.5 34.5 -2.5c17.333 0 29.333 3 36 9s10 13 10 21s-3.33301 14.5 -10 19.5s-16.667 7.5 -30 7.5z
" />
    <glyph glyph-name="onesuperior" unicode="&#xb9;" 
d="M91 305c-2.66699 11.333 -4.33398 21.335 -5.00098 30.002s-1 17 -1 25s0.333008 16 1 24s2.33398 17.667 5.00098 29h81v148l-69 -27c-11.333 15.333 -20.833 31.666 -28.5 48.999s-13.5 33.666 -17.5 48.999l203 80h33v-299h79
c2.66699 -11.333 4.33398 -21 5.00098 -29s1 -16 1 -24s-0.333008 -16.333 -1 -25s-2.33398 -18.667 -5.00098 -30h-281z" />
    <glyph glyph-name="ordmasculine" unicode="&#xba;" horiz-adv-x="437" 
d="M275 507c0 32 -4.66699 56.5 -14 73.5s-24 25.5 -44 25.5c-19.333 0 -33.5 -8.5 -42.5 -25.5s-13.5 -41.5 -13.5 -73.5c0 -31.333 4.5 -55.666 13.5 -72.999s23.167 -26 42.5 -26c20 0 34.667 8.66699 44 26s14 41.666 14 72.999zM22 507
c0 27.333 3.83301 53.666 11.5 78.999s19.5 47.833 35.5 67.5s36.167 35.5 60.5 47.5s53.5 18 87.5 18s63.5 -6 88.5 -18s45.5 -27.833 61.5 -47.5s28 -42.167 36 -67.5s12 -51.666 12 -78.999s-4 -53.666 -12 -78.999s-20 -47.666 -36 -66.999s-36.5 -35 -61.5 -47
s-54.5 -18 -88.5 -18s-63.167 6 -87.5 18s-44.5 27.667 -60.5 47s-27.833 41.666 -35.5 66.999s-11.5 51.666 -11.5 78.999z" />
    <glyph glyph-name="guillemotright" unicode="&#xbb;" horiz-adv-x="652" 
d="M21 488c30.667 6 62.334 9.00195 95.001 9.00195c16 0 31.5 -0.833008 46.5 -2.5s27.5 -3.83398 37.5 -6.50098l156 -222l-156 -222c-10 -2.66699 -22.5 -4.83398 -37.5 -6.50098s-30.5 -2.5 -46.5 -2.5c-32.667 0 -64.334 3 -95.001 9l154 222zM287 488.002
c30.667 6 62.334 9.00195 95.001 9.00195c16 0 31.5 -0.833008 46.5 -2.5s27.5 -3.83398 37.5 -6.50098l156 -222l-156 -222c-10 -2.66699 -22.5 -4.83398 -37.5 -6.50098s-30.5 -2.5 -46.5 -2.5c-32.667 0 -64.334 3 -95.001 9l154 222z" />
    <glyph glyph-name="onequarter" unicode="&#xbc;" horiz-adv-x="927" 
d="M50 305c-2.66699 11.333 -4.33398 21.335 -5.00098 30.002s-1 17 -1 25s0.333008 16 1 24s2.33398 17.667 5.00098 29h81v148l-69 -27c-11.333 15.333 -20.833 31.666 -28.5 48.999s-13.5 33.666 -17.5 48.999l203 80h33v-299h79
c2.66699 -11.333 4.33398 -21 5.00098 -29s1 -16 1 -24s-0.333008 -16.333 -1 -25s-2.33398 -18.667 -5.00098 -30h-281zM346 2.00195c-11.333 -2 -23.5 -3.5 -36.5 -4.5s-25.5 -1.5 -37.5 -1.5c-10.667 0 -22 0.166992 -34 0.5s-27 2.16602 -45 5.49902l413 707
c11.333 2 23.5 3.5 36.5 4.5s25.5 1.5 37.5 1.5c10.667 0 22 -0.166992 34 -0.5s27 -2.16602 45 -5.49902zM692 150.002h58v64c10 1.33301 19.667 2.33301 29 3s19 1 29 1c9.33301 0 18.166 -0.333008 26.499 -1s17.5 -1.66699 27.5 -3v-64h36c4 -16 6 -32.333 6 -49
c0 -14.667 -2 -30 -6 -46h-36v-54c-10 -1.33301 -19.167 -2.5 -27.5 -3.5s-17.833 -1.5 -28.5 -1.5c-9.33301 0 -18.166 0.333008 -26.499 1s-18.166 2 -29.499 4v54h-202l-13 21l155 342c19.333 -2 37.166 -5.5 53.499 -10.5s32.833 -13.167 49.5 -24.5z" />
    <glyph glyph-name="onehalf" unicode="&#xbd;" horiz-adv-x="963" 
d="M50 305c-2.66699 11.333 -4.33398 21.335 -5.00098 30.002s-1 17 -1 25s0.333008 16 1 24s2.33398 17.667 5.00098 29h81v148l-69 -27c-11.333 15.333 -20.833 31.666 -28.5 48.999s-13.5 33.666 -17.5 48.999l203 80h33v-299h79
c2.66699 -11.333 4.33398 -21 5.00098 -29s1 -16 1 -24s-0.333008 -16.333 -1 -25s-2.33398 -18.667 -5.00098 -30h-281zM826 110.002h107.999c2.66699 -11.333 4.33398 -21.166 5.00098 -29.499s1 -16.5 1 -24.5s-0.333008 -16.333 -1 -25s-2.33398 -18.667 -5.00098 -30
h-318l-9 23l109 132c23.333 28 40.333 50.833 51 68.5s16 32.167 16 43.5c0 12 -4.33301 21.333 -13 28s-20.667 10 -36 10c-16 0 -30.167 -2.16699 -42.5 -6.5s-28.166 -10.833 -47.499 -19.5c-6.66699 13.333 -13 28.833 -19 46.5s-10 36.167 -12 55.5
c16.667 9.33301 37.667 17.166 63 23.499s50.333 9.5 75 9.5c50 0 90.167 -11.833 120.5 -35.5s45.5 -56.834 45.5 -99.501c0 -16 -2.66699 -31.5 -8 -46.5s-12 -29.167 -20 -42.5s-16.667 -25.666 -26 -36.999l-26 -31zM345.999 2.00195c-11.333 -2 -23.5 -3.5 -36.5 -4.5
s-25.5 -1.5 -37.5 -1.5c-10.667 0 -22 0.166992 -34 0.5s-27 2.16602 -45 5.49902l413 707c11.333 2 23.5 3.5 36.5 4.5s25.5 1.5 37.5 1.5c10.667 0 22 -0.166992 34 -0.5s27 -2.16602 45 -5.49902z" />
    <glyph glyph-name="threequarters" unicode="&#xbe;" horiz-adv-x="910" 
d="M51 600c-2.66699 10 -4.33984 19.3311 -5.00684 27.998s-1 17 -1 25s0.333008 16.167 1 24.5s2.33398 17.5 5.00098 27.5h279l12 -21l-85 -129c30.667 -7.33301 53.834 -21.5 69.501 -42.5s23.5 -45.5 23.5 -73.5c0 -24.667 -4.83301 -46.167 -14.5 -64.5
s-23 -33.666 -40 -45.999s-37.167 -21.666 -60.5 -27.999s-48.333 -9.5 -75 -9.5c-29.333 0 -55.166 2.33301 -77.499 7s-41.833 10 -58.5 16c0.666992 19.333 4.33398 38.5 11.001 57.5s14 34.5 22 46.5c11.333 -5.33301 25.5 -10.666 42.5 -15.999s34.167 -8 51.5 -8
c18.667 0 34.834 3.66699 48.501 11s20.5 19 20.5 35c0 11.333 -4.83301 21.166 -14.5 29.499s-25.167 12.5 -46.5 12.5c-5.33301 0 -11.166 -0.333008 -17.499 -1s-16.166 -3 -29.499 -7l-18 21l72 105h-115zM674.994 156.998h58v64c10 1.33301 19.667 2.33301 29 3
s19 1 29 1c9.33301 0 18.166 -0.333008 26.499 -1s17.5 -1.66699 27.5 -3v-64h36c4 -16 6 -32.333 6 -49c0 -14.667 -2 -30 -6 -46h-36v-54c-10 -1.33301 -19.167 -2.5 -27.5 -3.5s-17.833 -1.5 -28.5 -1.5c-9.33301 0 -18.166 0.333008 -26.499 1s-18.166 2 -29.499 4v54
h-202l-13 21l155 342c19.333 -2 37.166 -5.5 53.499 -10.5s32.833 -13.167 49.5 -24.5zM328.994 1.99805c-11.333 -2 -23.5 -3.5 -36.5 -4.5s-25.5 -1.5 -37.5 -1.5c-10.667 0 -22 0.166992 -34 0.5s-27 2.16602 -45 5.49902l413 707c11.333 2 23.5 3.5 36.5 4.5
s25.5 1.5 37.5 1.5c10.667 0 22 -0.166992 34 -0.5s27 -2.16602 45 -5.49902z" />
    <glyph glyph-name="questiondown" unicode="&#xbf;" horiz-adv-x="479" 
d="M408 163c4 -8.66699 8.16797 -18.6689 12.501 -30.002s8.16602 -23 11.499 -35s6.33301 -23.833 9 -35.5s4.33398 -22.5 5.00098 -32.5c-37.333 -13.333 -69.5 -22.666 -96.5 -27.999s-55.833 -8 -86.5 -8c-80.667 0 -141.334 18.333 -182.001 55s-61 87.334 -61 152.001
c0 29.333 5.16699 54.833 15.5 76.5s23 40.334 38 56.001s30.833 28.5 47.5 38.5s31.667 18 45 24v91c14.667 2 29 3.66699 43 5s26.667 2 38 2c12 0 24.833 -0.666992 38.5 -2s27.167 -3 40.5 -5v-188c-17.333 -2 -34.333 -5.16699 -51 -9.5s-31.5 -10.166 -44.5 -17.499
s-23.5 -16.5 -31.5 -27.5s-12 -24.167 -12 -39.5c0 -22.667 8.33301 -39.834 25 -51.501s39 -17.5 67 -17.5c12.667 0 24 0.5 34 1.5s19.833 2.66699 29.5 5s19.667 5.16602 30 8.49902zM250.001 533.998c-13.333 0 -27 0.666992 -41 2s-28.667 3 -44 5
c-2.66699 15.333 -4.66699 30 -6 44s-2 27.667 -2 41s0.666992 27 2 41s3.33301 28.667 6 44c15.333 2.66699 30 4.66699 44 6s27.667 2 41 2s27 -0.666992 41 -2s28.667 -3.33301 44 -6c2.66699 -15.333 4.66699 -30 6 -44s2 -27.667 2 -41s-0.666992 -27 -2 -41
s-3.33301 -28.667 -6 -44c-15.333 -2 -30 -3.66699 -44 -5s-27.667 -2 -41 -2z" />
    <glyph glyph-name="Agrave" unicode="&#xc0;" horiz-adv-x="642" 
d="M178 2c-15.333 -2.66699 -29.335 -4.66699 -42.002 -6s-25 -2 -37 -2s-25.833 0.833008 -41.5 2.5s-33.167 4.16699 -52.5 7.5l224 714c17.333 2 33.5 3.66699 48.5 5s30.167 2 45.5 2c12.667 0 26.5 -0.666992 41.5 -2s32.167 -3 51.5 -5l221 -715
c-38 -6 -71.333 -9 -100 -9c-13.333 0 -26.666 0.666992 -39.999 2s-27.666 3.33301 -42.999 6l-38 139c-18.667 -5.33301 -36.5 -9.33301 -53.5 -12s-33.833 -4 -50.5 -4c-15.333 0 -31 1.16699 -47 3.5s-32.667 5.83301 -50 10.5zM317.998 530l-67 -257
c11.333 -3.33301 22 -6 32 -8s20.333 -3 31 -3c11.333 0 22.5 0.833008 33.5 2.5s22.5 4.16699 34.5 7.5zM114.998 904c12 2 26.167 3.50098 42.5 4.50098s33.166 1.5 50.499 1.5c35.333 0 66 -2 92 -6l107 -123c-11.333 -2.66699 -23.166 -4.33398 -35.499 -5.00098
s-24.833 -1 -37.5 -1c-28.667 0 -53 2 -73 6z" />
    <glyph glyph-name="Aacute" unicode="&#xc1;" horiz-adv-x="642" 
d="M178 2c-15.333 -2.66699 -29.335 -4.66699 -42.002 -6s-25 -2 -37 -2s-25.833 0.833008 -41.5 2.5s-33.167 4.16699 -52.5 7.5l224 714c17.333 2 33.5 3.66699 48.5 5s30.167 2 45.5 2c12.667 0 26.5 -0.666992 41.5 -2s32.167 -3 51.5 -5l221 -715
c-38 -6 -71.333 -9 -100 -9c-13.333 0 -26.666 0.666992 -39.999 2s-27.666 3.33301 -42.999 6l-38 139c-18.667 -5.33301 -36.5 -9.33301 -53.5 -12s-33.833 -4 -50.5 -4c-15.333 0 -31 1.16699 -47 3.5s-32.667 5.83301 -50 10.5zM317.998 530l-67 -257
c11.333 -3.33301 22 -6 32 -8s20.333 -3 31 -3c11.333 0 22.5 0.833008 33.5 2.5s22.5 4.16699 34.5 7.5zM556.004 904c-11.999 2 -26.167 3.50098 -42.5 4.50098c-16.332 1 -33.1641 1.5 -50.4961 1.5c-35.3311 0 -65.9961 -2 -91.9951 -6l-106.993 -123
c11.333 -2.66699 23.166 -4.33398 35.499 -5.00098s24.832 -1 37.498 -1c28.665 0 52.9971 2 72.9961 6z" />
    <glyph glyph-name="Acircumflex" unicode="&#xc2;" horiz-adv-x="642" 
d="M178 2c-15.333 -2.66699 -29.335 -4.66699 -42.002 -6s-25 -2 -37 -2s-25.833 0.833008 -41.5 2.5s-33.167 4.16699 -52.5 7.5l224 714c17.333 2 33.5 3.66699 48.5 5s30.167 2 45.5 2c12.667 0 26.5 -0.666992 41.5 -2s32.167 -3 51.5 -5l221 -715
c-38 -6 -71.333 -9 -100 -9c-13.333 0 -26.666 0.666992 -39.999 2s-27.666 3.33301 -42.999 6l-38 139c-18.667 -5.33301 -36.5 -9.33301 -53.5 -12s-33.833 -4 -50.5 -4c-15.333 0 -31 1.16699 -47 3.5s-32.667 5.83301 -50 10.5zM317.998 530l-67 -257
c11.333 -3.33301 22 -6 32 -8s20.333 -3 31 -3c11.333 0 22.5 0.833008 33.5 2.5s22.5 4.16699 34.5 7.5zM320.998 909c8.66699 0 20.002 -0.333008 34.002 -1s26.333 -2 37 -4l127 -123c-8.66699 -2.66699 -19.667 -4.5 -33 -5.5s-26.666 -1.5 -39.999 -1.5
c-12.667 0 -25.334 0.333008 -38.001 1s-25.334 2.66699 -38.001 6l-49 48l-49 -48c-12.667 -3.33301 -25.334 -5.33301 -38.001 -6s-25.334 -1 -38.001 -1c-13.333 0 -26.666 0.5 -39.999 1.5s-24.333 2.83301 -33 5.5l127 123c10.667 2 23 3.33301 37 4s25.333 1 34 1z
" />
    <glyph glyph-name="Atilde" unicode="&#xc3;" horiz-adv-x="642" 
d="M178 2c-15.333 -2.66699 -29.335 -4.66699 -42.002 -6s-25 -2 -37 -2s-25.833 0.833008 -41.5 2.5s-33.167 4.16699 -52.5 7.5l224 714c17.333 2 33.5 3.66699 48.5 5s30.167 2 45.5 2c12.667 0 26.5 -0.666992 41.5 -2s32.167 -3 51.5 -5l221 -715
c-38 -6 -71.333 -9 -100 -9c-13.333 0 -26.666 0.666992 -39.999 2s-27.666 3.33301 -42.999 6l-38 139c-18.667 -5.33301 -36.5 -9.33301 -53.5 -12s-33.833 -4 -50.5 -4c-15.333 0 -31 1.16699 -47 3.5s-32.667 5.83301 -50 10.5zM317.998 530l-67 -257
c11.333 -3.33301 22 -6 32 -8s20.333 -3 31 -3c11.333 0 22.5 0.833008 33.5 2.5s22.5 4.16699 34.5 7.5zM129.998 870c12.667 14.667 28.8359 27.333 48.5029 38s42.167 16 67.5 16c13.333 0 25.833 -1.83301 37.5 -5.5s23.834 -7.83398 36.501 -12.501
c11.333 -4.66699 23.166 -8.83398 35.499 -12.501s25.166 -5.5 38.499 -5.5s25.166 1.83301 35.499 5.5s22.5 12.167 36.5 25.5c10.667 -11.333 19.834 -24.666 27.501 -39.999s13.834 -31 18.501 -47c-12 -15.333 -28 -28.166 -48 -38.499s-41.667 -15.5 -65 -15.5
c-14.667 0 -28.667 2 -42 6s-26 8 -38 12c-12.667 4.66699 -24.834 8.83398 -36.501 12.501s-23.5 5.5 -35.5 5.5c-13.333 0 -25.5 -2 -36.5 -6s-22.5 -12.333 -34.5 -25c-10.667 11.333 -19.834 24.666 -27.501 39.999s-13.834 31 -18.501 47z" />
    <glyph glyph-name="Adieresis" unicode="&#xc4;" horiz-adv-x="642" 
d="M178 2c-15.333 -2.66699 -29.335 -4.66699 -42.002 -6s-25 -2 -37 -2s-25.833 0.833008 -41.5 2.5s-33.167 4.16699 -52.5 7.5l224 714c17.333 2 33.5 3.66699 48.5 5s30.167 2 45.5 2c12.667 0 26.5 -0.666992 41.5 -2s32.167 -3 51.5 -5l221 -715
c-38 -6 -71.333 -9 -100 -9c-13.333 0 -26.666 0.666992 -39.999 2s-27.666 3.33301 -42.999 6l-38 139c-18.667 -5.33301 -36.5 -9.33301 -53.5 -12s-33.833 -4 -50.5 -4c-15.333 0 -31 1.16699 -47 3.5s-32.667 5.83301 -50 10.5zM317.998 530l-67 -257
c11.333 -3.33301 22 -6 32 -8s20.333 -3 31 -3c11.333 0 22.5 0.833008 33.5 2.5s22.5 4.16699 34.5 7.5zM357.998 841c0 20 2 40 6 60c10 2 21.667 3.5 35 4.5s24.666 1.5 33.999 1.5s20.666 -0.5 33.999 -1.5s25.333 -2.5 36 -4.5c4 -20 6 -40 6 -60s-2 -40 -6 -60
c-10.667 -2 -22.667 -3.5 -36 -4.5s-24.666 -1.5 -33.999 -1.5s-20.666 0.5 -33.999 1.5s-25 2.5 -35 4.5c-4 20 -6 40 -6 60zM132.998 841c0 20 2 40 6 60c10 2 21.667 3.5 35 4.5s24.666 1.5 33.999 1.5s20.666 -0.5 33.999 -1.5s25.333 -2.5 36 -4.5c4 -20 6 -40 6 -60
s-2 -40 -6 -60c-10.667 -2 -22.667 -3.5 -36 -4.5s-24.666 -1.5 -33.999 -1.5s-20.666 0.5 -33.999 1.5s-25 2.5 -35 4.5c-4 20 -6 40 -6 60z" />
    <glyph glyph-name="Aring" unicode="&#xc5;" horiz-adv-x="642" 
d="M198 796c0 36 11.998 64 35.998 84s53.667 30 89 30s65 -10 89 -30s36 -48 36 -84c0 -32.667 -10.667 -59 -32 -79l221 -714c-38 -6 -71.333 -9 -100 -9c-13.333 0 -26.666 0.666992 -39.999 2s-27.666 3.33301 -42.999 6l-38 139
c-18.667 -5.33301 -36.5 -9.33301 -53.5 -12s-33.833 -4 -50.5 -4c-15.333 0 -31 1.16699 -47 3.5s-32.667 5.83301 -50 10.5l-37 -137c-15.333 -2.66699 -29.333 -4.66699 -42 -6s-25 -2 -37 -2s-25.833 0.833008 -41.5 2.5s-33.167 4.16699 -52.5 7.5l224 713
c-20.667 20.667 -31 47 -31 79zM317.998 530l-67 -257c11.333 -3.33301 22 -6 32 -8s20.333 -3 31 -3c11.333 0 22.5 0.833008 33.5 2.5s22.5 4.16699 34.5 7.5zM322.998 746c14 0 25.833 4.66699 35.5 14s14.5 21.333 14.5 36c0 14 -4.83301 25.833 -14.5 35.5
s-21.5 14.5 -35.5 14.5c-14.667 0 -26.667 -4.66699 -36 -14s-14 -21.333 -14 -36s4.66699 -26.667 14 -36s21.333 -14 36 -14z" />
    <glyph glyph-name="AE" unicode="&#xc6;" horiz-adv-x="941" 
d="M474 166c-6 -1.33301 -17.335 -3.16504 -34.002 -5.49805s-34.667 -3.5 -54 -3.5c-22 0 -42.667 1.83301 -62 5.5s-37 8.16699 -53 13.5l-88 -176c-15.333 -2.66699 -30.666 -4.33398 -45.999 -5.00098s-29.666 -1 -42.999 -1c-23.333 0 -42 0.5 -56 1.5
s-26.667 2.5 -38 4.5l388 719h508c2.66699 -14.667 4.66699 -28.334 6 -41.001s2 -24.667 2 -36c0 -22 -2.66699 -48.333 -8 -79h-249v-110h197c6 -29.333 9 -55.333 9 -78c0 -23.333 -3 -49.333 -9 -78h-197v-142h255c6 -28 9 -53.333 9 -76c0 -24.667 -3 -51 -9 -79h-428
v166zM336.998 304.001c10 -3.33301 21.5 -6 34.5 -8s25.833 -3 38.5 -3s25 0.666992 37 2s21 3 27 5v273z" />
    <glyph glyph-name="Ccedilla" unicode="&#xc7;" horiz-adv-x="609" 
d="M310 -115c-6.66699 0 -14.001 -0.49707 -22.001 -1.49707s-20.333 -4.16699 -37 -9.5l-20 20l66 104c-42 8.66699 -79 23.667 -111 45s-58.833 47.666 -80.5 78.999s-37.834 67 -48.501 107s-16 83 -16 129c0 53.333 7.66699 102.833 23 148.5s37.5 85.167 66.5 118.5
s64.833 59.333 107.5 78s91 28 145 28c32 0 62.333 -2.33301 91 -7s60.667 -14 96 -28c-1.33301 -27.333 -6.33301 -53.833 -15 -79.5s-17.667 -48.167 -27 -67.5c-13.333 4.66699 -25.5 8.66699 -36.5 12s-21.5 6 -31.5 8s-20 3.5 -30 4.5s-20.667 1.5 -32 1.5
c-54 0 -95.833 -18.167 -125.5 -54.5s-44.5 -90.5 -44.5 -162.5c0 -141.333 59.333 -212 178 -212c21.333 0 41.5 2 60.5 6s42.167 10.667 69.5 20c22 -48 36.667 -97.333 44 -148c-19.333 -7.33301 -37.333 -13.333 -54 -18s-32.667 -8.16699 -48 -10.5s-30.5 -4 -45.5 -5
s-30.5 -1.5 -46.5 -1.5c-2 0 -3.83301 0.166992 -5.5 0.5s-3.5 0.5 -5.5 0.5l-25 -40c36.667 -1.33301 65.334 -9.83301 86.001 -25.5s31 -36.167 31 -61.5c0 -34.667 -14.5 -60.834 -43.5 -78.501s-68.167 -26.5 -117.5 -26.5c-15.333 0 -31.166 1 -47.499 3
s-31.166 5.66699 -44.499 11c0 7.33301 1.66699 17.666 5 30.999s8.66602 25.333 15.999 36c12.667 -4 24.167 -6.83301 34.5 -8.5s21.833 -2.5 34.5 -2.5c17.333 0 29.333 3 36 9s10 13 10 21s-3.33301 14.5 -10 19.5s-16.667 7.5 -30 7.5z" />
    <glyph glyph-name="Egrave" unicode="&#xc8;" horiz-adv-x="527" 
d="M439 375c0 -23.333 -3 -49.332 -9 -77.999h-193v-142h251c6 -28 9 -53.333 9 -76c0 -24.667 -3 -51 -9 -79h-428v719h422c2.66699 -14.667 4.66699 -28.334 6 -41.001s2 -24.667 2 -36c0 -22 -2.66699 -48.333 -8 -79h-245v-110h193c6 -29.333 9 -55.333 9 -78z
M96 904.001c12 2 26.167 3.50098 42.5 4.50098s33.166 1.5 50.499 1.5c35.333 0 66 -2 92 -6l107 -123c-11.333 -2.66699 -23.166 -4.33398 -35.499 -5.00098s-24.833 -1 -37.5 -1c-28.667 0 -53 2 -73 6z" />
    <glyph glyph-name="Eacute" unicode="&#xc9;" horiz-adv-x="527" 
d="M439 375c0 -23.333 -3 -49.332 -9 -77.999h-193v-142h251c6 -28 9 -53.333 9 -76c0 -24.667 -3 -51 -9 -79h-428v719h422c2.66699 -14.667 4.66699 -28.334 6 -41.001s2 -24.667 2 -36c0 -22 -2.66699 -48.333 -8 -79h-245v-110h193c6 -29.333 9 -55.333 9 -78z
M506.006 904.001c-11.999 2 -26.167 3.50098 -42.499 4.50098c-16.333 1 -33.165 1.5 -50.4971 1.5c-35.3311 0 -65.9961 -2 -91.9951 -6l-106.993 -123c11.333 -2.66699 23.166 -4.33398 35.499 -5.00098s24.832 -1 37.498 -1c28.665 0 52.9971 2 72.9961 6z" />
    <glyph glyph-name="Ecircumflex" unicode="&#xca;" horiz-adv-x="527" 
d="M439 375c0 -23.333 -3 -49.332 -9 -77.999h-193v-142h251c6 -28 9 -53.333 9 -76c0 -24.667 -3 -51 -9 -79h-428v719h422c2.66699 -14.667 4.66699 -28.334 6 -41.001s2 -24.667 2 -36c0 -22 -2.66699 -48.333 -8 -79h-245v-110h193c6 -29.333 9 -55.333 9 -78z
M273 909.001c8.66699 0 20.002 -0.333008 34.002 -1s26.333 -2 37 -4l127 -123c-8.66699 -2.66699 -19.667 -4.5 -33 -5.5s-26.666 -1.5 -39.999 -1.5c-12.667 0 -25.334 0.333008 -38.001 1s-25.334 2.66699 -38.001 6l-49 48l-49 -48
c-12.667 -3.33301 -25.334 -5.33301 -38.001 -6s-25.334 -1 -38.001 -1c-13.333 0 -26.666 0.5 -39.999 1.5s-24.333 2.83301 -33 5.5l127 123c10.667 2 23 3.33301 37 4s25.333 1 34 1z" />
    <glyph glyph-name="Edieresis" unicode="&#xcb;" horiz-adv-x="527" 
d="M439 375c0 -23.333 -3 -49.332 -9 -77.999h-193v-142h251c6 -28 9 -53.333 9 -76c0 -24.667 -3 -51 -9 -79h-428v719h422c2.66699 -14.667 4.66699 -28.334 6 -41.001s2 -24.667 2 -36c0 -22 -2.66699 -48.333 -8 -79h-245v-110h193c6 -29.333 9 -55.333 9 -78z
M309 841.001c0 20 2 40 6 60c10 2 21.667 3.5 35 4.5s24.666 1.5 33.999 1.5s20.666 -0.5 33.999 -1.5s25.333 -2.5 36 -4.5c4 -20 6 -40 6 -60s-2 -40 -6 -60c-10.667 -2 -22.667 -3.5 -36 -4.5s-24.666 -1.5 -33.999 -1.5s-20.666 0.5 -33.999 1.5s-25 2.5 -35 4.5
c-4 20 -6 40 -6 60zM84 841.001c0 20 2 40 6 60c10 2 21.667 3.5 35 4.5s24.666 1.5 33.999 1.5s20.666 -0.5 33.999 -1.5s25.333 -2.5 36 -4.5c4 -20 6 -40 6 -60s-2 -40 -6 -60c-10.667 -2 -22.667 -3.5 -36 -4.5s-24.666 -1.5 -33.999 -1.5s-20.666 0.5 -33.999 1.5
s-25 2.5 -35 4.5c-4 20 -6 40 -6 60z" />
    <glyph glyph-name="Igrave" unicode="&#xcc;" horiz-adv-x="297" 
d="M149 -6c-24.667 0 -54.334 3 -89.001 9v714c18 2.66699 34.333 4.66699 49 6s27.667 2 39 2c12 0 25.5 -0.666992 40.5 -2s31.167 -3.33301 48.5 -6v-714c-35.333 -6 -64.666 -9 -87.999 -9zM-57 904c12 2 26.167 3.50098 42.5 4.50098s33.166 1.5 50.499 1.5
c35.333 0 66 -2 92 -6l107 -123c-11.333 -2.66699 -23.166 -4.33398 -35.499 -5.00098s-24.833 -1 -37.5 -1c-28.667 0 -53 2 -73 6z" />
    <glyph glyph-name="Iacute" unicode="&#xcd;" horiz-adv-x="297" 
d="M149 -6c-24.667 0 -54.334 3 -89.001 9v714c18 2.66699 34.333 4.66699 49 6s27.667 2 39 2c12 0 25.5 -0.666992 40.5 -2s31.167 -3.33301 48.5 -6v-714c-35.333 -6 -64.666 -9 -87.999 -9zM376.006 904c-11.999 2 -26.167 3.50098 -42.499 4.50098
c-16.333 1 -33.165 1.5 -50.4971 1.5c-35.3311 0 -65.9961 -2 -91.9951 -6l-106.993 -123c11.333 -2.66699 23.166 -4.33398 35.499 -5.00098s24.832 -1 37.498 -1c28.665 0 52.9971 2 72.9961 6z" />
    <glyph glyph-name="Icircumflex" unicode="&#xce;" horiz-adv-x="297" 
d="M149 -6c-24.667 0 -54.334 3 -89.001 9v714c18 2.66699 34.333 4.66699 49 6s27.667 2 39 2c12 0 25.5 -0.666992 40.5 -2s31.167 -3.33301 48.5 -6v-714c-35.333 -6 -64.666 -9 -87.999 -9zM149 909c8.66699 0 20.002 -0.333008 34.002 -1s26.333 -2 37 -4l127 -123
c-8.66699 -2.66699 -19.667 -4.5 -33 -5.5s-26.666 -1.5 -39.999 -1.5c-12.667 0 -25.334 0.333008 -38.001 1s-25.334 2.66699 -38.001 6l-49 48l-49 -48c-12.667 -3.33301 -25.334 -5.33301 -38.001 -6s-25.334 -1 -38.001 -1c-13.333 0 -26.666 0.5 -39.999 1.5
s-24.333 2.83301 -33 5.5l127 123c10.667 2 23 3.33301 37 4s25.333 1 34 1z" />
    <glyph glyph-name="Idieresis" unicode="&#xcf;" horiz-adv-x="297" 
d="M149 -6c-24.667 0 -54.334 3 -89.001 9v714c18 2.66699 34.333 4.66699 49 6s27.667 2 39 2c12 0 25.5 -0.666992 40.5 -2s31.167 -3.33301 48.5 -6v-714c-35.333 -6 -64.666 -9 -87.999 -9zM186 841c0 20 2 40 6 60c10 2 21.667 3.5 35 4.5s24.666 1.5 33.999 1.5
s20.666 -0.5 33.999 -1.5s25.333 -2.5 36 -4.5c4 -20 6 -40 6 -60s-2 -40 -6 -60c-10.667 -2 -22.667 -3.5 -36 -4.5s-24.666 -1.5 -33.999 -1.5s-20.666 0.5 -33.999 1.5s-25 2.5 -35 4.5c-4 20 -6 40 -6 60zM-39 841c0 20 2 40 6 60c10 2 21.667 3.5 35 4.5
s24.666 1.5 33.999 1.5s20.666 -0.5 33.999 -1.5s25.333 -2.5 36 -4.5c4 -20 6 -40 6 -60s-2 -40 -6 -60c-10.667 -2 -22.667 -3.5 -36 -4.5s-24.666 -1.5 -33.999 -1.5s-20.666 0.5 -33.999 1.5s-25 2.5 -35 4.5c-4 20 -6 40 -6 60z" />
    <glyph glyph-name="Eth" unicode="&#xd0;" horiz-adv-x="685" 
d="M-2 363c0 16.667 3.00098 35 9.00098 55h53v299c10 1.33301 22.667 2.83301 38 4.5s32 3.16699 50 4.5s36.5 2.5 55.5 3.5s37.5 1.5 55.5 1.5c126 0 221.667 -31.5 287 -94.5s98 -156.833 98 -281.5c0 -126.667 -33.333 -219.5 -100 -278.5
s-165.334 -88.5 -296.001 -88.5c-33.333 0 -65.5 1.5 -96.5 4.5s-61.5 6.5 -91.5 10.5v306h-53c-6 20 -9 38 -9 54zM237.001 418h92.999c3.33301 -10 5.5 -19.5 6.5 -28.5s1.5 -17.5 1.5 -25.5s-0.5 -16.667 -1.5 -26s-3.16699 -19 -6.5 -29h-93v-164
c4.66699 -0.666992 10 -1 16 -1h19c26 0 50.5 3.16699 73.5 9.5s42.833 17.5 59.5 33.5s29.834 37.667 39.501 65s14.5 62.333 14.5 105c0 42 -5 77 -15 105s-23.167 50.167 -39.5 66.5s-35.5 28 -57.5 35s-45 10.5 -69 10.5c-13.333 0 -23 -0.166992 -29 -0.5
s-10 -0.5 -12 -0.5v-155z" />
    <glyph glyph-name="Ntilde" unicode="&#xd1;" horiz-adv-x="659" 
d="M60 717c14.667 2.66699 28.002 4.66797 40.002 6.00098s23.667 2 35 2c12 0 24.5 -0.833008 37.5 -2.5s24.167 -3.5 33.5 -5.5l232 -392v392c17.333 2.66699 33 4.66699 47 6s26.667 2 38 2s23.333 -0.666992 36 -2s26 -3.33301 40 -6l-1 -714
c-6.66699 -2 -16.334 -4 -29.001 -6s-26.334 -3 -41.001 -3c-16.667 0 -31.667 1.16699 -45 3.5s-23 4.16602 -29 5.49902l-233 390v-390c-29.333 -6 -56 -9 -80 -9s-51 3 -81 9v714zM138.002 870.001c12.667 14.667 28.8359 27.333 48.5029 38s42.167 16 67.5 16
c13.333 0 25.833 -1.83301 37.5 -5.5s23.834 -7.83398 36.501 -12.501c11.333 -4.66699 23.166 -8.83398 35.499 -12.501s25.166 -5.5 38.499 -5.5s25.166 1.83301 35.499 5.5s22.5 12.167 36.5 25.5c10.667 -11.333 19.834 -24.666 27.501 -39.999s13.834 -31 18.501 -47
c-12 -15.333 -28 -28.166 -48 -38.499s-41.667 -15.5 -65 -15.5c-14.667 0 -28.667 2 -42 6s-26 8 -38 12c-12.667 4.66699 -24.834 8.83398 -36.501 12.501s-23.5 5.5 -35.5 5.5c-13.333 0 -25.5 -2 -36.5 -6s-22.5 -12.333 -34.5 -25
c-10.667 11.333 -19.834 24.666 -27.501 39.999s-13.834 31 -18.501 47z" />
    <glyph glyph-name="Ograve" unicode="&#xd2;" horiz-adv-x="711" 
d="M41 357c0 53.333 6.16699 102.833 18.5 148.5s31.333 85.167 57 118.5s58.334 59.5 98.001 78.5s86.834 28.5 141.501 28.5s101.667 -9.5 141 -28.5s71.833 -45.167 97.5 -78.5s44.667 -72.833 57 -118.5s18.5 -95.167 18.5 -148.5s-6.16699 -102.5 -18.5 -147.5
s-31.333 -84 -57 -117s-58.167 -58.667 -97.5 -77s-86.333 -27.5 -141 -27.5s-101.834 9.16699 -141.501 27.5s-72.334 44 -98.001 77s-44.667 72 -57 117s-18.5 94.167 -18.5 147.5zM484 357c0 145.333 -42.333 218.001 -127 218.001c-86.667 0 -130 -72.667 -130 -218
c0 -72.667 10.5 -126.834 31.5 -162.501s53.5 -53.5 97.5 -53.5c85.333 0 128 72 128 216zM179 904.001c12 2 26.167 3.50098 42.5 4.50098s33.166 1.5 50.499 1.5c35.333 0 66 -2 92 -6l107 -123c-11.333 -2.66699 -23.166 -4.33398 -35.499 -5.00098s-24.833 -1 -37.5 -1
c-28.667 0 -53 2 -73 6z" />
    <glyph glyph-name="Oacute" unicode="&#xd3;" horiz-adv-x="711" 
d="M41 357c0 53.333 6.16699 102.833 18.5 148.5s31.333 85.167 57 118.5s58.334 59.5 98.001 78.5s86.834 28.5 141.501 28.5s101.667 -9.5 141 -28.5s71.833 -45.167 97.5 -78.5s44.667 -72.833 57 -118.5s18.5 -95.167 18.5 -148.5s-6.16699 -102.5 -18.5 -147.5
s-31.333 -84 -57 -117s-58.167 -58.667 -97.5 -77s-86.333 -27.5 -141 -27.5s-101.834 9.16699 -141.501 27.5s-72.334 44 -98.001 77s-44.667 72 -57 117s-18.5 94.167 -18.5 147.5zM484 357c0 145.333 -42.333 218.001 -127 218.001c-86.667 0 -130 -72.667 -130 -218
c0 -72.667 10.5 -126.834 31.5 -162.501s53.5 -53.5 97.5 -53.5c85.333 0 128 72 128 216zM586.006 904.001c-11.999 2 -26.167 3.50098 -42.5 4.50098c-16.332 1 -33.1641 1.5 -50.4961 1.5c-35.3311 0 -65.9961 -2 -91.9951 -6l-106.993 -123
c11.333 -2.66699 23.166 -4.33398 35.499 -5.00098s24.832 -1 37.498 -1c28.665 0 52.9971 2 72.9961 6z" />
    <glyph glyph-name="Ocircumflex" unicode="&#xd4;" horiz-adv-x="711" 
d="M41 357c0 53.333 6.16699 102.833 18.5 148.5s31.333 85.167 57 118.5s58.334 59.5 98.001 78.5s86.834 28.5 141.501 28.5s101.667 -9.5 141 -28.5s71.833 -45.167 97.5 -78.5s44.667 -72.833 57 -118.5s18.5 -95.167 18.5 -148.5s-6.16699 -102.5 -18.5 -147.5
s-31.333 -84 -57 -117s-58.167 -58.667 -97.5 -77s-86.333 -27.5 -141 -27.5s-101.834 9.16699 -141.501 27.5s-72.334 44 -98.001 77s-44.667 72 -57 117s-18.5 94.167 -18.5 147.5zM484 357c0 145.333 -42.333 218.001 -127 218.001c-86.667 0 -130 -72.667 -130 -218
c0 -72.667 10.5 -126.834 31.5 -162.501s53.5 -53.5 97.5 -53.5c85.333 0 128 72 128 216zM355 909.001c8.66699 0 20.002 -0.333008 34.002 -1s26.333 -2 37 -4l127 -123c-8.66699 -2.66699 -19.667 -4.5 -33 -5.5s-26.666 -1.5 -39.999 -1.5
c-12.667 0 -25.334 0.333008 -38.001 1s-25.334 2.66699 -38.001 6l-49 48l-49 -48c-12.667 -3.33301 -25.334 -5.33301 -38.001 -6s-25.334 -1 -38.001 -1c-13.333 0 -26.666 0.5 -39.999 1.5s-24.333 2.83301 -33 5.5l127 123c10.667 2 23 3.33301 37 4s25.333 1 34 1z
" />
    <glyph glyph-name="Otilde" unicode="&#xd5;" horiz-adv-x="711" 
d="M41 357c0 53.333 6.16699 102.833 18.5 148.5s31.333 85.167 57 118.5s58.334 59.5 98.001 78.5s86.834 28.5 141.501 28.5s101.667 -9.5 141 -28.5s71.833 -45.167 97.5 -78.5s44.667 -72.833 57 -118.5s18.5 -95.167 18.5 -148.5s-6.16699 -102.5 -18.5 -147.5
s-31.333 -84 -57 -117s-58.167 -58.667 -97.5 -77s-86.333 -27.5 -141 -27.5s-101.834 9.16699 -141.501 27.5s-72.334 44 -98.001 77s-44.667 72 -57 117s-18.5 94.167 -18.5 147.5zM484 357c0 145.333 -42.333 218.001 -127 218.001c-86.667 0 -130 -72.667 -130 -218
c0 -72.667 10.5 -126.834 31.5 -162.501s53.5 -53.5 97.5 -53.5c85.333 0 128 72 128 216zM164 870.001c12.667 14.667 28.8359 27.333 48.5029 38s42.167 16 67.5 16c13.333 0 25.833 -1.83301 37.5 -5.5s23.834 -7.83398 36.501 -12.501
c11.333 -4.66699 23.166 -8.83398 35.499 -12.501s25.166 -5.5 38.499 -5.5s25.166 1.83301 35.499 5.5s22.5 12.167 36.5 25.5c10.667 -11.333 19.834 -24.666 27.501 -39.999s13.834 -31 18.501 -47c-12 -15.333 -28 -28.166 -48 -38.499s-41.667 -15.5 -65 -15.5
c-14.667 0 -28.667 2 -42 6s-26 8 -38 12c-12.667 4.66699 -24.834 8.83398 -36.501 12.501s-23.5 5.5 -35.5 5.5c-13.333 0 -25.5 -2 -36.5 -6s-22.5 -12.333 -34.5 -25c-10.667 11.333 -19.834 24.666 -27.501 39.999s-13.834 31 -18.501 47z" />
    <glyph glyph-name="Odieresis" unicode="&#xd6;" horiz-adv-x="711" 
d="M41 357c0 53.333 6.16699 102.833 18.5 148.5s31.333 85.167 57 118.5s58.334 59.5 98.001 78.5s86.834 28.5 141.501 28.5s101.667 -9.5 141 -28.5s71.833 -45.167 97.5 -78.5s44.667 -72.833 57 -118.5s18.5 -95.167 18.5 -148.5s-6.16699 -102.5 -18.5 -147.5
s-31.333 -84 -57 -117s-58.167 -58.667 -97.5 -77s-86.333 -27.5 -141 -27.5s-101.834 9.16699 -141.501 27.5s-72.334 44 -98.001 77s-44.667 72 -57 117s-18.5 94.167 -18.5 147.5zM484 357c0 145.333 -42.333 218.001 -127 218.001c-86.667 0 -130 -72.667 -130 -218
c0 -72.667 10.5 -126.834 31.5 -162.501s53.5 -53.5 97.5 -53.5c85.333 0 128 72 128 216zM392 841.001c0 20 2 40 6 60c10 2 21.667 3.5 35 4.5s24.666 1.5 33.999 1.5s20.666 -0.5 33.999 -1.5s25.333 -2.5 36 -4.5c4 -20 6 -40 6 -60s-2 -40 -6 -60
c-10.667 -2 -22.667 -3.5 -36 -4.5s-24.666 -1.5 -33.999 -1.5s-20.666 0.5 -33.999 1.5s-25 2.5 -35 4.5c-4 20 -6 40 -6 60zM167 841.001c0 20 2 40 6 60c10 2 21.667 3.5 35 4.5s24.666 1.5 33.999 1.5s20.666 -0.5 33.999 -1.5s25.333 -2.5 36 -4.5c4 -20 6 -40 6 -60
s-2 -40 -6 -60c-10.667 -2 -22.667 -3.5 -36 -4.5s-24.666 -1.5 -33.999 -1.5s-20.666 0.5 -33.999 1.5s-25 2.5 -35 4.5c-4 20 -6 40 -6 60z" />
    <glyph glyph-name="multiply" unicode="&#xd7;" horiz-adv-x="579" 
d="M84 455c6.66699 11.333 14.001 21.832 22.001 31.499s15.667 18.167 23 25.5c7.33301 8 16.666 16.333 27.999 25s21 15.334 29 20.001l104 -105l102 105c8 -4.66699 17.667 -11.334 29 -20.001s20.666 -17 27.999 -25c7.33301 -7.33301 15 -15.833 23 -25.5
s15.333 -20.167 22 -31.5l-106 -102l106 -104c-6.66699 -11.333 -14 -21.833 -22 -31.5s-15.667 -18.167 -23 -25.5c-7.33301 -8 -16.5 -16.167 -27.5 -24.5s-20.5 -14.833 -28.5 -19.5l-103 107l-104 -107c-8 4.66699 -17.667 11.334 -29 20.001s-20.666 17 -27.999 25
c-7.33301 7.33301 -15 15.833 -23 25.5s-15.333 20.167 -22 31.5l107 103z" />
    <glyph glyph-name="Oslash" unicode="&#xd8;" horiz-adv-x="727" 
d="M51 357c0 53.333 6.16504 102.833 18.498 148.5s31.333 85.167 57 118.5s58.334 59.5 98.001 78.5s86.834 28.5 141.501 28.5c36.667 0 70 -4.5 100 -13.5s56.667 -21.5 80 -37.5l29 39c4.66699 1.33301 11.5 2.33301 20.5 3s19.167 1 30.5 1s22.333 -0.333008 33 -1
s19.667 -1.66699 27 -3l-76 -102c23.333 -33.333 40.833 -72 52.5 -116s17.5 -92 17.5 -144c0 -53.333 -6.16699 -102.5 -18.5 -147.5s-31.333 -84 -57 -117s-58.167 -58.667 -97.5 -77s-86.333 -27.5 -141 -27.5c-74.667 0 -136 17.333 -184 52l-30 -40
c-4.66699 -1.33301 -11.5 -2.33301 -20.5 -3s-19.167 -1 -30.5 -1s-22.333 0.333008 -33 1s-19.667 1.66699 -27 3l77 104c-23.333 32 -40.333 69.5 -51 112.5s-16 89.833 -16 140.5zM493.998 357c0 33.333 -2.66699 64.333 -8 93l-204 -275
c20.667 -22.667 48.667 -34 84 -34c85.333 0 128 72 128 216zM236.998 357c0 -32 2 -60.333 6 -85l202 272c-20.667 20.667 -46.667 31 -78 31c-86.667 0 -130 -72.667 -130 -218z" />
    <glyph glyph-name="Ugrave" unicode="&#xd9;" horiz-adv-x="662" 
d="M331 -11c-54 0 -98.832 7.33301 -134.499 22s-63.834 35.834 -84.501 63.501s-35.167 61.167 -43.5 100.5s-12.5 83.666 -12.5 132.999v409c19.333 2.66699 36 4.5 50 5.5s27.333 1.5 40 1.5c11.333 0 23.833 -0.5 37.5 -1.5s30.167 -2.83301 49.5 -5.5v-388
c0 -33.333 1.33301 -61.666 4 -84.999s7.5 -42.333 14.5 -57s16.833 -25.167 29.5 -31.5s29.334 -9.5 50.001 -9.5s37.5 3.16699 50.5 9.5s23 16.833 30 31.5s11.667 33.667 14 57s3.5 51.666 3.5 84.999v388c20 2.66699 36.833 4.5 50.5 5.5s26.167 1.5 37.5 1.5
c12 0 25 -0.5 39 -1.5s30.667 -2.83301 50 -5.5v-409c0 -49.333 -4.16699 -93.666 -12.5 -132.999s-22.833 -72.833 -43.5 -100.5s-48.834 -48.834 -84.501 -63.501s-80.5 -22 -134.5 -22zM125.001 904c12 2 26.167 3.50098 42.5 4.50098s33.166 1.5 50.499 1.5
c35.333 0 66 -2 92 -6l107 -123c-11.333 -2.66699 -23.166 -4.33398 -35.499 -5.00098s-24.833 -1 -37.5 -1c-28.667 0 -53 2 -73 6z" />
    <glyph glyph-name="Uacute" unicode="&#xda;" horiz-adv-x="662" 
d="M331 -11c-54 0 -98.832 7.33301 -134.499 22s-63.834 35.834 -84.501 63.501s-35.167 61.167 -43.5 100.5s-12.5 83.666 -12.5 132.999v409c19.333 2.66699 36 4.5 50 5.5s27.333 1.5 40 1.5c11.333 0 23.833 -0.5 37.5 -1.5s30.167 -2.83301 49.5 -5.5v-388
c0 -33.333 1.33301 -61.666 4 -84.999s7.5 -42.333 14.5 -57s16.833 -25.167 29.5 -31.5s29.334 -9.5 50.001 -9.5s37.5 3.16699 50.5 9.5s23 16.833 30 31.5s11.667 33.667 14 57s3.5 51.666 3.5 84.999v388c20 2.66699 36.833 4.5 50.5 5.5s26.167 1.5 37.5 1.5
c12 0 25 -0.5 39 -1.5s30.667 -2.83301 50 -5.5v-409c0 -49.333 -4.16699 -93.666 -12.5 -132.999s-22.833 -72.833 -43.5 -100.5s-48.834 -48.834 -84.501 -63.501s-80.5 -22 -134.5 -22zM562.007 904c-11.999 2 -26.167 3.50098 -42.5 4.50098
c-16.332 1 -33.1641 1.5 -50.4961 1.5c-35.3311 0 -65.9961 -2 -91.9951 -6l-106.993 -123c11.333 -2.66699 23.166 -4.33398 35.499 -5.00098s24.832 -1 37.498 -1c28.665 0 52.9971 2 72.9961 6z" />
    <glyph glyph-name="Ucircumflex" unicode="&#xdb;" horiz-adv-x="662" 
d="M331 -11c-54 0 -98.832 7.33301 -134.499 22s-63.834 35.834 -84.501 63.501s-35.167 61.167 -43.5 100.5s-12.5 83.666 -12.5 132.999v409c19.333 2.66699 36 4.5 50 5.5s27.333 1.5 40 1.5c11.333 0 23.833 -0.5 37.5 -1.5s30.167 -2.83301 49.5 -5.5v-388
c0 -33.333 1.33301 -61.666 4 -84.999s7.5 -42.333 14.5 -57s16.833 -25.167 29.5 -31.5s29.334 -9.5 50.001 -9.5s37.5 3.16699 50.5 9.5s23 16.833 30 31.5s11.667 33.667 14 57s3.5 51.666 3.5 84.999v388c20 2.66699 36.833 4.5 50.5 5.5s26.167 1.5 37.5 1.5
c12 0 25 -0.5 39 -1.5s30.667 -2.83301 50 -5.5v-409c0 -49.333 -4.16699 -93.666 -12.5 -132.999s-22.833 -72.833 -43.5 -100.5s-48.834 -48.834 -84.501 -63.501s-80.5 -22 -134.5 -22zM331.001 909c8.66699 0 20.002 -0.333008 34.002 -1s26.333 -2 37 -4l127 -123
c-8.66699 -2.66699 -19.667 -4.5 -33 -5.5s-26.666 -1.5 -39.999 -1.5c-12.667 0 -25.334 0.333008 -38.001 1s-25.334 2.66699 -38.001 6l-49 48l-49 -48c-12.667 -3.33301 -25.334 -5.33301 -38.001 -6s-25.334 -1 -38.001 -1c-13.333 0 -26.666 0.5 -39.999 1.5
s-24.333 2.83301 -33 5.5l127 123c10.667 2 23 3.33301 37 4s25.333 1 34 1z" />
    <glyph glyph-name="Udieresis" unicode="&#xdc;" horiz-adv-x="662" 
d="M331 -11c-54 0 -98.832 7.33301 -134.499 22s-63.834 35.834 -84.501 63.501s-35.167 61.167 -43.5 100.5s-12.5 83.666 -12.5 132.999v409c19.333 2.66699 36 4.5 50 5.5s27.333 1.5 40 1.5c11.333 0 23.833 -0.5 37.5 -1.5s30.167 -2.83301 49.5 -5.5v-388
c0 -33.333 1.33301 -61.666 4 -84.999s7.5 -42.333 14.5 -57s16.833 -25.167 29.5 -31.5s29.334 -9.5 50.001 -9.5s37.5 3.16699 50.5 9.5s23 16.833 30 31.5s11.667 33.667 14 57s3.5 51.666 3.5 84.999v388c20 2.66699 36.833 4.5 50.5 5.5s26.167 1.5 37.5 1.5
c12 0 25 -0.5 39 -1.5s30.667 -2.83301 50 -5.5v-409c0 -49.333 -4.16699 -93.666 -12.5 -132.999s-22.833 -72.833 -43.5 -100.5s-48.834 -48.834 -84.501 -63.501s-80.5 -22 -134.5 -22zM368.001 841c0 20 2 40 6 60c10 2 21.667 3.5 35 4.5s24.666 1.5 33.999 1.5
s20.666 -0.5 33.999 -1.5s25.333 -2.5 36 -4.5c4 -20 6 -40 6 -60s-2 -40 -6 -60c-10.667 -2 -22.667 -3.5 -36 -4.5s-24.666 -1.5 -33.999 -1.5s-20.666 0.5 -33.999 1.5s-25 2.5 -35 4.5c-4 20 -6 40 -6 60zM143.001 841c0 20 2 40 6 60c10 2 21.667 3.5 35 4.5
s24.666 1.5 33.999 1.5s20.666 -0.5 33.999 -1.5s25.333 -2.5 36 -4.5c4 -20 6 -40 6 -60s-2 -40 -6 -60c-10.667 -2 -22.667 -3.5 -36 -4.5s-24.666 -1.5 -33.999 -1.5s-20.666 0.5 -33.999 1.5s-25 2.5 -35 4.5c-4 20 -6 40 -6 60z" />
    <glyph glyph-name="Yacute" unicode="&#xdd;" horiz-adv-x="622" 
d="M433 717c15.333 2.66699 31.335 4.66699 48.002 6s33.667 2 51 2c11.333 0 26 -0.833008 44 -2.5s33.333 -3.5 46 -5.5l-223 -459v-255c-35.333 -6 -64.666 -9 -87.999 -9c-24.667 0 -54.334 3 -89.001 9v255l-54.5 112.5l-57 117l-56.5 117l-54 112.5
c11.333 2 26.666 3.83301 45.999 5.5s37.666 2.5 54.999 2.5c14 0 29.5 -0.833008 46.5 -2.5s31.833 -3.5 44.5 -5.5l123 -278zM546.008 904c-11.999 2 -26.167 3.50098 -42.499 4.50098c-16.333 1 -33.165 1.5 -50.4971 1.5c-35.3311 0 -65.9961 -2 -91.9951 -6
l-106.993 -123c11.333 -2.66699 23.166 -4.33398 35.499 -5.00098s24.832 -1 37.498 -1c28.665 0 52.9971 2 72.9961 6z" />
    <glyph glyph-name="Thorn" unicode="&#xde;" horiz-adv-x="587" 
d="M235 616l27.999 -0.00195312c32.667 0 66.167 -3 100.5 -9s65.666 -18 93.999 -36s51.5 -43.333 69.5 -76s27 -75.667 27 -129c0 -47.333 -7.33301 -86.666 -22 -117.999s-34.167 -56.666 -58.5 -75.999s-52.166 -33 -83.499 -41s-63.666 -12 -96.999 -12
c-9.33301 0 -20 0.5 -32 1.5s-20.667 2.16699 -26 3.5v-121c-35.333 -6 -64.333 -9 -87 -9c-24 0 -53.333 3 -88 9v713c34.667 6 64 9 88 9c22.667 0 51.667 -3 87 -9v-100zM234.999 268.998c3.33301 -1.33301 8.66699 -2.33301 16 -3s15.333 -1 24 -1c28.667 0 52 8 70 24
s27 41 27 75c0 20 -2.83301 36.667 -8.5 50s-13.5 24 -23.5 32s-21.667 13.667 -35 17s-27.333 5 -42 5h-13c-4.66699 0 -9.66699 -0.333008 -15 -1v-198z" />
    <glyph glyph-name="germandbls" unicode="&#xdf;" horiz-adv-x="940" 
d="M305 324c20 -5.33301 38.166 -11.833 54.499 -19.5s30.333 -17.5 42 -29.5s20.834 -26.667 27.501 -44s10 -38.333 10 -63c0 -25.333 -5.16699 -49 -15.5 -71s-25.666 -41 -45.999 -57s-45.333 -28.667 -75 -38s-63.834 -14 -102.501 -14c-32 0 -61.667 2.33301 -89 7
s-56.333 12.667 -87 24c3.33301 45.333 15.666 91.333 36.999 138c21.333 -10 43.666 -17.5 66.999 -22.5s46.666 -7.5 69.999 -7.5c8 0 16.333 0.333008 25 1s16.334 2.16699 23.001 4.5s12.167 5.5 16.5 9.5s6.5 9.33301 6.5 16c0 8.66699 -4.33301 15.167 -13 19.5
s-18.667 8.16602 -30 11.499l-68 19c-35.333 10 -64.666 27 -87.999 51s-35 56.667 -35 98c0 26 5.33301 49.667 16 71s25.667 39.5 45 54.5s42.166 26.5 68.499 34.5s55.5 12 87.5 12c25.333 0 53 -2.66699 83 -8s59.667 -13 89 -23
c-1.33301 -21.333 -5.66602 -44.166 -12.999 -68.499s-15.666 -45.833 -24.999 -64.5c-18 7.33301 -39.667 14 -65 20s-48.666 9 -69.999 9c-31.333 0 -47 -8.66699 -47 -26c0 -7.33301 3.66699 -13 11 -17s15.666 -7.33301 24.999 -10zM774.999 324
c20 -5.33301 38.166 -11.833 54.499 -19.5s30.333 -17.5 42 -29.5s20.834 -26.667 27.501 -44s10 -38.333 10 -63c0 -25.333 -5.16699 -49 -15.5 -71s-25.666 -41 -45.999 -57s-45.333 -28.667 -75 -38s-63.834 -14 -102.501 -14c-32 0 -61.667 2.33301 -89 7
s-56.333 12.667 -87 24c3.33301 45.333 15.666 91.333 36.999 138c21.333 -10 43.666 -17.5 66.999 -22.5s46.666 -7.5 69.999 -7.5c8 0 16.333 0.333008 25 1s16.334 2.16699 23.001 4.5s12.167 5.5 16.5 9.5s6.5 9.33301 6.5 16c0 8.66699 -4.33301 15.167 -13 19.5
s-18.667 8.16602 -30 11.499l-68 19c-35.333 10 -64.666 27 -87.999 51s-35 56.667 -35 98c0 26 5.33301 49.667 16 71s25.667 39.5 45 54.5s42.166 26.5 68.499 34.5s55.5 12 87.5 12c25.333 0 53 -2.66699 83 -8s59.667 -13 89 -23
c-1.33301 -21.333 -5.66602 -44.166 -12.999 -68.499s-15.666 -45.833 -24.999 -64.5c-18 7.33301 -39.667 14 -65 20s-48.666 9 -69.999 9c-31.333 0 -47 -8.66699 -47 -26c0 -7.33301 3.66699 -13 11 -17s15.666 -7.33301 24.999 -10z" />
    <glyph glyph-name="agrave" unicode="&#xe0;" horiz-adv-x="523" 
d="M30 169c0 32.667 6.99805 59.667 20.998 81s32 38.333 54 51s46.333 21.5 73 26.5s52.667 7.5 78 7.5h61c-0.666992 12 -4 22 -10 30s-13.667 14.167 -23 18.5s-19.666 7.33301 -30.999 9s-23 2.5 -35 2.5c-16 0 -34.667 -1.83301 -56 -5.5s-43.333 -9.5 -66 -17.5
c-6 11.333 -11.167 21.666 -15.5 30.999s-7.66602 18.833 -9.99902 28.5s-4 19.667 -5 30s-1.5 22.166 -1.5 35.499c32 10.667 63.833 18.667 95.5 24s60.167 8 85.5 8c34.667 0 66 -4.16699 94 -12.5s51.833 -21.166 71.5 -38.499s34.834 -39.5 45.501 -66.5
s16 -59.167 16 -96.5v-293c-25.333 -7.33301 -56 -14.666 -92 -21.999s-74 -11 -114 -11c-34.667 0 -66.5 3.16699 -95.5 9.5s-53.833 16.5 -74.5 30.5s-36.834 32.5 -48.501 55.5s-17.5 51.167 -17.5 84.5zM265.998 113c6 0 14.668 0.667969 26.001 2.00098
s19.666 2.66602 24.999 3.99902v110h-57c-23.333 0 -43 -5 -59 -15s-24 -24 -24 -42c0 -13.333 3 -23.833 9 -31.5s13.5 -13.5 22.5 -17.5s18.667 -6.66699 29 -8s19.833 -2 28.5 -2zM75.999 709.001c12 2 26.167 3.50098 42.5 4.50098s33.166 1.5 50.499 1.5
c35.333 0 66 -2 92 -6l107 -123c-11.333 -2.66699 -23.166 -4.33398 -35.499 -5.00098s-24.833 -1 -37.5 -1c-28.667 0 -53 2 -73 6z" />
    <glyph glyph-name="aacute" unicode="&#xe1;" horiz-adv-x="523" 
d="M30 169c0 32.667 6.99805 59.667 20.998 81s32 38.333 54 51s46.333 21.5 73 26.5s52.667 7.5 78 7.5h61c-0.666992 12 -4 22 -10 30s-13.667 14.167 -23 18.5s-19.666 7.33301 -30.999 9s-23 2.5 -35 2.5c-16 0 -34.667 -1.83301 -56 -5.5s-43.333 -9.5 -66 -17.5
c-6 11.333 -11.167 21.666 -15.5 30.999s-7.66602 18.833 -9.99902 28.5s-4 19.667 -5 30s-1.5 22.166 -1.5 35.499c32 10.667 63.833 18.667 95.5 24s60.167 8 85.5 8c34.667 0 66 -4.16699 94 -12.5s51.833 -21.166 71.5 -38.499s34.834 -39.5 45.501 -66.5
s16 -59.167 16 -96.5v-293c-25.333 -7.33301 -56 -14.666 -92 -21.999s-74 -11 -114 -11c-34.667 0 -66.5 3.16699 -95.5 9.5s-53.833 16.5 -74.5 30.5s-36.834 32.5 -48.501 55.5s-17.5 51.167 -17.5 84.5zM265.998 113c6 0 14.668 0.667969 26.001 2.00098
s19.666 2.66602 24.999 3.99902v110h-57c-23.333 0 -43 -5 -59 -15s-24 -24 -24 -42c0 -13.333 3 -23.833 9 -31.5s13.5 -13.5 22.5 -17.5s18.667 -6.66699 29 -8s19.833 -2 28.5 -2zM471.005 709.001c-11.999 2 -26.167 3.50098 -42.499 4.50098
c-16.333 1 -33.165 1.5 -50.4971 1.5c-35.3311 0 -65.9961 -2 -91.9951 -6l-106.993 -123c11.333 -2.66699 23.166 -4.33398 35.499 -5.00098s24.832 -1 37.498 -1c28.665 0 52.9971 2 72.9961 6z" />
    <glyph glyph-name="acircumflex" unicode="&#xe2;" horiz-adv-x="523" 
d="M30 169c0 32.667 6.99805 59.667 20.998 81s32 38.333 54 51s46.333 21.5 73 26.5s52.667 7.5 78 7.5h61c-0.666992 12 -4 22 -10 30s-13.667 14.167 -23 18.5s-19.666 7.33301 -30.999 9s-23 2.5 -35 2.5c-16 0 -34.667 -1.83301 -56 -5.5s-43.333 -9.5 -66 -17.5
c-6 11.333 -11.167 21.666 -15.5 30.999s-7.66602 18.833 -9.99902 28.5s-4 19.667 -5 30s-1.5 22.166 -1.5 35.499c32 10.667 63.833 18.667 95.5 24s60.167 8 85.5 8c34.667 0 66 -4.16699 94 -12.5s51.833 -21.166 71.5 -38.499s34.834 -39.5 45.501 -66.5
s16 -59.167 16 -96.5v-293c-25.333 -7.33301 -56 -14.666 -92 -21.999s-74 -11 -114 -11c-34.667 0 -66.5 3.16699 -95.5 9.5s-53.833 16.5 -74.5 30.5s-36.834 32.5 -48.501 55.5s-17.5 51.167 -17.5 84.5zM265.998 113c6 0 14.668 0.667969 26.001 2.00098
s19.666 2.66602 24.999 3.99902v110h-57c-23.333 0 -43 -5 -59 -15s-24 -24 -24 -42c0 -13.333 3 -23.833 9 -31.5s13.5 -13.5 22.5 -17.5s18.667 -6.66699 29 -8s19.833 -2 28.5 -2zM252.999 714.001c8.66699 0 20.002 -0.333008 34.002 -1s26.333 -2 37 -4l127 -123
c-8.66699 -2.66699 -19.667 -4.5 -33 -5.5s-26.666 -1.5 -39.999 -1.5c-12.667 0 -25.334 0.333008 -38.001 1s-25.334 2.66699 -38.001 6l-49 48l-49 -48c-12.667 -3.33301 -25.334 -5.33301 -38.001 -6s-25.334 -1 -38.001 -1c-13.333 0 -26.666 0.5 -39.999 1.5
s-24.333 2.83301 -33 5.5l127 123c10.667 2 23 3.33301 37 4s25.333 1 34 1z" />
    <glyph glyph-name="atilde" unicode="&#xe3;" horiz-adv-x="523" 
d="M30 169c0 32.667 6.99805 59.667 20.998 81s32 38.333 54 51s46.333 21.5 73 26.5s52.667 7.5 78 7.5h61c-0.666992 12 -4 22 -10 30s-13.667 14.167 -23 18.5s-19.666 7.33301 -30.999 9s-23 2.5 -35 2.5c-16 0 -34.667 -1.83301 -56 -5.5s-43.333 -9.5 -66 -17.5
c-6 11.333 -11.167 21.666 -15.5 30.999s-7.66602 18.833 -9.99902 28.5s-4 19.667 -5 30s-1.5 22.166 -1.5 35.499c32 10.667 63.833 18.667 95.5 24s60.167 8 85.5 8c34.667 0 66 -4.16699 94 -12.5s51.833 -21.166 71.5 -38.499s34.834 -39.5 45.501 -66.5
s16 -59.167 16 -96.5v-293c-25.333 -7.33301 -56 -14.666 -92 -21.999s-74 -11 -114 -11c-34.667 0 -66.5 3.16699 -95.5 9.5s-53.833 16.5 -74.5 30.5s-36.834 32.5 -48.501 55.5s-17.5 51.167 -17.5 84.5zM265.998 113c6 0 14.668 0.667969 26.001 2.00098
s19.666 2.66602 24.999 3.99902v110h-57c-23.333 0 -43 -5 -59 -15s-24 -24 -24 -42c0 -13.333 3 -23.833 9 -31.5s13.5 -13.5 22.5 -17.5s18.667 -6.66699 29 -8s19.833 -2 28.5 -2zM64.999 675.001c12.667 14.667 28.8359 27.333 48.5029 38s42.167 16 67.5 16
c13.333 0 25.833 -1.83301 37.5 -5.5s23.834 -7.83398 36.501 -12.501c11.333 -4.66699 23.166 -8.83398 35.499 -12.501s25.166 -5.5 38.499 -5.5s25.166 1.83301 35.499 5.5s22.5 12.167 36.5 25.5c10.667 -11.333 19.834 -24.666 27.501 -39.999s13.834 -31 18.501 -47
c-12 -15.333 -28 -28.166 -48 -38.499s-41.667 -15.5 -65 -15.5c-14.667 0 -28.667 2 -42 6s-26 8 -38 12c-12.667 4.66699 -24.834 8.83398 -36.501 12.501s-23.5 5.5 -35.5 5.5c-13.333 0 -25.5 -2 -36.5 -6s-22.5 -12.333 -34.5 -25
c-10.667 11.333 -19.834 24.666 -27.501 39.999s-13.834 31 -18.501 47z" />
    <glyph glyph-name="adieresis" unicode="&#xe4;" horiz-adv-x="523" 
d="M30 169c0 32.667 6.99805 59.667 20.998 81s32 38.333 54 51s46.333 21.5 73 26.5s52.667 7.5 78 7.5h61c-0.666992 12 -4 22 -10 30s-13.667 14.167 -23 18.5s-19.666 7.33301 -30.999 9s-23 2.5 -35 2.5c-16 0 -34.667 -1.83301 -56 -5.5s-43.333 -9.5 -66 -17.5
c-6 11.333 -11.167 21.666 -15.5 30.999s-7.66602 18.833 -9.99902 28.5s-4 19.667 -5 30s-1.5 22.166 -1.5 35.499c32 10.667 63.833 18.667 95.5 24s60.167 8 85.5 8c34.667 0 66 -4.16699 94 -12.5s51.833 -21.166 71.5 -38.499s34.834 -39.5 45.501 -66.5
s16 -59.167 16 -96.5v-293c-25.333 -7.33301 -56 -14.666 -92 -21.999s-74 -11 -114 -11c-34.667 0 -66.5 3.16699 -95.5 9.5s-53.833 16.5 -74.5 30.5s-36.834 32.5 -48.501 55.5s-17.5 51.167 -17.5 84.5zM265.998 113c6 0 14.668 0.667969 26.001 2.00098
s19.666 2.66602 24.999 3.99902v110h-57c-23.333 0 -43 -5 -59 -15s-24 -24 -24 -42c0 -13.333 3 -23.833 9 -31.5s13.5 -13.5 22.5 -17.5s18.667 -6.66699 29 -8s19.833 -2 28.5 -2zM297.999 646.001c0 20 2 40 6 60c10 2 21.667 3.5 35 4.5s24.666 1.5 33.999 1.5
s20.666 -0.5 33.999 -1.5s25.333 -2.5 36 -4.5c4 -20 6 -40 6 -60s-2 -40 -6 -60c-10.667 -2 -22.667 -3.5 -36 -4.5s-24.666 -1.5 -33.999 -1.5s-20.666 0.5 -33.999 1.5s-25 2.5 -35 4.5c-4 20 -6 40 -6 60zM72.999 646.001c0 20 2 40 6 60c10 2 21.667 3.5 35 4.5
s24.666 1.5 33.999 1.5s20.666 -0.5 33.999 -1.5s25.333 -2.5 36 -4.5c4 -20 6 -40 6 -60s-2 -40 -6 -60c-10.667 -2 -22.667 -3.5 -36 -4.5s-24.666 -1.5 -33.999 -1.5s-20.666 0.5 -33.999 1.5s-25 2.5 -35 4.5c-4 20 -6 40 -6 60z" />
    <glyph glyph-name="aring" unicode="&#xe5;" horiz-adv-x="523" 
d="M30 169c0 32.667 6.99805 59.667 20.998 81s32 38.333 54 51s46.333 21.5 73 26.5s52.667 7.5 78 7.5h61c-0.666992 12 -4 22 -10 30s-13.667 14.167 -23 18.5s-19.666 7.33301 -30.999 9s-23 2.5 -35 2.5c-16 0 -34.667 -1.83301 -56 -5.5s-43.333 -9.5 -66 -17.5
c-6 11.333 -11.167 21.666 -15.5 30.999s-7.66602 18.833 -9.99902 28.5s-4 19.667 -5 30s-1.5 22.166 -1.5 35.499c32 10.667 63.833 18.667 95.5 24s60.167 8 85.5 8c34.667 0 66 -4.16699 94 -12.5s51.833 -21.166 71.5 -38.499s34.834 -39.5 45.501 -66.5
s16 -59.167 16 -96.5v-293c-25.333 -7.33301 -56 -14.666 -92 -21.999s-74 -11 -114 -11c-34.667 0 -66.5 3.16699 -95.5 9.5s-53.833 16.5 -74.5 30.5s-36.834 32.5 -48.501 55.5s-17.5 51.167 -17.5 84.5zM265.998 113c6 0 14.668 0.667969 26.001 2.00098
s19.666 2.66602 24.999 3.99902v110h-57c-23.333 0 -43 -5 -59 -15s-24 -24 -24 -42c0 -13.333 3 -23.833 9 -31.5s13.5 -13.5 22.5 -17.5s18.667 -6.66699 29 -8s19.833 -2 28.5 -2zM145.999 685.001c0 36 12 64 36 84s53.667 30 89 30s65 -10 89 -30s36 -48 36 -84
s-12 -64 -36 -84s-53.667 -30 -89 -30s-65 10 -89 30s-36 48 -36 84zM270.999 635.001c14 0 25.833 4.66699 35.5 14s14.5 21.333 14.5 36c0 14 -4.83301 25.833 -14.5 35.5s-21.5 14.5 -35.5 14.5c-14.667 0 -26.667 -4.66699 -36 -14s-14 -21.333 -14 -36
s4.66699 -26.667 14 -36s21.333 -14 36 -14z" />
    <glyph glyph-name="ae" unicode="&#xe6;" horiz-adv-x="811" 
d="M328 124c-7.33301 17.333 -12.832 33.999 -16.499 49.999s-5.83398 32.667 -6.50098 50h-45c-23.333 0 -43 -4.5 -59 -13.5s-24 -22.5 -24 -40.5c0 -13.333 3 -23.666 9 -30.999s13.5 -13 22.5 -17s18.667 -6.5 29 -7.5s19.833 -1.5 28.5 -1.5
c14.667 0 27.667 1.33301 39 4s19 5 23 7zM554.001 401.999c-21.333 0 -39.333 -6.33301 -54 -19s-24 -32.667 -28 -60h160c-2.66699 23.333 -10.167 42.333 -22.5 57s-30.833 22 -55.5 22zM218.001 394.999c-16 0 -34.6631 -1.83301 -55.9961 -5.5s-43.333 -9.5 -66 -17.5
c-6 11.333 -11.167 21.666 -15.5 30.999s-7.66602 18.833 -9.99902 28.5s-4 19.667 -5 30s-1.5 22.166 -1.5 35.499c32 10.667 63.833 18.667 95.5 24s60.167 8 85.5 8c33.333 0 63.5 -3.83301 90.5 -11.5s50.167 -19.5 69.5 -35.5c20 14.667 42.833 26.167 68.5 34.5
s54.5 12.5 86.5 12.5c35.333 0 66.833 -6 94.5 -18s51.167 -28.5 70.5 -49.5s34.166 -46.333 44.499 -76s15.5 -61.834 15.5 -96.501c0 -18 -0.666992 -32.5 -2 -43.5s-2.66602 -21.167 -3.99902 -30.5h-307c5.33301 -31.333 18.166 -53.333 38.499 -66
s45.166 -19 74.499 -19c19.333 0 41 2.33301 65 7s47.667 11.667 71 21c9.33301 -17.333 17.5 -38 24.5 -62s10.833 -49 11.5 -75c-59.333 -22 -120 -33 -182 -33c-39.333 0 -71 3.66699 -95 11s-44 15 -60 23c-17.333 -9.33301 -39.5 -17.166 -66.5 -23.499
s-58.5 -9.5 -94.5 -9.5c-33.333 0 -63.833 3 -91.5 9s-51.834 16 -72.501 30s-36.667 32.333 -48 55s-17 50.667 -17 84c0 32.667 7 59.5 21 80.5s32 37.667 54 50s46.333 20.833 73 25.5s52.667 7 78 7h61c0 13.333 -2.83301 24.333 -8.5 33s-13.334 15.334 -23.001 20.001
s-20.334 7.83398 -32.001 9.50098s-23.5 2.5 -35.5 2.5z" />
    <glyph glyph-name="ccedilla" unicode="&#xe7;" horiz-adv-x="471" 
d="M31 258c0 40 5.66895 76.667 17.002 110s28 61.833 50 85.5s49 42.167 81 55.5s68.667 20 110 20c14 0 27.333 -0.333008 40 -1s25.167 -2 37.5 -4s25 -5 38 -9s27.5 -9 43.5 -15c1.33301 -22.667 -0.666992 -45.167 -6 -67.5s-13.666 -44.166 -24.999 -65.499
c-11.333 4 -21.5 7.16699 -30.5 9.5s-17.5 4.16602 -25.5 5.49902s-15.833 2.16602 -23.5 2.49902s-15.834 0.5 -24.501 0.5c-32 0 -58.5 -9.5 -79.5 -28.5s-31.5 -51.833 -31.5 -98.5c0 -24.667 3.16699 -45.167 9.5 -61.5s14.666 -29.166 24.999 -38.499
s22.333 -16 36 -20s28.167 -6 43.5 -6c19.333 0 36.166 1.66699 50.499 5s31.166 8.66602 50.499 15.999c11.333 -18 20.333 -38.167 27 -60.5s10 -47.833 10 -76.5c-30.667 -12 -58.667 -19.667 -84 -23s-50.666 -5 -75.999 -5c-42.667 0 -80.334 6.33301 -113.001 19
s-60.167 30.834 -82.5 54.501s-39.166 52 -50.499 85s-17 70.167 -17 111.5zM215.002 -115c-6.66699 0 -14.002 -0.498047 -22.002 -1.49805s-20.333 -4.16699 -37 -9.5l-20 20l84 132h84l-49 -76c36.667 -1.33301 65.334 -9.83301 86.001 -25.5s31 -36.167 31 -61.5
c0 -34.667 -14.5 -60.834 -43.5 -78.501s-68.167 -26.5 -117.5 -26.5c-15.333 0 -31.166 1 -47.499 3s-31.166 5.66699 -44.499 11c0 7.33301 1.66699 17.666 5 30.999s8.66602 25.333 15.999 36c12.667 -4 24.167 -6.83301 34.5 -8.5s21.833 -2.5 34.5 -2.5
c17.333 0 29.333 3 36 9s10 13 10 21s-3.33301 14.5 -10 19.5s-16.667 7.5 -30 7.5z" />
    <glyph glyph-name="egrave" unicode="&#xe8;" horiz-adv-x="538" 
d="M201 205c7.33301 -27.333 20.168 -46.6689 38.501 -58.002s42.5 -17 72.5 -17c19.333 0 41 2.33301 65 7s47.667 11.667 71 21c9.33301 -17.333 17.5 -38 24.5 -62s10.833 -49 11.5 -75c-59.333 -22 -120 -33 -182 -33c-48 0 -89.167 6.66699 -123.5 20
s-62.333 31.833 -84 55.5s-37.667 51.834 -48 84.501s-15.5 68.334 -15.5 107.001c0 38 5.33301 73.667 16 107s26.667 62.333 48 87s48 44.167 80 58.5s69.333 21.5 112 21.5c35.333 0 66.833 -6 94.5 -18s51.167 -28.5 70.5 -49.5s34.166 -46.333 44.499 -76
s15.5 -61.834 15.5 -96.501c0 -18 -0.833008 -34.167 -2.5 -48.5s-3.16699 -26.166 -4.5 -35.499h-304zM281.002 401.997c-21.333 0 -39.667 -6.66699 -55 -20s-24.333 -34 -27 -62h160c-1.33301 23.333 -8.5 42.833 -21.5 58.5s-31.833 23.5 -56.5 23.5zM93.001 708.997
c12 2 26.167 3.50098 42.5 4.50098s33.166 1.5 50.499 1.5c35.333 0 66 -2 92 -6l107 -123c-11.333 -2.66699 -23.166 -4.33398 -35.499 -5.00098s-24.833 -1 -37.5 -1c-28.667 0 -53 2 -73 6z" />
    <glyph glyph-name="eacute" unicode="&#xe9;" horiz-adv-x="538" 
d="M201 205c7.33301 -27.333 20.168 -46.6689 38.501 -58.002s42.5 -17 72.5 -17c19.333 0 41 2.33301 65 7s47.667 11.667 71 21c9.33301 -17.333 17.5 -38 24.5 -62s10.833 -49 11.5 -75c-59.333 -22 -120 -33 -182 -33c-48 0 -89.167 6.66699 -123.5 20
s-62.333 31.833 -84 55.5s-37.667 51.834 -48 84.501s-15.5 68.334 -15.5 107.001c0 38 5.33301 73.667 16 107s26.667 62.333 48 87s48 44.167 80 58.5s69.333 21.5 112 21.5c35.333 0 66.833 -6 94.5 -18s51.167 -28.5 70.5 -49.5s34.166 -46.333 44.499 -76
s15.5 -61.834 15.5 -96.501c0 -18 -0.833008 -34.167 -2.5 -48.5s-3.16699 -26.166 -4.5 -35.499h-304zM281.002 401.997c-21.333 0 -39.667 -6.66699 -55 -20s-24.333 -34 -27 -62h160c-1.33301 23.333 -8.5 42.833 -21.5 58.5s-31.833 23.5 -56.5 23.5zM506.007 708.997
c-11.999 2 -26.167 3.50098 -42.499 4.50098c-16.333 1 -33.165 1.5 -50.4971 1.5c-35.3311 0 -65.9961 -2 -91.9951 -6l-106.993 -123c11.333 -2.66699 23.166 -4.33398 35.499 -5.00098s24.832 -1 37.498 -1c28.665 0 52.9971 2 72.9961 6z" />
    <glyph glyph-name="ecircumflex" unicode="&#xea;" horiz-adv-x="538" 
d="M201 205c7.33301 -27.333 20.168 -46.6689 38.501 -58.002s42.5 -17 72.5 -17c19.333 0 41 2.33301 65 7s47.667 11.667 71 21c9.33301 -17.333 17.5 -38 24.5 -62s10.833 -49 11.5 -75c-59.333 -22 -120 -33 -182 -33c-48 0 -89.167 6.66699 -123.5 20
s-62.333 31.833 -84 55.5s-37.667 51.834 -48 84.501s-15.5 68.334 -15.5 107.001c0 38 5.33301 73.667 16 107s26.667 62.333 48 87s48 44.167 80 58.5s69.333 21.5 112 21.5c35.333 0 66.833 -6 94.5 -18s51.167 -28.5 70.5 -49.5s34.166 -46.333 44.499 -76
s15.5 -61.834 15.5 -96.501c0 -18 -0.833008 -34.167 -2.5 -48.5s-3.16699 -26.166 -4.5 -35.499h-304zM281.002 401.997c-21.333 0 -39.667 -6.66699 -55 -20s-24.333 -34 -27 -62h160c-1.33301 23.333 -8.5 42.833 -21.5 58.5s-31.833 23.5 -56.5 23.5zM286.001 713.997
c8.66699 0 20.002 -0.333008 34.002 -1s26.333 -2 37 -4l127 -123c-8.66699 -2.66699 -19.667 -4.5 -33 -5.5s-26.666 -1.5 -39.999 -1.5c-12.667 0 -25.334 0.333008 -38.001 1s-25.334 2.66699 -38.001 6l-49 48l-49 -48c-12.667 -3.33301 -25.334 -5.33301 -38.001 -6
s-25.334 -1 -38.001 -1c-13.333 0 -26.666 0.5 -39.999 1.5s-24.333 2.83301 -33 5.5l127 123c10.667 2 23 3.33301 37 4s25.333 1 34 1z" />
    <glyph glyph-name="edieresis" unicode="&#xeb;" horiz-adv-x="538" 
d="M201 205c7.33301 -27.333 20.168 -46.6689 38.501 -58.002s42.5 -17 72.5 -17c19.333 0 41 2.33301 65 7s47.667 11.667 71 21c9.33301 -17.333 17.5 -38 24.5 -62s10.833 -49 11.5 -75c-59.333 -22 -120 -33 -182 -33c-48 0 -89.167 6.66699 -123.5 20
s-62.333 31.833 -84 55.5s-37.667 51.834 -48 84.501s-15.5 68.334 -15.5 107.001c0 38 5.33301 73.667 16 107s26.667 62.333 48 87s48 44.167 80 58.5s69.333 21.5 112 21.5c35.333 0 66.833 -6 94.5 -18s51.167 -28.5 70.5 -49.5s34.166 -46.333 44.499 -76
s15.5 -61.834 15.5 -96.501c0 -18 -0.833008 -34.167 -2.5 -48.5s-3.16699 -26.166 -4.5 -35.499h-304zM281.002 401.997c-21.333 0 -39.667 -6.66699 -55 -20s-24.333 -34 -27 -62h160c-1.33301 23.333 -8.5 42.833 -21.5 58.5s-31.833 23.5 -56.5 23.5zM325.001 645.997
c0 20 2 40 6 60c10 2 21.667 3.5 35 4.5s24.666 1.5 33.999 1.5s20.666 -0.5 33.999 -1.5s25.333 -2.5 36 -4.5c4 -20 6 -40 6 -60s-2 -40 -6 -60c-10.667 -2 -22.667 -3.5 -36 -4.5s-24.666 -1.5 -33.999 -1.5s-20.666 0.5 -33.999 1.5s-25 2.5 -35 4.5c-4 20 -6 40 -6 60z
M100.001 645.997c0 20 2 40 6 60c10 2 21.667 3.5 35 4.5s24.666 1.5 33.999 1.5s20.666 -0.5 33.999 -1.5s25.333 -2.5 36 -4.5c4 -20 6 -40 6 -60s-2 -40 -6 -60c-10.667 -2 -22.667 -3.5 -36 -4.5s-24.666 -1.5 -33.999 -1.5s-20.666 0.5 -33.999 1.5s-25 2.5 -35 4.5
c-4 20 -6 40 -6 60z" />
    <glyph glyph-name="igrave" unicode="&#xec;" horiz-adv-x="285" 
d="M-50 709c12 2 26.167 3.50098 42.5 4.50098s33.166 1.5 50.499 1.5c35.333 0 66 -2 92 -6l107 -123c-11.333 -2.66699 -23.166 -4.33398 -35.499 -5.00098s-24.833 -1 -37.5 -1c-28.667 0 -53 2 -73 6zM227 1.00098c-17.333 -2.66699 -33 -4.66699 -47 -6
s-26.667 -2 -38 -2s-24 0.666992 -38 2s-29.333 3.33301 -46 6v516c14.667 3.33301 29.167 5.66602 43.5 6.99902s28.166 2 41.499 2c12.667 0 26.334 -0.666992 41.001 -2s29 -3.66602 43 -6.99902v-516z" />
    <glyph glyph-name="iacute" unicode="&#xed;" horiz-adv-x="285" 
d="M366.006 709c-11.999 2 -26.167 3.50098 -42.499 4.50098c-16.333 1 -33.165 1.5 -50.4971 1.5c-35.3311 0 -65.9961 -2 -91.9951 -6l-106.993 -123c11.333 -2.66699 23.166 -4.33398 35.499 -5.00098s24.832 -1 37.498 -1c28.665 0 52.9971 2 72.9961 6z
M226.998 1.00098c-17.333 -2.66699 -33 -4.66699 -47 -6s-26.667 -2 -38 -2s-24 0.666992 -38 2s-29.333 3.33301 -46 6v516c14.667 3.33301 29.167 5.66602 43.5 6.99902s28.166 2 41.499 2c12.667 0 26.334 -0.666992 41.001 -2s29 -3.66602 43 -6.99902v-516z" />
    <glyph glyph-name="icircumflex" unicode="&#xee;" horiz-adv-x="285" 
d="M143 714c8.66699 0 20.002 -0.333008 34.002 -1s26.333 -2 37 -4l127 -123c-8.66699 -2.66699 -19.667 -4.5 -33 -5.5s-26.666 -1.5 -39.999 -1.5c-12.667 0 -25.334 0.333008 -38.001 1s-25.334 2.66699 -38.001 6l-49 48l-49 -48
c-12.667 -3.33301 -25.334 -5.33301 -38.001 -6s-25.334 -1 -38.001 -1c-13.333 0 -26.666 0.5 -39.999 1.5s-24.333 2.83301 -33 5.5l127 123c10.667 2 23 3.33301 37 4s25.333 1 34 1zM227.002 1c-17.333 -2.66699 -33 -4.66699 -47 -6s-26.667 -2 -38 -2
s-24 0.666992 -38 2s-29.333 3.33301 -46 6v516c14.667 3.33301 29.167 5.66602 43.5 6.99902s28.166 2 41.499 2c12.667 0 26.334 -0.666992 41.001 -2s29 -3.66602 43 -6.99902v-516z" />
    <glyph glyph-name="idieresis" unicode="&#xef;" horiz-adv-x="285" 
d="M180 646c0 20 2 40 6 60c10 2 21.667 3.5 35 4.5s24.666 1.5 33.999 1.5s20.666 -0.5 33.999 -1.5s25.333 -2.5 36 -4.5c4 -20 6 -40 6 -60s-2 -40 -6 -60c-10.667 -2 -22.667 -3.5 -36 -4.5s-24.666 -1.5 -33.999 -1.5s-20.666 0.5 -33.999 1.5s-25 2.5 -35 4.5
c-4 20 -6 40 -6 60zM-45 646c0 20 2 40 6 60c10 2 21.667 3.5 35 4.5s24.666 1.5 33.999 1.5s20.666 -0.5 33.999 -1.5s25.333 -2.5 36 -4.5c4 -20 6 -40 6 -60s-2 -40 -6 -60c-10.667 -2 -22.667 -3.5 -36 -4.5s-24.666 -1.5 -33.999 -1.5s-20.666 0.5 -33.999 1.5
s-25 2.5 -35 4.5c-4 20 -6 40 -6 60zM227 1c-17.333 -2.66699 -33 -4.66699 -47 -6s-26.667 -2 -38 -2s-24 0.666992 -38 2s-29.333 3.33301 -46 6v516c14.667 3.33301 29.167 5.66602 43.5 6.99902s28.166 2 41.499 2c12.667 0 26.334 -0.666992 41.001 -2
s29 -3.66602 43 -6.99902v-516z" />
    <glyph glyph-name="eth" unicode="&#xf0;" horiz-adv-x="568" 
d="M233 529c54 0 100.169 -6.33301 138.502 -19s69.833 -30.5 94.5 -53.5s42.667 -50.833 54 -83.5s17 -69 17 -109c0 -42 -5.83301 -80 -17.5 -114s-30 -63 -55 -87s-57.333 -42.5 -97 -55.5s-87.5 -19.5 -143.5 -19.5c-32.667 0 -61.834 1.16699 -87.501 3.5
s-52.5 5.5 -80.5 9.5v218h-46c-3.33301 8 -5.33301 16.333 -6 25s-1 16 -1 22c0 5.33301 0.333008 12.333 1 21s2.66699 17 6 25h46v203c28 3.33301 57.667 6.5 89 9.5s60.666 4.5 87.999 4.5zM225.002 312h61.001c3.33301 -8 5.33301 -16.333 6 -25s1 -15.667 1 -21
c0 -6 -0.333008 -13.333 -1 -22s-2.66699 -17 -6 -25h-61v-88c2.66699 0 6.16699 -0.333008 10.5 -1s10.833 -1 19.5 -1c37.333 0 65.166 10.5 83.499 31.5s27.5 55.5 27.5 103.5c0 42.667 -9 73.834 -27 93.501s-43.667 29.5 -77 29.5c-8 0 -15.333 -0.333008 -22 -1
s-11.667 -1.33398 -15 -2.00098v-72z" />
    <glyph glyph-name="ntilde" unicode="&#xf1;" horiz-adv-x="565" 
d="M266 527c29.333 0 58.666 -2.5 87.999 -7.5s55.833 -15.5 79.5 -31.5s43 -39 58 -69s22.5 -69.667 22.5 -119v-299c-17.333 -3.33301 -33 -5.5 -47 -6.5s-26.333 -1.5 -37 -1.5c-11.333 0 -24 0.5 -38 1.5s-29.667 3.16699 -47 6.5v281
c0 35.333 -6.66699 60.666 -20 75.999s-33.666 23 -60.999 23c-7.33301 0 -15.166 -0.666992 -23.499 -2s-13.5 -2.66602 -15.5 -3.99902v-374c-17.333 -3.33301 -33 -5.5 -47 -6.5s-26.333 -1.5 -37 -1.5c-11.333 0 -24 0.5 -38 1.5s-29.667 3.16699 -47 6.5v491
c23.333 8 51.666 15.833 84.999 23.5s75 11.5 125 11.5zM89 675c12.667 14.667 28.8359 27.333 48.5029 38s42.167 16 67.5 16c13.333 0 25.833 -1.83301 37.5 -5.5s23.834 -7.83398 36.501 -12.501c11.333 -4.66699 23.166 -8.83398 35.499 -12.501
s25.166 -5.5 38.499 -5.5s25.166 1.83301 35.499 5.5s22.5 12.167 36.5 25.5c10.667 -11.333 19.834 -24.666 27.501 -39.999s13.834 -31 18.501 -47c-12 -15.333 -28 -28.166 -48 -38.499s-41.667 -15.5 -65 -15.5c-14.667 0 -28.667 2 -42 6s-26 8 -38 12
c-12.667 4.66699 -24.834 8.83398 -36.501 12.501s-23.5 5.5 -35.5 5.5c-13.333 0 -25.5 -2 -36.5 -6s-22.5 -12.333 -34.5 -25c-10.667 11.333 -19.834 24.666 -27.501 39.999s-13.834 31 -18.501 47z" />
    <glyph glyph-name="ograve" unicode="&#xf2;" horiz-adv-x="577" 
d="M31 256c0 40.667 5.5 77.834 16.5 111.501s27.333 62.5 49 86.5s48.5 42.5 80.5 55.5s69 19.5 111 19.5c42.667 0 80 -6.5 112 -19.5s58.833 -31.5 80.5 -55.5s38 -52.833 49 -86.5s16.5 -70.834 16.5 -111.501c0 -40 -5.5 -76.5 -16.5 -109.5s-27.333 -61.333 -49 -85
s-48.5 -41.834 -80.5 -54.501s-69.333 -19 -112 -19c-42 0 -79 6.33301 -111 19s-58.833 30.834 -80.5 54.501s-38 52 -49 85s-16.5 69.5 -16.5 109.5zM375 256c0 42.667 -7.16699 75.334 -21.5 98.001s-36.166 34 -65.499 34s-51 -11.333 -65 -34s-21 -55.334 -21 -98.001
c0 -42 7 -74.333 21 -97s35.667 -34 65 -34s51.166 11.333 65.499 34s21.5 55 21.5 97zM102 709c12 2 26.167 3.50098 42.5 4.50098s33.166 1.5 50.499 1.5c35.333 0 66 -2 92 -6l107 -123c-11.333 -2.66699 -23.166 -4.33398 -35.499 -5.00098s-24.833 -1 -37.5 -1
c-28.667 0 -53 2 -73 6z" />
    <glyph glyph-name="oacute" unicode="&#xf3;" horiz-adv-x="577" 
d="M31 256c0 40.667 5.5 77.834 16.5 111.501s27.333 62.5 49 86.5s48.5 42.5 80.5 55.5s69 19.5 111 19.5c42.667 0 80 -6.5 112 -19.5s58.833 -31.5 80.5 -55.5s38 -52.833 49 -86.5s16.5 -70.834 16.5 -111.501c0 -40 -5.5 -76.5 -16.5 -109.5s-27.333 -61.333 -49 -85
s-48.5 -41.834 -80.5 -54.501s-69.333 -19 -112 -19c-42 0 -79 6.33301 -111 19s-58.833 30.834 -80.5 54.501s-38 52 -49 85s-16.5 69.5 -16.5 109.5zM375 256c0 42.667 -7.16699 75.334 -21.5 98.001s-36.166 34 -65.499 34s-51 -11.333 -65 -34s-21 -55.334 -21 -98.001
c0 -42 7 -74.333 21 -97s35.667 -34 65 -34s51.166 11.333 65.499 34s21.5 55 21.5 97zM506.006 709c-11.999 2 -26.167 3.50098 -42.499 4.50098c-16.333 1 -33.165 1.5 -50.4971 1.5c-35.3311 0 -65.9961 -2 -91.9951 -6l-106.993 -123
c11.333 -2.66699 23.166 -4.33398 35.499 -5.00098s24.832 -1 37.498 -1c28.665 0 52.9971 2 72.9961 6z" />
    <glyph glyph-name="ocircumflex" unicode="&#xf4;" horiz-adv-x="577" 
d="M31 256c0 40.667 5.5 77.834 16.5 111.501s27.333 62.5 49 86.5s48.5 42.5 80.5 55.5s69 19.5 111 19.5c42.667 0 80 -6.5 112 -19.5s58.833 -31.5 80.5 -55.5s38 -52.833 49 -86.5s16.5 -70.834 16.5 -111.501c0 -40 -5.5 -76.5 -16.5 -109.5s-27.333 -61.333 -49 -85
s-48.5 -41.834 -80.5 -54.501s-69.333 -19 -112 -19c-42 0 -79 6.33301 -111 19s-58.833 30.834 -80.5 54.501s-38 52 -49 85s-16.5 69.5 -16.5 109.5zM375 256c0 42.667 -7.16699 75.334 -21.5 98.001s-36.166 34 -65.499 34s-51 -11.333 -65 -34s-21 -55.334 -21 -98.001
c0 -42 7 -74.333 21 -97s35.667 -34 65 -34s51.166 11.333 65.499 34s21.5 55 21.5 97zM288 714c8.66699 0 20.002 -0.333008 34.002 -1s26.333 -2 37 -4l127 -123c-8.66699 -2.66699 -19.667 -4.5 -33 -5.5s-26.666 -1.5 -39.999 -1.5
c-12.667 0 -25.334 0.333008 -38.001 1s-25.334 2.66699 -38.001 6l-49 48l-49 -48c-12.667 -3.33301 -25.334 -5.33301 -38.001 -6s-25.334 -1 -38.001 -1c-13.333 0 -26.666 0.5 -39.999 1.5s-24.333 2.83301 -33 5.5l127 123c10.667 2 23 3.33301 37 4s25.333 1 34 1z
" />
    <glyph glyph-name="otilde" unicode="&#xf5;" horiz-adv-x="577" 
d="M31 256c0 40.667 5.5 77.834 16.5 111.501s27.333 62.5 49 86.5s48.5 42.5 80.5 55.5s69 19.5 111 19.5c42.667 0 80 -6.5 112 -19.5s58.833 -31.5 80.5 -55.5s38 -52.833 49 -86.5s16.5 -70.834 16.5 -111.501c0 -40 -5.5 -76.5 -16.5 -109.5s-27.333 -61.333 -49 -85
s-48.5 -41.834 -80.5 -54.501s-69.333 -19 -112 -19c-42 0 -79 6.33301 -111 19s-58.833 30.834 -80.5 54.501s-38 52 -49 85s-16.5 69.5 -16.5 109.5zM375 256c0 42.667 -7.16699 75.334 -21.5 98.001s-36.166 34 -65.499 34s-51 -11.333 -65 -34s-21 -55.334 -21 -98.001
c0 -42 7 -74.333 21 -97s35.667 -34 65 -34s51.166 11.333 65.499 34s21.5 55 21.5 97zM97 675c12.667 14.667 28.8359 27.333 48.5029 38s42.167 16 67.5 16c13.333 0 25.833 -1.83301 37.5 -5.5s23.834 -7.83398 36.501 -12.501
c11.333 -4.66699 23.166 -8.83398 35.499 -12.501s25.166 -5.5 38.499 -5.5s25.166 1.83301 35.499 5.5s22.5 12.167 36.5 25.5c10.667 -11.333 19.834 -24.666 27.501 -39.999s13.834 -31 18.501 -47c-12 -15.333 -28 -28.166 -48 -38.499s-41.667 -15.5 -65 -15.5
c-14.667 0 -28.667 2 -42 6s-26 8 -38 12c-12.667 4.66699 -24.834 8.83398 -36.501 12.501s-23.5 5.5 -35.5 5.5c-13.333 0 -25.5 -2 -36.5 -6s-22.5 -12.333 -34.5 -25c-10.667 11.333 -19.834 24.666 -27.501 39.999s-13.834 31 -18.501 47z" />
    <glyph glyph-name="odieresis" unicode="&#xf6;" horiz-adv-x="577" 
d="M31 256c0 40.667 5.5 77.834 16.5 111.501s27.333 62.5 49 86.5s48.5 42.5 80.5 55.5s69 19.5 111 19.5c42.667 0 80 -6.5 112 -19.5s58.833 -31.5 80.5 -55.5s38 -52.833 49 -86.5s16.5 -70.834 16.5 -111.501c0 -40 -5.5 -76.5 -16.5 -109.5s-27.333 -61.333 -49 -85
s-48.5 -41.834 -80.5 -54.501s-69.333 -19 -112 -19c-42 0 -79 6.33301 -111 19s-58.833 30.834 -80.5 54.501s-38 52 -49 85s-16.5 69.5 -16.5 109.5zM375 256c0 42.667 -7.16699 75.334 -21.5 98.001s-36.166 34 -65.499 34s-51 -11.333 -65 -34s-21 -55.334 -21 -98.001
c0 -42 7 -74.333 21 -97s35.667 -34 65 -34s51.166 11.333 65.499 34s21.5 55 21.5 97zM325 646c0 20 2 40 6 60c10 2 21.667 3.5 35 4.5s24.666 1.5 33.999 1.5s20.666 -0.5 33.999 -1.5s25.333 -2.5 36 -4.5c4 -20 6 -40 6 -60s-2 -40 -6 -60
c-10.667 -2 -22.667 -3.5 -36 -4.5s-24.666 -1.5 -33.999 -1.5s-20.666 0.5 -33.999 1.5s-25 2.5 -35 4.5c-4 20 -6 40 -6 60zM100 646c0 20 2 40 6 60c10 2 21.667 3.5 35 4.5s24.666 1.5 33.999 1.5s20.666 -0.5 33.999 -1.5s25.333 -2.5 36 -4.5c4 -20 6 -40 6 -60
s-2 -40 -6 -60c-10.667 -2 -22.667 -3.5 -36 -4.5s-24.666 -1.5 -33.999 -1.5s-20.666 0.5 -33.999 1.5s-25 2.5 -35 4.5c-4 20 -6 40 -6 60z" />
    <glyph glyph-name="divide" unicode="&#xf7;" horiz-adv-x="579" 
d="M198 571c0 25.333 9 47 27 65s39.667 27 65 27s47 -9 65 -27s27 -39.667 27 -65s-9 -47 -27 -65s-39.667 -27 -65 -27s-47 9 -65 27s-27 39.667 -27 65zM199 164c0 25.333 9 47 27 65s39.667 27 65 27s47 -9 65 -27s27 -39.667 27 -65s-9 -47 -27 -65
s-39.667 -27 -65 -27s-47 9 -65 27s-27 39.667 -27 65zM71 296c-2 13.333 -3.66699 25.498 -5 36.498s-2 22.5 -2 34.5c0 11.333 0.666992 22.833 2 34.5s3 24.167 5 37.5h436c2.66699 -13.333 4.66699 -25.666 6 -36.999s2 -22.666 2 -33.999s-0.666992 -22.833 -2 -34.5
s-3.33301 -24.167 -6 -37.5h-436z" />
    <glyph glyph-name="oslash" unicode="&#xf8;" horiz-adv-x="577" 
d="M487 444c38.667 -48 57.9971 -110.667 57.9971 -188c0 -40 -5.5 -76.5 -16.5 -109.5s-27.333 -61.333 -49 -85s-48.5 -41.834 -80.5 -54.501s-69.333 -19 -112 -19c-55.333 0 -102.666 11.333 -141.999 34l-18 -22c-11.333 -2 -28 -3 -50 -3
c-11.333 0 -21.166 0.333008 -29.499 1s-14.166 1.33398 -17.499 2.00098l57 71c-38 46 -57 107.667 -57 185c0 40.667 5.5 77.834 16.5 111.501s27.333 62.5 49 86.5s48.5 42.5 80.5 55.5s69 19.5 111 19.5c28.667 0 54.834 -3 78.501 -9s45.167 -14.667 64.5 -26l19 23
c10.667 2 27.334 3 50.001 3c11.333 0 21.166 -0.333008 29.499 -1s14.166 -1.33398 17.499 -2.00098zM377.997 256c0 19.333 -1.33301 35.667 -4 49l-138 -171c12.667 -10.667 29.667 -16 51 -16c30.667 0 53.5 12 68.5 36s22.5 58 22.5 102zM196.997 256.001
c0 -16.667 1.00195 -32 3.00195 -46l137 169c-14.667 10.667 -31.334 16 -50.001 16c-30.667 0 -53.334 -12 -68.001 -36s-22 -58.333 -22 -103z" />
    <glyph glyph-name="ugrave" unicode="&#xf9;" horiz-adv-x="565" 
d="M509 24c-11.333 -4 -24.8301 -8 -40.4971 -12s-32.334 -7.83301 -50.001 -11.5s-35.834 -6.5 -54.501 -8.5s-37 -3 -55 -3c-34 0 -66.667 2.66699 -98 8s-58.833 16.166 -82.5 32.499s-42.5 40 -56.5 71s-21 72.5 -21 124.5v292
c14.667 3.33301 29.167 5.66602 43.5 6.99902s28.166 2 41.499 2c12.667 0 26.334 -0.666992 41.001 -2s29 -3.66602 43 -6.99902v-278c0 -40 6.66699 -67.333 20 -82s33.666 -22 60.999 -22c11.333 0 20 0.333008 26 1s10.333 1.33398 13 2.00098v379
c14.667 3.33301 29.167 5.66602 43.5 6.99902s28.166 2 41.499 2c12.667 0 26.334 -0.666992 41.001 -2s29 -3.66602 43 -6.99902v-493zM88.0029 709c12 2 26.167 3.50098 42.5 4.50098s33.166 1.5 50.499 1.5c35.333 0 66 -2 92 -6l107 -123
c-11.333 -2.66699 -23.166 -4.33398 -35.499 -5.00098s-24.833 -1 -37.5 -1c-28.667 0 -53 2 -73 6z" />
    <glyph glyph-name="uacute" unicode="&#xfa;" horiz-adv-x="565" 
d="M509 24c-11.333 -4 -24.8301 -8 -40.4971 -12s-32.334 -7.83301 -50.001 -11.5s-35.834 -6.5 -54.501 -8.5s-37 -3 -55 -3c-34 0 -66.667 2.66699 -98 8s-58.833 16.166 -82.5 32.499s-42.5 40 -56.5 71s-21 72.5 -21 124.5v292
c14.667 3.33301 29.167 5.66602 43.5 6.99902s28.166 2 41.499 2c12.667 0 26.334 -0.666992 41.001 -2s29 -3.66602 43 -6.99902v-278c0 -40 6.66699 -67.333 20 -82s33.666 -22 60.999 -22c11.333 0 20 0.333008 26 1s10.333 1.33398 13 2.00098v379
c14.667 3.33301 29.167 5.66602 43.5 6.99902s28.166 2 41.499 2c12.667 0 26.334 -0.666992 41.001 -2s29 -3.66602 43 -6.99902v-493zM499.009 709c-11.999 2 -26.167 3.50098 -42.499 4.50098c-16.333 1 -33.165 1.5 -50.4971 1.5c-35.3311 0 -65.9961 -2 -91.9951 -6
l-106.993 -123c11.333 -2.66699 23.166 -4.33398 35.499 -5.00098s24.832 -1 37.498 -1c28.665 0 52.9971 2 72.9961 6z" />
    <glyph glyph-name="ucircumflex" unicode="&#xfb;" horiz-adv-x="565" 
d="M509 24c-11.333 -4 -24.8301 -8 -40.4971 -12s-32.334 -7.83301 -50.001 -11.5s-35.834 -6.5 -54.501 -8.5s-37 -3 -55 -3c-34 0 -66.667 2.66699 -98 8s-58.833 16.166 -82.5 32.499s-42.5 40 -56.5 71s-21 72.5 -21 124.5v292
c14.667 3.33301 29.167 5.66602 43.5 6.99902s28.166 2 41.499 2c12.667 0 26.334 -0.666992 41.001 -2s29 -3.66602 43 -6.99902v-278c0 -40 6.66699 -67.333 20 -82s33.666 -22 60.999 -22c11.333 0 20 0.333008 26 1s10.333 1.33398 13 2.00098v379
c14.667 3.33301 29.167 5.66602 43.5 6.99902s28.166 2 41.499 2c12.667 0 26.334 -0.666992 41.001 -2s29 -3.66602 43 -6.99902v-493zM280.003 714c8.66699 0 20.002 -0.333008 34.002 -1s26.333 -2 37 -4l127 -123c-8.66699 -2.66699 -19.667 -4.5 -33 -5.5
s-26.666 -1.5 -39.999 -1.5c-12.667 0 -25.334 0.333008 -38.001 1s-25.334 2.66699 -38.001 6l-49 48l-49 -48c-12.667 -3.33301 -25.334 -5.33301 -38.001 -6s-25.334 -1 -38.001 -1c-13.333 0 -26.666 0.5 -39.999 1.5s-24.333 2.83301 -33 5.5l127 123
c10.667 2 23 3.33301 37 4s25.333 1 34 1z" />
    <glyph glyph-name="udieresis" unicode="&#xfc;" horiz-adv-x="565" 
d="M509 24c-11.333 -4 -24.8301 -8 -40.4971 -12s-32.334 -7.83301 -50.001 -11.5s-35.834 -6.5 -54.501 -8.5s-37 -3 -55 -3c-34 0 -66.667 2.66699 -98 8s-58.833 16.166 -82.5 32.499s-42.5 40 -56.5 71s-21 72.5 -21 124.5v292
c14.667 3.33301 29.167 5.66602 43.5 6.99902s28.166 2 41.499 2c12.667 0 26.334 -0.666992 41.001 -2s29 -3.66602 43 -6.99902v-278c0 -40 6.66699 -67.333 20 -82s33.666 -22 60.999 -22c11.333 0 20 0.333008 26 1s10.333 1.33398 13 2.00098v379
c14.667 3.33301 29.167 5.66602 43.5 6.99902s28.166 2 41.499 2c12.667 0 26.334 -0.666992 41.001 -2s29 -3.66602 43 -6.99902v-493zM317.003 646c0 20 2 40 6 60c10 2 21.667 3.5 35 4.5s24.666 1.5 33.999 1.5s20.666 -0.5 33.999 -1.5s25.333 -2.5 36 -4.5
c4 -20 6 -40 6 -60s-2 -40 -6 -60c-10.667 -2 -22.667 -3.5 -36 -4.5s-24.666 -1.5 -33.999 -1.5s-20.666 0.5 -33.999 1.5s-25 2.5 -35 4.5c-4 20 -6 40 -6 60zM92.0029 646c0 20 2 40 6 60c10 2 21.667 3.5 35 4.5s24.666 1.5 33.999 1.5s20.666 -0.5 33.999 -1.5
s25.333 -2.5 36 -4.5c4 -20 6 -40 6 -60s-2 -40 -6 -60c-10.667 -2 -22.667 -3.5 -36 -4.5s-24.666 -1.5 -33.999 -1.5s-20.666 0.5 -33.999 1.5s-25 2.5 -35 4.5c-4 20 -6 40 -6 60z" />
    <glyph glyph-name="yacute" unicode="&#xfd;" horiz-adv-x="564" 
d="M384 517c5.33301 1.33301 15.502 2.66602 30.502 3.99902s31.167 2 48.5 2c22 0 41.667 -0.666992 59 -2s29.666 -2.66602 36.999 -3.99902l-193 -335v-181c-17.333 -2.66699 -33 -4.66699 -47 -6s-26.667 -2 -38 -2s-24 0.666992 -38 2s-29.333 3.33301 -46 6v181
l-192 335c7.33301 1.33301 20.166 2.66602 38.499 3.99902s38.5 2 60.5 2c17.333 0 34.333 -0.666992 51 -2s27.667 -2.66602 33 -3.99902l98 -197zM500.008 709c-11.999 2 -26.167 3.50098 -42.499 4.50098c-16.333 1 -33.165 1.5 -50.4971 1.5
c-35.3311 0 -65.9961 -2 -91.9951 -6l-106.993 -123c11.333 -2.66699 23.166 -4.33398 35.499 -5.00098s24.832 -1 37.498 -1c28.665 0 52.9971 2 72.9961 6z" />
    <glyph glyph-name="thorn" unicode="&#xfe;" horiz-adv-x="516" 
d="M56 589c17.333 3.33301 32.502 5.49902 45.502 6.49902s25.167 1.5 36.5 1.5c10.667 0 22.834 -0.5 36.501 -1.5s29.167 -3.16699 46.5 -6.5v-80h23c30.667 0 60.667 -2.83301 90 -8.5s55.666 -16 78.999 -31s42.166 -35.667 56.499 -62s21.5 -60.5 21.5 -102.5
c0 -38 -6.5 -70 -19.5 -96s-30.167 -47 -51.5 -63s-45.5 -27.5 -72.5 -34.5s-54.5 -10.5 -82.5 -10.5c-11.333 0 -21 0.333008 -29 1s-13 1.33398 -15 2.00098v-103c-17.333 -3.33301 -32.833 -5.5 -46.5 -6.5s-25.834 -1.5 -36.501 -1.5c-11.333 0 -23.5 0.5 -36.5 1.5
s-28.167 3.16699 -45.5 6.5v588zM221.002 229.999c3.33301 -0.666992 7.5 -1.16699 12.5 -1.5s9.16699 -0.5 12.5 -0.5c23.333 0 42.5 5.83301 57.5 17.5s22.5 31.5 22.5 59.5c0 24 -7.5 42.5 -22.5 55.5s-33.5 19.5 -55.5 19.5h-11.5c-5 0 -10.167 -0.333008 -15.5 -1v-149
z" />
    <glyph glyph-name="ydieresis" unicode="&#xff;" horiz-adv-x="564" 
d="M384 517c5.33301 1.33301 15.502 2.66602 30.502 3.99902s31.167 2 48.5 2c22 0 41.667 -0.666992 59 -2s29.666 -2.66602 36.999 -3.99902l-193 -335v-181c-17.333 -2.66699 -33 -4.66699 -47 -6s-26.667 -2 -38 -2s-24 0.666992 -38 2s-29.333 3.33301 -46 6v181
l-192 335c7.33301 1.33301 20.166 2.66602 38.499 3.99902s38.5 2 60.5 2c17.333 0 34.333 -0.666992 51 -2s27.667 -2.66602 33 -3.99902l98 -197zM319.002 646c0 20 2 40 6 60c10 2 21.667 3.5 35 4.5s24.666 1.5 33.999 1.5s20.666 -0.5 33.999 -1.5s25.333 -2.5 36 -4.5
c4 -20 6 -40 6 -60s-2 -40 -6 -60c-10.667 -2 -22.667 -3.5 -36 -4.5s-24.666 -1.5 -33.999 -1.5s-20.666 0.5 -33.999 1.5s-25 2.5 -35 4.5c-4 20 -6 40 -6 60zM94.002 646c0 20 2 40 6 60c10 2 21.667 3.5 35 4.5s24.666 1.5 33.999 1.5s20.666 -0.5 33.999 -1.5
s25.333 -2.5 36 -4.5c4 -20 6 -40 6 -60s-2 -40 -6 -60c-10.667 -2 -22.667 -3.5 -36 -4.5s-24.666 -1.5 -33.999 -1.5s-20.666 0.5 -33.999 1.5s-25 2.5 -35 4.5c-4 20 -6 40 -6 60z" />
    <glyph glyph-name="Amacron" unicode="&#x100;" horiz-adv-x="642" 
d="M178 2c-15.333 -2.66699 -29.335 -4.66699 -42.002 -6s-25 -2 -37 -2s-25.833 0.833008 -41.5 2.5s-33.167 4.16699 -52.5 7.5l224 714c17.333 2 33.5 3.66699 48.5 5s30.167 2 45.5 2c12.667 0 26.5 -0.666992 41.5 -2s32.167 -3 51.5 -5l221 -715
c-38 -6 -71.333 -9 -100 -9c-13.333 0 -26.666 0.666992 -39.999 2s-27.666 3.33301 -42.999 6l-38 139c-18.667 -5.33301 -36.5 -9.33301 -53.5 -12s-33.833 -4 -50.5 -4c-15.333 0 -31 1.16699 -47 3.5s-32.667 5.83301 -50 10.5zM317.998 530l-67 -257
c11.333 -3.33301 22 -6 32 -8s20.333 -3 31 -3c11.333 0 22.5 0.833008 33.5 2.5s22.5 4.16699 34.5 7.5zM471.998 908c4.66699 -18 7 -36.6689 7 -56.002c0 -8 -0.5 -17 -1.5 -27s-2.83301 -19.667 -5.5 -29h-302c-2.66699 9.33301 -4.5 18.833 -5.5 28.5
s-1.5 18.834 -1.5 27.501s0.5 17.834 1.5 27.501s2.83301 19.167 5.5 28.5h302z" />
    <glyph glyph-name="amacron" unicode="&#x101;" horiz-adv-x="523" 
d="M30 169c0 32.667 6.99805 59.667 20.998 81s32 38.333 54 51s46.333 21.5 73 26.5s52.667 7.5 78 7.5h61c-0.666992 12 -4 22 -10 30s-13.667 14.167 -23 18.5s-19.666 7.33301 -30.999 9s-23 2.5 -35 2.5c-16 0 -34.667 -1.83301 -56 -5.5s-43.333 -9.5 -66 -17.5
c-6 11.333 -11.167 21.666 -15.5 30.999s-7.66602 18.833 -9.99902 28.5s-4 19.667 -5 30s-1.5 22.166 -1.5 35.499c32 10.667 63.833 18.667 95.5 24s60.167 8 85.5 8c34.667 0 66 -4.16699 94 -12.5s51.833 -21.166 71.5 -38.499s34.834 -39.5 45.501 -66.5
s16 -59.167 16 -96.5v-293c-25.333 -7.33301 -56 -14.666 -92 -21.999s-74 -11 -114 -11c-34.667 0 -66.5 3.16699 -95.5 9.5s-53.833 16.5 -74.5 30.5s-36.834 32.5 -48.501 55.5s-17.5 51.167 -17.5 84.5zM265.998 113c6 0 14.668 0.667969 26.001 2.00098
s19.666 2.66602 24.999 3.99902v110h-57c-23.333 0 -43 -5 -59 -15s-24 -24 -24 -42c0 -13.333 3 -23.833 9 -31.5s13.5 -13.5 22.5 -17.5s18.667 -6.66699 29 -8s19.833 -2 28.5 -2zM416.999 713.001c4.66699 -18 7 -36.6689 7 -56.002c0 -8 -0.5 -17 -1.5 -27
s-2.83301 -19.667 -5.5 -29h-302c-2.66699 9.33301 -4.5 18.833 -5.5 28.5s-1.5 18.834 -1.5 27.501s0.5 17.834 1.5 27.501s2.83301 19.167 5.5 28.5h302z" />
    <glyph glyph-name="Abreve" unicode="&#x102;" horiz-adv-x="642" 
d="M178 2c-15.333 -2.66699 -29.335 -4.66699 -42.002 -6s-25 -2 -37 -2s-25.833 0.833008 -41.5 2.5s-33.167 4.16699 -52.5 7.5l224 714c17.333 2 33.5 3.66699 48.5 5s30.167 2 45.5 2c12.667 0 26.5 -0.666992 41.5 -2s32.167 -3 51.5 -5l221 -715
c-38 -6 -71.333 -9 -100 -9c-13.333 0 -26.666 0.666992 -39.999 2s-27.666 3.33301 -42.999 6l-38 139c-18.667 -5.33301 -36.5 -9.33301 -53.5 -12s-33.833 -4 -50.5 -4c-15.333 0 -31 1.16699 -47 3.5s-32.667 5.83301 -50 10.5zM317.998 530l-67 -257
c11.333 -3.33301 22 -6 32 -8s20.333 -3 31 -3c11.333 0 22.5 0.833008 33.5 2.5s22.5 4.16699 34.5 7.5zM320.998 853c19.333 0 33.333 4.33301 42 13s13.334 20.667 14.001 36c10 2 20.333 3.66699 31 5s22.334 2 35.001 2c13.333 0 26.166 -0.5 38.499 -1.5
s22.5 -2.5 30.5 -4.5c-2.66699 -27.333 -10.334 -49.666 -23.001 -66.999s-28 -30.833 -46 -40.5s-37.667 -16.334 -59 -20.001s-42.333 -5.5 -63 -5.5s-41.667 1.83301 -63 5.5s-41 10.334 -59 20.001s-33.333 23.167 -46 40.5s-20.334 39.666 -23.001 66.999
c8 2 18.167 3.5 30.5 4.5s25.166 1.5 38.499 1.5c12.667 0 24.334 -0.666992 35.001 -2s21 -3 31 -5c0.666992 -15.333 5.33398 -27.333 14.001 -36s22.667 -13 42 -13z" />
    <glyph glyph-name="abreve" unicode="&#x103;" horiz-adv-x="523" 
d="M30 169c0 32.667 6.99805 59.667 20.998 81s32 38.333 54 51s46.333 21.5 73 26.5s52.667 7.5 78 7.5h61c-0.666992 12 -4 22 -10 30s-13.667 14.167 -23 18.5s-19.666 7.33301 -30.999 9s-23 2.5 -35 2.5c-16 0 -34.667 -1.83301 -56 -5.5s-43.333 -9.5 -66 -17.5
c-6 11.333 -11.167 21.666 -15.5 30.999s-7.66602 18.833 -9.99902 28.5s-4 19.667 -5 30s-1.5 22.166 -1.5 35.499c32 10.667 63.833 18.667 95.5 24s60.167 8 85.5 8c34.667 0 66 -4.16699 94 -12.5s51.833 -21.166 71.5 -38.499s34.834 -39.5 45.501 -66.5
s16 -59.167 16 -96.5v-293c-25.333 -7.33301 -56 -14.666 -92 -21.999s-74 -11 -114 -11c-34.667 0 -66.5 3.16699 -95.5 9.5s-53.833 16.5 -74.5 30.5s-36.834 32.5 -48.501 55.5s-17.5 51.167 -17.5 84.5zM265.998 113c6 0 14.668 0.667969 26.001 2.00098
s19.666 2.66602 24.999 3.99902v110h-57c-23.333 0 -43 -5 -59 -15s-24 -24 -24 -42c0 -13.333 3 -23.833 9 -31.5s13.5 -13.5 22.5 -17.5s18.667 -6.66699 29 -8s19.833 -2 28.5 -2zM254.999 658.001c19.333 0 33.333 4.33301 42 13s13.334 20.667 14.001 36
c10 2 20.333 3.66699 31 5s22.334 2 35.001 2c13.333 0 26.166 -0.5 38.499 -1.5s22.5 -2.5 30.5 -4.5c-2.66699 -27.333 -10.334 -49.666 -23.001 -66.999s-28 -30.833 -46 -40.5s-37.667 -16.334 -59 -20.001s-42.333 -5.5 -63 -5.5s-41.667 1.83301 -63 5.5
s-41 10.334 -59 20.001s-33.333 23.167 -46 40.5s-20.334 39.666 -23.001 66.999c8 2 18.167 3.5 30.5 4.5s25.166 1.5 38.499 1.5c12.667 0 24.334 -0.666992 35.001 -2s21 -3 31 -5c0.666992 -15.333 5.33398 -27.333 14.001 -36s22.667 -13 42 -13z" />
    <glyph glyph-name="Aogonek" unicode="&#x104;" horiz-adv-x="642" 
d="M178 2c-15.333 -2.66699 -29.335 -4.66699 -42.002 -6s-25 -2 -37 -2s-25.833 0.833008 -41.5 2.5s-33.167 4.16699 -52.5 7.5l224 714c17.333 2 33.5 3.66699 48.5 5s30.167 2 45.5 2c12.667 0 26.5 -0.666992 41.5 -2s32.167 -3 51.5 -5l221 -715
c-38 -6 -71.333 -9 -100 -9c-13.333 0 -26.666 0.666992 -39.999 2s-27.666 3.33301 -42.999 6l-38 139c-18.667 -5.33301 -36.5 -9.33301 -53.5 -12s-33.833 -4 -50.5 -4c-15.333 0 -31 1.16699 -47 3.5s-32.667 5.83301 -50 10.5zM317.998 530l-67 -257
c11.333 -3.33301 22 -6 32 -8s20.333 -3 31 -3c11.333 0 22.5 0.833008 33.5 2.5s22.5 4.16699 34.5 7.5zM628.998 26c-34 -20 -62.333 -40.833 -85 -62.5s-34 -46.5 -34 -74.5c0 -16 4.66699 -27.167 14 -33.5s20.333 -9.5 33 -9.5c8 0 16 1 24 3s13.667 3.66699 17 5
c8 -10.667 13.833 -23.5 17.5 -38.5s5.5 -29.167 5.5 -42.5c-10 -4 -23.833 -7.5 -41.5 -10.5s-37.167 -4.5 -58.5 -4.5c-17.333 0 -34 1.66699 -50 5s-30.5 9 -43.5 17s-23.333 18.667 -31 32s-11.5 30 -11.5 50c0 32 11.333 62.667 34 92s55 53.333 97 72h113z" />
    <glyph glyph-name="aogonek" unicode="&#x105;" horiz-adv-x="523" 
d="M30 169c0 32.667 6.99805 59.667 20.998 81s32 38.333 54 51s46.333 21.5 73 26.5s52.667 7.5 78 7.5h61c-0.666992 12 -4 22 -10 30s-13.667 14.167 -23 18.5s-19.666 7.33301 -30.999 9s-23 2.5 -35 2.5c-16 0 -34.667 -1.83301 -56 -5.5s-43.333 -9.5 -66 -17.5
c-6 11.333 -11.167 21.666 -15.5 30.999s-7.66602 18.833 -9.99902 28.5s-4 19.667 -5 30s-1.5 22.166 -1.5 35.499c32 10.667 63.833 18.667 95.5 24s60.167 8 85.5 8c34.667 0 66 -4.16699 94 -12.5s51.833 -21.166 71.5 -38.499s34.834 -39.5 45.501 -66.5
s16 -59.167 16 -96.5v-293c-25.333 -7.33301 -56 -14.666 -92 -21.999s-74 -11 -114 -11c-34.667 0 -66.5 3.16699 -95.5 9.5s-53.833 16.5 -74.5 30.5s-36.834 32.5 -48.501 55.5s-17.5 51.167 -17.5 84.5zM265.998 113c6 0 14.668 0.667969 26.001 2.00098
s19.666 2.66602 24.999 3.99902v110h-57c-23.333 0 -43 -5 -59 -15s-24 -24 -24 -42c0 -13.333 3 -23.833 9 -31.5s13.5 -13.5 22.5 -17.5s18.667 -6.66699 29 -8s19.833 -2 28.5 -2zM470.999 26.001c-34 -20 -62.333 -40.833 -85 -62.5s-34 -46.5 -34 -74.5
c0 -16 4.66699 -27.167 14 -33.5s20.333 -9.5 33 -9.5c8 0 16 1 24 3s13.667 3.66699 17 5c8 -10.667 13.833 -23.5 17.5 -38.5s5.5 -29.167 5.5 -42.5c-10 -4 -23.833 -7.5 -41.5 -10.5s-37.167 -4.5 -58.5 -4.5c-17.333 0 -34 1.66699 -50 5s-30.5 9 -43.5 17
s-23.333 18.667 -31 32s-11.5 30 -11.5 50c0 32 11.333 62.667 34 92s55 53.333 97 72h113z" />
    <glyph glyph-name="Cacute" unicode="&#x106;" horiz-adv-x="609" 
d="M228 358c0 -141.333 59.333 -211.999 178 -211.999c21.333 0 41.5 2 60.5 6s42.167 10.667 69.5 20c22 -48 36.667 -97.333 44 -148c-19.333 -7.33301 -37.333 -13.333 -54 -18s-32.667 -8.16699 -48 -10.5s-30.5 -4 -45.5 -5s-30.5 -1.5 -46.5 -1.5
c-56.667 0 -106.5 9.16699 -149.5 27.5s-79 43.833 -108 76.5s-50.833 71.667 -65.5 117s-22 94.666 -22 147.999s7.66699 102.833 23 148.5s37.5 85.167 66.5 118.5s64.833 59.333 107.5 78s91 28 145 28c32 0 62.333 -2.33301 91 -7s60.667 -14 96 -28
c-1.33301 -27.333 -6.33301 -53.833 -15 -79.5s-17.667 -48.167 -27 -67.5c-13.333 4.66699 -25.5 8.66699 -36.5 12s-21.5 6 -31.5 8s-20 3.5 -30 4.5s-20.667 1.5 -32 1.5c-54 0 -95.833 -18.167 -125.5 -54.5s-44.5 -90.5 -44.5 -162.5zM587.006 904.001
c-11.999 2 -26.167 3.50098 -42.5 4.50098c-16.332 1 -33.1641 1.5 -50.4961 1.5c-35.3311 0 -65.9961 -2 -91.9951 -6l-106.993 -123c11.333 -2.66699 23.166 -4.33398 35.499 -5.00098s24.832 -1 37.498 -1c28.665 0 52.9971 2 72.9961 6z" />
    <glyph glyph-name="cacute" unicode="&#x107;" horiz-adv-x="471" 
d="M31 258c0 40 5.66895 76.667 17.002 110s28 61.833 50 85.5s49 42.167 81 55.5s68.667 20 110 20c14 0 27.333 -0.333008 40 -1s25.167 -2 37.5 -4s25 -5 38 -9s27.5 -9 43.5 -15c1.33301 -22.667 -0.666992 -45.167 -6 -67.5s-13.666 -44.166 -24.999 -65.499
c-11.333 4 -21.5 7.16699 -30.5 9.5s-17.5 4.16602 -25.5 5.49902s-15.833 2.16602 -23.5 2.49902s-15.834 0.5 -24.501 0.5c-32 0 -58.5 -9.5 -79.5 -28.5s-31.5 -51.833 -31.5 -98.5c0 -24.667 3.16699 -45.167 9.5 -61.5s14.666 -29.166 24.999 -38.499
s22.333 -16 36 -20s28.167 -6 43.5 -6c19.333 0 36.166 1.66699 50.499 5s31.166 8.66602 50.499 15.999c11.333 -18 20.333 -38.167 27 -60.5s10 -47.833 10 -76.5c-30.667 -12 -58.667 -19.667 -84 -23s-50.666 -5 -75.999 -5c-42.667 0 -80.334 6.33301 -113.001 19
s-60.167 30.834 -82.5 54.501s-39.166 52 -50.499 85s-17 70.167 -17 111.5zM526.008 709c-11.999 2 -26.167 3.50098 -42.499 4.50098c-16.333 1 -33.165 1.5 -50.4971 1.5c-35.3311 0 -65.9961 -2 -91.9951 -6l-106.993 -123
c11.333 -2.66699 23.166 -4.33398 35.499 -5.00098s24.832 -1 37.498 -1c28.665 0 52.9971 2 72.9961 6z" />
    <glyph glyph-name="Ccircumflex" unicode="&#x108;" horiz-adv-x="609" 
d="M354 909c8.66699 0 20.002 -0.333008 34.002 -1s26.333 -2 37 -4l127 -123c-8.66699 -2.66699 -19.667 -4.5 -33 -5.5s-26.666 -1.5 -39.999 -1.5c-12.667 0 -25.334 0.333008 -38.001 1s-25.334 2.66699 -38.001 6l-49 48l-49 -48
c-12.667 -3.33301 -25.334 -5.33301 -38.001 -6s-25.334 -1 -38.001 -1c-13.333 0 -26.666 0.5 -39.999 1.5s-24.333 2.83301 -33 5.5l127 123c10.667 2 23 3.33301 37 4s25.333 1 34 1zM228.002 358c0 -141.333 59.333 -211.999 178 -211.999c21.333 0 41.5 2 60.5 6
s42.167 10.667 69.5 20c22 -48 36.667 -97.333 44 -148c-19.333 -7.33301 -37.333 -13.333 -54 -18s-32.667 -8.16699 -48 -10.5s-30.5 -4 -45.5 -5s-30.5 -1.5 -46.5 -1.5c-56.667 0 -106.5 9.16699 -149.5 27.5s-79 43.833 -108 76.5s-50.833 71.667 -65.5 117
s-22 94.666 -22 147.999s7.66699 102.833 23 148.5s37.5 85.167 66.5 118.5s64.833 59.333 107.5 78s91 28 145 28c32 0 62.333 -2.33301 91 -7s60.667 -14 96 -28c-1.33301 -27.333 -6.33301 -53.833 -15 -79.5s-17.667 -48.167 -27 -67.5
c-13.333 4.66699 -25.5 8.66699 -36.5 12s-21.5 6 -31.5 8s-20 3.5 -30 4.5s-20.667 1.5 -32 1.5c-54 0 -95.833 -18.167 -125.5 -54.5s-44.5 -90.5 -44.5 -162.5z" />
    <glyph glyph-name="ccircumflex" unicode="&#x109;" horiz-adv-x="471" 
d="M31 258c0 40 5.66895 76.667 17.002 110s28 61.833 50 85.5s49 42.167 81 55.5s68.667 20 110 20c14 0 27.333 -0.333008 40 -1s25.167 -2 37.5 -4s25 -5 38 -9s27.5 -9 43.5 -15c1.33301 -22.667 -0.666992 -45.167 -6 -67.5s-13.666 -44.166 -24.999 -65.499
c-11.333 4 -21.5 7.16699 -30.5 9.5s-17.5 4.16602 -25.5 5.49902s-15.833 2.16602 -23.5 2.49902s-15.834 0.5 -24.501 0.5c-32 0 -58.5 -9.5 -79.5 -28.5s-31.5 -51.833 -31.5 -98.5c0 -24.667 3.16699 -45.167 9.5 -61.5s14.666 -29.166 24.999 -38.499
s22.333 -16 36 -20s28.167 -6 43.5 -6c19.333 0 36.166 1.66699 50.499 5s31.166 8.66602 50.499 15.999c11.333 -18 20.333 -38.167 27 -60.5s10 -47.833 10 -76.5c-30.667 -12 -58.667 -19.667 -84 -23s-50.666 -5 -75.999 -5c-42.667 0 -80.334 6.33301 -113.001 19
s-60.167 30.834 -82.5 54.501s-39.166 52 -50.499 85s-17 70.167 -17 111.5zM275.002 714c8.66699 0 20.002 -0.333008 34.002 -1s26.333 -2 37 -4l127 -123c-8.66699 -2.66699 -19.667 -4.5 -33 -5.5s-26.666 -1.5 -39.999 -1.5c-12.667 0 -25.334 0.333008 -38.001 1
s-25.334 2.66699 -38.001 6l-49 48l-49 -48c-12.667 -3.33301 -25.334 -5.33301 -38.001 -6s-25.334 -1 -38.001 -1c-13.333 0 -26.666 0.5 -39.999 1.5s-24.333 2.83301 -33 5.5l127 123c10.667 2 23 3.33301 37 4s25.333 1 34 1z" />
    <glyph glyph-name="Cdotaccent" unicode="&#x10a;" horiz-adv-x="609" 
d="M291 845c0 10.667 0.833008 21.167 2.5 31.5l5.5 32.5c10 2 21.667 3.5 35 4.5s24.666 1.5 33.999 1.5s20.666 -0.5 33.999 -1.5s25.333 -2.5 36 -4.5l5.5 -32c1.66699 -10 2.5 -20.667 2.5 -32s-0.833008 -22 -2.5 -32l-5.5 -32c-10.667 -2 -22.667 -3.5 -36 -4.5
s-24.666 -1.5 -33.999 -1.5s-20.666 0.5 -33.999 1.5s-25 2.5 -35 4.5l-5.5 32.5c-1.66699 10.333 -2.5 20.833 -2.5 31.5zM228 358c0 -141.333 59.333 -211.999 178 -211.999c21.333 0 41.5 2 60.5 6s42.167 10.667 69.5 20c22 -48 36.667 -97.333 44 -148
c-19.333 -7.33301 -37.333 -13.333 -54 -18s-32.667 -8.16699 -48 -10.5s-30.5 -4 -45.5 -5s-30.5 -1.5 -46.5 -1.5c-56.667 0 -106.5 9.16699 -149.5 27.5s-79 43.833 -108 76.5s-50.833 71.667 -65.5 117s-22 94.666 -22 147.999s7.66699 102.833 23 148.5
s37.5 85.167 66.5 118.5s64.833 59.333 107.5 78s91 28 145 28c32 0 62.333 -2.33301 91 -7s60.667 -14 96 -28c-1.33301 -27.333 -6.33301 -53.833 -15 -79.5s-17.667 -48.167 -27 -67.5c-13.333 4.66699 -25.5 8.66699 -36.5 12s-21.5 6 -31.5 8s-20 3.5 -30 4.5
s-20.667 1.5 -32 1.5c-54 0 -95.833 -18.167 -125.5 -54.5s-44.5 -90.5 -44.5 -162.5z" />
    <glyph glyph-name="cdotaccent" unicode="&#x10b;" horiz-adv-x="471" 
d="M31 258c0 40 5.66895 76.667 17.002 110s28 61.833 50 85.5s49 42.167 81 55.5s68.667 20 110 20c14 0 27.333 -0.333008 40 -1s25.167 -2 37.5 -4s25 -5 38 -9s27.5 -9 43.5 -15c1.33301 -22.667 -0.666992 -45.167 -6 -67.5s-13.666 -44.166 -24.999 -65.499
c-11.333 4 -21.5 7.16699 -30.5 9.5s-17.5 4.16602 -25.5 5.49902s-15.833 2.16602 -23.5 2.49902s-15.834 0.5 -24.501 0.5c-32 0 -58.5 -9.5 -79.5 -28.5s-31.5 -51.833 -31.5 -98.5c0 -24.667 3.16699 -45.167 9.5 -61.5s14.666 -29.166 24.999 -38.499
s22.333 -16 36 -20s28.167 -6 43.5 -6c19.333 0 36.166 1.66699 50.499 5s31.166 8.66602 50.499 15.999c11.333 -18 20.333 -38.167 27 -60.5s10 -47.833 10 -76.5c-30.667 -12 -58.667 -19.667 -84 -23s-50.666 -5 -75.999 -5c-42.667 0 -80.334 6.33301 -113.001 19
s-60.167 30.834 -82.5 54.501s-39.166 52 -50.499 85s-17 70.167 -17 111.5zM207.002 650c0 10.667 0.833008 21.167 2.5 31.5l5.5 32.5c10 2 21.667 3.5 35 4.5s24.666 1.5 33.999 1.5s20.666 -0.5 33.999 -1.5s25.333 -2.5 36 -4.5l5.5 -32
c1.66699 -10 2.5 -20.667 2.5 -32s-0.833008 -22 -2.5 -32l-5.5 -32c-10.667 -2 -22.667 -3.5 -36 -4.5s-24.666 -1.5 -33.999 -1.5s-20.666 0.5 -33.999 1.5s-25 2.5 -35 4.5l-5.5 32.5c-1.66699 10.333 -2.5 20.833 -2.5 31.5z" />
    <glyph glyph-name="Ccaron" unicode="&#x10c;" horiz-adv-x="609" 
d="M228 358c0 -141.333 59.333 -211.999 178 -211.999c21.333 0 41.5 2 60.5 6s42.167 10.667 69.5 20c22 -48 36.667 -97.333 44 -148c-19.333 -7.33301 -37.333 -13.333 -54 -18s-32.667 -8.16699 -48 -10.5s-30.5 -4 -45.5 -5s-30.5 -1.5 -46.5 -1.5
c-56.667 0 -106.5 9.16699 -149.5 27.5s-79 43.833 -108 76.5s-50.833 71.667 -65.5 117s-22 94.666 -22 147.999s7.66699 102.833 23 148.5s37.5 85.167 66.5 118.5s64.833 59.333 107.5 78s91 28 145 28c32 0 62.333 -2.33301 91 -7s60.667 -14 96 -28
c-1.33301 -27.333 -6.33301 -53.833 -15 -79.5s-17.667 -48.167 -27 -67.5c-13.333 4.66699 -25.5 8.66699 -36.5 12s-21.5 6 -31.5 8s-20 3.5 -30 4.5s-20.667 1.5 -32 1.5c-54 0 -95.833 -18.167 -125.5 -54.5s-44.5 -90.5 -44.5 -162.5zM362 774.001
c-8.66699 0 -20.002 0.333008 -34.002 1s-26.333 2 -37 4l-127 123c8.66699 2.66699 19.667 4.5 33 5.5s26.666 1.5 39.999 1.5c12.667 0 25.334 -0.333008 38.001 -1s25.334 -2.66699 38.001 -6l49 -48l49 48c12.667 3.33301 25.334 5.33301 38.001 6s25.334 1 38.001 1
c13.333 0 26.666 -0.5 39.999 -1.5s24.333 -2.83301 33 -5.5l-127 -123c-10.667 -2 -23 -3.33301 -37 -4s-25.333 -1 -34 -1z" />
    <glyph glyph-name="ccaron" unicode="&#x10d;" horiz-adv-x="471" 
d="M31 258c0 40 5.66895 76.667 17.002 110s28 61.833 50 85.5s49 42.167 81 55.5s68.667 20 110 20c14 0 27.333 -0.333008 40 -1s25.167 -2 37.5 -4s25 -5 38 -9s27.5 -9 43.5 -15c1.33301 -22.667 -0.666992 -45.167 -6 -67.5s-13.666 -44.166 -24.999 -65.499
c-11.333 4 -21.5 7.16699 -30.5 9.5s-17.5 4.16602 -25.5 5.49902s-15.833 2.16602 -23.5 2.49902s-15.834 0.5 -24.501 0.5c-32 0 -58.5 -9.5 -79.5 -28.5s-31.5 -51.833 -31.5 -98.5c0 -24.667 3.16699 -45.167 9.5 -61.5s14.666 -29.166 24.999 -38.499
s22.333 -16 36 -20s28.167 -6 43.5 -6c19.333 0 36.166 1.66699 50.499 5s31.166 8.66602 50.499 15.999c11.333 -18 20.333 -38.167 27 -60.5s10 -47.833 10 -76.5c-30.667 -12 -58.667 -19.667 -84 -23s-50.666 -5 -75.999 -5c-42.667 0 -80.334 6.33301 -113.001 19
s-60.167 30.834 -82.5 54.501s-39.166 52 -50.499 85s-17 70.167 -17 111.5zM300.002 579c-8.66699 0 -20.002 0.333008 -34.002 1s-26.333 2 -37 4l-127 123c8.66699 2.66699 19.667 4.5 33 5.5s26.666 1.5 39.999 1.5c12.667 0 25.334 -0.333008 38.001 -1
s25.334 -2.66699 38.001 -6l49 -48l49 48c12.667 3.33301 25.334 5.33301 38.001 6s25.334 1 38.001 1c13.333 0 26.666 -0.5 39.999 -1.5s24.333 -2.83301 33 -5.5l-127 -123c-10.667 -2 -23 -3.33301 -37 -4s-25.333 -1 -34 -1z" />
    <glyph glyph-name="Dcaron" unicode="&#x10e;" horiz-adv-x="685" 
d="M259 731c126 0 221.668 -31.5 287.001 -94.5s98 -156.833 98 -281.5c0 -126.667 -33.333 -219.5 -100 -278.5s-165.334 -88.5 -296.001 -88.5c-33.333 0 -65.5 1.5 -96.5 4.5s-61.5 6.5 -91.5 10.5v714c10 1.33301 22.667 2.83301 38 4.5s32 3.16699 50 4.5
s36.5 2.5 55.5 3.5s37.5 1.5 55.5 1.5zM237.001 145c4.66699 -0.666992 9.99902 -1 15.999 -1h19c26 0 50.5 3.16699 73.5 9.5s42.833 17.5 59.5 33.5s29.834 37.667 39.501 65s14.5 62.333 14.5 105c0 42 -5 77 -15 105s-23.167 50.167 -39.5 66.5s-35.5 28 -57.5 35
s-45 10.5 -69 10.5c-13.333 0 -23 -0.166992 -29 -0.5s-10 -0.5 -12 -0.5v-428zM320 774c-8.66699 0 -20.002 0.333008 -34.002 1s-26.333 2 -37 4l-127 123c8.66699 2.66699 19.667 4.5 33 5.5s26.666 1.5 39.999 1.5c12.667 0 25.334 -0.333008 38.001 -1
s25.334 -2.66699 38.001 -6l49 -48l49 48c12.667 3.33301 25.334 5.33301 38.001 6s25.334 1 38.001 1c13.333 0 26.666 -0.5 39.999 -1.5s24.333 -2.83301 33 -5.5l-127 -123c-10.667 -2 -23 -3.33301 -37 -4s-25.333 -1 -34 -1z" />
    <glyph glyph-name="dcaron" unicode="&#x10f;" horiz-adv-x="568" 
d="M233 529c54 0 100.169 -6.33301 138.502 -19s69.833 -30.5 94.5 -53.5s42.667 -50.833 54 -83.5s17 -69 17 -109c0 -42 -5.83301 -80 -17.5 -114s-30 -63 -55 -87s-57.333 -42.5 -97 -55.5s-87.5 -19.5 -143.5 -19.5c-32.667 0 -61.834 1.16699 -87.501 3.5
s-52.5 5.5 -80.5 9.5v514c28 3.33301 57.667 6.5 89 9.5s60.666 4.5 87.999 4.5zM225.002 131c2.66699 0 6.16797 -0.333008 10.501 -1s10.833 -1 19.5 -1c37.333 0 65.166 10.5 83.499 31.5s27.5 55.5 27.5 103.5c0 42.667 -9 73.834 -27 93.501s-43.667 29.5 -77 29.5
c-8 0 -15.333 -0.333008 -22 -1s-11.667 -1.33398 -15 -2.00098v-253zM288.003 579c-8.66699 0 -20.002 0.333008 -34.002 1s-26.333 2 -37 4l-127 123c8.66699 2.66699 19.667 4.5 33 5.5s26.666 1.5 39.999 1.5c12.667 0 25.334 -0.333008 38.001 -1
s25.334 -2.66699 38.001 -6l49 -48l49 48c12.667 3.33301 25.334 5.33301 38.001 6s25.334 1 38.001 1c13.333 0 26.666 -0.5 39.999 -1.5s24.333 -2.83301 33 -5.5l-127 -123c-10.667 -2 -23 -3.33301 -37 -4s-25.333 -1 -34 -1z" />
    <glyph glyph-name="Dcroat" unicode="&#x110;" horiz-adv-x="685" 
d="M-2 363c0 16.667 3.00098 35 9.00098 55h53v299c10 1.33301 22.667 2.83301 38 4.5s32 3.16699 50 4.5s36.5 2.5 55.5 3.5s37.5 1.5 55.5 1.5c126 0 221.667 -31.5 287 -94.5s98 -156.833 98 -281.5c0 -126.667 -33.333 -219.5 -100 -278.5
s-165.334 -88.5 -296.001 -88.5c-33.333 0 -65.5 1.5 -96.5 4.5s-61.5 6.5 -91.5 10.5v306h-53c-6 20 -9 38 -9 54zM237.001 418h92.999c3.33301 -10 5.5 -19.5 6.5 -28.5s1.5 -17.5 1.5 -25.5s-0.5 -16.667 -1.5 -26s-3.16699 -19 -6.5 -29h-93v-164
c4.66699 -0.666992 10 -1 16 -1h19c26 0 50.5 3.16699 73.5 9.5s42.833 17.5 59.5 33.5s29.834 37.667 39.501 65s14.5 62.333 14.5 105c0 42 -5 77 -15 105s-23.167 50.167 -39.5 66.5s-35.5 28 -57.5 35s-45 10.5 -69 10.5c-13.333 0 -23 -0.166992 -29 -0.5
s-10 -0.5 -12 -0.5v-155z" />
    <glyph glyph-name="dcroat" unicode="&#x111;" horiz-adv-x="568" 
d="M233 529c54 0 100.169 -6.33301 138.502 -19s69.833 -30.5 94.5 -53.5s42.667 -50.833 54 -83.5s17 -69 17 -109c0 -42 -5.83301 -80 -17.5 -114s-30 -63 -55 -87s-57.333 -42.5 -97 -55.5s-87.5 -19.5 -143.5 -19.5c-32.667 0 -61.834 1.16699 -87.501 3.5
s-52.5 5.5 -80.5 9.5v218h-46c-3.33301 8 -5.33301 16.333 -6 25s-1 16 -1 22c0 5.33301 0.333008 12.333 1 21s2.66699 17 6 25h46v203c28 3.33301 57.667 6.5 89 9.5s60.666 4.5 87.999 4.5zM225.002 312h61.001c3.33301 -8 5.33301 -16.333 6 -25s1 -15.667 1 -21
c0 -6 -0.333008 -13.333 -1 -22s-2.66699 -17 -6 -25h-61v-88c2.66699 0 6.16699 -0.333008 10.5 -1s10.833 -1 19.5 -1c37.333 0 65.166 10.5 83.499 31.5s27.5 55.5 27.5 103.5c0 42.667 -9 73.834 -27 93.501s-43.667 29.5 -77 29.5c-8 0 -15.333 -0.333008 -22 -1
s-11.667 -1.33398 -15 -2.00098v-72z" />
    <glyph glyph-name="Emacron" unicode="&#x112;" horiz-adv-x="527" 
d="M439 375c0 -23.333 -3 -49.332 -9 -77.999h-193v-142h251c6 -28 9 -53.333 9 -76c0 -24.667 -3 -51 -9 -79h-428v719h422c2.66699 -14.667 4.66699 -28.334 6 -41.001s2 -24.667 2 -36c0 -22 -2.66699 -48.333 -8 -79h-245v-110h193c6 -29.333 9 -55.333 9 -78z
M421 908.001c4.66699 -18 7 -36.6689 7 -56.002c0 -8 -0.5 -17 -1.5 -27s-2.83301 -19.667 -5.5 -29h-302c-2.66699 9.33301 -4.5 18.833 -5.5 28.5s-1.5 18.834 -1.5 27.501s0.5 17.834 1.5 27.501s2.83301 19.167 5.5 28.5h302z" />
    <glyph glyph-name="emacron" unicode="&#x113;" horiz-adv-x="538" 
d="M201 205c7.33301 -27.333 20.168 -46.6689 38.501 -58.002s42.5 -17 72.5 -17c19.333 0 41 2.33301 65 7s47.667 11.667 71 21c9.33301 -17.333 17.5 -38 24.5 -62s10.833 -49 11.5 -75c-59.333 -22 -120 -33 -182 -33c-48 0 -89.167 6.66699 -123.5 20
s-62.333 31.833 -84 55.5s-37.667 51.834 -48 84.501s-15.5 68.334 -15.5 107.001c0 38 5.33301 73.667 16 107s26.667 62.333 48 87s48 44.167 80 58.5s69.333 21.5 112 21.5c35.333 0 66.833 -6 94.5 -18s51.167 -28.5 70.5 -49.5s34.166 -46.333 44.499 -76
s15.5 -61.834 15.5 -96.501c0 -18 -0.833008 -34.167 -2.5 -48.5s-3.16699 -26.166 -4.5 -35.499h-304zM281.002 401.997c-21.333 0 -39.667 -6.66699 -55 -20s-24.333 -34 -27 -62h160c-1.33301 23.333 -8.5 42.833 -21.5 58.5s-31.833 23.5 -56.5 23.5zM434.001 712.997
c4.66699 -18 7 -36.6689 7 -56.002c0 -8 -0.5 -17 -1.5 -27s-2.83301 -19.667 -5.5 -29h-302c-2.66699 9.33301 -4.5 18.833 -5.5 28.5s-1.5 18.834 -1.5 27.501s0.5 17.834 1.5 27.501s2.83301 19.167 5.5 28.5h302z" />
    <glyph glyph-name="Ebreve" unicode="&#x114;" horiz-adv-x="527" 
d="M439 375c0 -23.333 -3 -49.332 -9 -77.999h-193v-142h251c6 -28 9 -53.333 9 -76c0 -24.667 -3 -51 -9 -79h-428v719h422c2.66699 -14.667 4.66699 -28.334 6 -41.001s2 -24.667 2 -36c0 -22 -2.66699 -48.333 -8 -79h-245v-110h193c6 -29.333 9 -55.333 9 -78z
M273 853.001c19.333 0 33.333 4.33301 42 13s13.334 20.667 14.001 36c10 2 20.333 3.66699 31 5s22.334 2 35.001 2c13.333 0 26.166 -0.5 38.499 -1.5s22.5 -2.5 30.5 -4.5c-2.66699 -27.333 -10.334 -49.666 -23.001 -66.999s-28 -30.833 -46 -40.5
s-37.667 -16.334 -59 -20.001s-42.333 -5.5 -63 -5.5s-41.667 1.83301 -63 5.5s-41 10.334 -59 20.001s-33.333 23.167 -46 40.5s-20.334 39.666 -23.001 66.999c8 2 18.167 3.5 30.5 4.5s25.166 1.5 38.499 1.5c12.667 0 24.334 -0.666992 35.001 -2s21 -3 31 -5
c0.666992 -15.333 5.33398 -27.333 14.001 -36s22.667 -13 42 -13z" />
    <glyph glyph-name="ebreve" unicode="&#x115;" horiz-adv-x="538" 
d="M201 205c7.33301 -27.333 20.168 -46.6689 38.501 -58.002s42.5 -17 72.5 -17c19.333 0 41 2.33301 65 7s47.667 11.667 71 21c9.33301 -17.333 17.5 -38 24.5 -62s10.833 -49 11.5 -75c-59.333 -22 -120 -33 -182 -33c-48 0 -89.167 6.66699 -123.5 20
s-62.333 31.833 -84 55.5s-37.667 51.834 -48 84.501s-15.5 68.334 -15.5 107.001c0 38 5.33301 73.667 16 107s26.667 62.333 48 87s48 44.167 80 58.5s69.333 21.5 112 21.5c35.333 0 66.833 -6 94.5 -18s51.167 -28.5 70.5 -49.5s34.166 -46.333 44.499 -76
s15.5 -61.834 15.5 -96.501c0 -18 -0.833008 -34.167 -2.5 -48.5s-3.16699 -26.166 -4.5 -35.499h-304zM281.002 401.997c-21.333 0 -39.667 -6.66699 -55 -20s-24.333 -34 -27 -62h160c-1.33301 23.333 -8.5 42.833 -21.5 58.5s-31.833 23.5 -56.5 23.5zM283.001 657.997
c19.333 0 33.333 4.33301 42 13s13.334 20.667 14.001 36c10 2 20.333 3.66699 31 5s22.334 2 35.001 2c13.333 0 26.166 -0.5 38.499 -1.5s22.5 -2.5 30.5 -4.5c-2.66699 -27.333 -10.334 -49.666 -23.001 -66.999s-28 -30.833 -46 -40.5s-37.667 -16.334 -59 -20.001
s-42.333 -5.5 -63 -5.5s-41.667 1.83301 -63 5.5s-41 10.334 -59 20.001s-33.333 23.167 -46 40.5s-20.334 39.666 -23.001 66.999c8 2 18.167 3.5 30.5 4.5s25.166 1.5 38.499 1.5c12.667 0 24.334 -0.666992 35.001 -2s21 -3 31 -5
c0.666992 -15.333 5.33398 -27.333 14.001 -36s22.667 -13 42 -13z" />
    <glyph glyph-name="Edotaccent" unicode="&#x116;" horiz-adv-x="527" 
d="M439 375c0 -23.333 -3 -49.332 -9 -77.999h-193v-142h251c6 -28 9 -53.333 9 -76c0 -24.667 -3 -51 -9 -79h-428v719h422c2.66699 -14.667 4.66699 -28.334 6 -41.001s2 -24.667 2 -36c0 -22 -2.66699 -48.333 -8 -79h-245v-110h193c6 -29.333 9 -55.333 9 -78z
M195 845.001c0 10.667 0.833008 21.167 2.5 31.5l5.5 32.5c10 2 21.667 3.5 35 4.5s24.666 1.5 33.999 1.5s20.666 -0.5 33.999 -1.5s25.333 -2.5 36 -4.5l5.5 -32c1.66699 -10 2.5 -20.667 2.5 -32s-0.833008 -22 -2.5 -32l-5.5 -32c-10.667 -2 -22.667 -3.5 -36 -4.5
s-24.666 -1.5 -33.999 -1.5s-20.666 0.5 -33.999 1.5s-25 2.5 -35 4.5l-5.5 32.5c-1.66699 10.333 -2.5 20.833 -2.5 31.5z" />
    <glyph glyph-name="edotaccent" unicode="&#x117;" horiz-adv-x="538" 
d="M201 205c7.33301 -27.333 20.168 -46.6689 38.501 -58.002s42.5 -17 72.5 -17c19.333 0 41 2.33301 65 7s47.667 11.667 71 21c9.33301 -17.333 17.5 -38 24.5 -62s10.833 -49 11.5 -75c-59.333 -22 -120 -33 -182 -33c-48 0 -89.167 6.66699 -123.5 20
s-62.333 31.833 -84 55.5s-37.667 51.834 -48 84.501s-15.5 68.334 -15.5 107.001c0 38 5.33301 73.667 16 107s26.667 62.333 48 87s48 44.167 80 58.5s69.333 21.5 112 21.5c35.333 0 66.833 -6 94.5 -18s51.167 -28.5 70.5 -49.5s34.166 -46.333 44.499 -76
s15.5 -61.834 15.5 -96.501c0 -18 -0.833008 -34.167 -2.5 -48.5s-3.16699 -26.166 -4.5 -35.499h-304zM281.002 401.997c-21.333 0 -39.667 -6.66699 -55 -20s-24.333 -34 -27 -62h160c-1.33301 23.333 -8.5 42.833 -21.5 58.5s-31.833 23.5 -56.5 23.5zM210.001 649.997
c0 10.667 0.833008 21.167 2.5 31.5l5.5 32.5c10 2 21.667 3.5 35 4.5s24.666 1.5 33.999 1.5s20.666 -0.5 33.999 -1.5s25.333 -2.5 36 -4.5l5.5 -32c1.66699 -10 2.5 -20.667 2.5 -32s-0.833008 -22 -2.5 -32l-5.5 -32c-10.667 -2 -22.667 -3.5 -36 -4.5
s-24.666 -1.5 -33.999 -1.5s-20.666 0.5 -33.999 1.5s-25 2.5 -35 4.5l-5.5 32.5c-1.66699 10.333 -2.5 20.833 -2.5 31.5z" />
    <glyph glyph-name="Eogonek" unicode="&#x118;" horiz-adv-x="527" 
d="M439 375c0 -23.333 -3 -49.332 -9 -77.999h-193v-142h251c6 -28 9 -53.333 9 -76c0 -24.667 -3 -51 -9 -79h-428v719h422c2.66699 -14.667 4.66699 -28.334 6 -41.001s2 -24.667 2 -36c0 -22 -2.66699 -48.333 -8 -79h-245v-110h193c6 -29.333 9 -55.333 9 -78z
M491 26.001c-34 -20 -62.333 -40.833 -85 -62.5s-34 -46.5 -34 -74.5c0 -16 4.66699 -27.167 14 -33.5s20.333 -9.5 33 -9.5c8 0 16 1 24 3s13.667 3.66699 17 5c8 -10.667 13.833 -23.5 17.5 -38.5s5.5 -29.167 5.5 -42.5c-10 -4 -23.833 -7.5 -41.5 -10.5
s-37.167 -4.5 -58.5 -4.5c-17.333 0 -34 1.66699 -50 5s-30.5 9 -43.5 17s-23.333 18.667 -31 32s-11.5 30 -11.5 50c0 32 11.333 62.667 34 92s55 53.333 97 72h113z" />
    <glyph glyph-name="eogonek" unicode="&#x119;" horiz-adv-x="538" 
d="M201 205c7.33301 -27.333 20.168 -46.6689 38.501 -58.002s42.5 -17 72.5 -17c19.333 0 41 2.33301 65 7s47.667 11.667 71 21c9.33301 -17.333 17.5 -38 24.5 -62s10.833 -49 11.5 -75c-59.333 -22 -120 -33 -182 -33c-48 0 -89.167 6.66699 -123.5 20
s-62.333 31.833 -84 55.5s-37.667 51.834 -48 84.501s-15.5 68.334 -15.5 107.001c0 38 5.33301 73.667 16 107s26.667 62.333 48 87s48 44.167 80 58.5s69.333 21.5 112 21.5c35.333 0 66.833 -6 94.5 -18s51.167 -28.5 70.5 -49.5s34.166 -46.333 44.499 -76
s15.5 -61.834 15.5 -96.501c0 -18 -0.833008 -34.167 -2.5 -48.5s-3.16699 -26.166 -4.5 -35.499h-304zM281.002 401.997c-21.333 0 -39.667 -6.66699 -55 -20s-24.333 -34 -27 -62h160c-1.33301 23.333 -8.5 42.833 -21.5 58.5s-31.833 23.5 -56.5 23.5zM483.001 25.9971
c-34 -20 -62.333 -40.833 -85 -62.5s-34 -46.5 -34 -74.5c0 -16 4.66699 -27.167 14 -33.5s20.333 -9.5 33 -9.5c8 0 16 1 24 3s13.667 3.66699 17 5c8 -10.667 13.833 -23.5 17.5 -38.5s5.5 -29.167 5.5 -42.5c-10 -4 -23.833 -7.5 -41.5 -10.5s-37.167 -4.5 -58.5 -4.5
c-17.333 0 -34 1.66699 -50 5s-30.5 9 -43.5 17s-23.333 18.667 -31 32s-11.5 30 -11.5 50c0 32 11.333 62.667 34 92s55 53.333 97 72h113z" />
    <glyph glyph-name="Ecaron" unicode="&#x11a;" horiz-adv-x="527" 
d="M439 375c0 -23.333 -3 -49.332 -9 -77.999h-193v-142h251c6 -28 9 -53.333 9 -76c0 -24.667 -3 -51 -9 -79h-428v719h422c2.66699 -14.667 4.66699 -28.334 6 -41.001s2 -24.667 2 -36c0 -22 -2.66699 -48.333 -8 -79h-245v-110h193c6 -29.333 9 -55.333 9 -78z
M278 774.001c-8.66699 0 -20.002 0.333008 -34.002 1s-26.333 2 -37 4l-127 123c8.66699 2.66699 19.667 4.5 33 5.5s26.666 1.5 39.999 1.5c12.667 0 25.334 -0.333008 38.001 -1s25.334 -2.66699 38.001 -6l49 -48l49 48c12.667 3.33301 25.334 5.33301 38.001 6
s25.334 1 38.001 1c13.333 0 26.666 -0.5 39.999 -1.5s24.333 -2.83301 33 -5.5l-127 -123c-10.667 -2 -23 -3.33301 -37 -4s-25.333 -1 -34 -1z" />
    <glyph glyph-name="ecaron" unicode="&#x11b;" horiz-adv-x="538" 
d="M201 205c7.33301 -27.333 20.168 -46.6689 38.501 -58.002s42.5 -17 72.5 -17c19.333 0 41 2.33301 65 7s47.667 11.667 71 21c9.33301 -17.333 17.5 -38 24.5 -62s10.833 -49 11.5 -75c-59.333 -22 -120 -33 -182 -33c-48 0 -89.167 6.66699 -123.5 20
s-62.333 31.833 -84 55.5s-37.667 51.834 -48 84.501s-15.5 68.334 -15.5 107.001c0 38 5.33301 73.667 16 107s26.667 62.333 48 87s48 44.167 80 58.5s69.333 21.5 112 21.5c35.333 0 66.833 -6 94.5 -18s51.167 -28.5 70.5 -49.5s34.166 -46.333 44.499 -76
s15.5 -61.834 15.5 -96.501c0 -18 -0.833008 -34.167 -2.5 -48.5s-3.16699 -26.166 -4.5 -35.499h-304zM281.002 401.997c-21.333 0 -39.667 -6.66699 -55 -20s-24.333 -34 -27 -62h160c-1.33301 23.333 -8.5 42.833 -21.5 58.5s-31.833 23.5 -56.5 23.5zM310.001 578.997
c-8.66699 0 -20.002 0.333008 -34.002 1s-26.333 2 -37 4l-127 123c8.66699 2.66699 19.667 4.5 33 5.5s26.666 1.5 39.999 1.5c12.667 0 25.334 -0.333008 38.001 -1s25.334 -2.66699 38.001 -6l49 -48l49 48c12.667 3.33301 25.334 5.33301 38.001 6s25.334 1 38.001 1
c13.333 0 26.666 -0.5 39.999 -1.5s24.333 -2.83301 33 -5.5l-127 -123c-10.667 -2 -23 -3.33301 -37 -4s-25.333 -1 -34 -1z" />
    <glyph glyph-name="Gcircumflex" unicode="&#x11c;" horiz-adv-x="659" 
d="M434 389c18 2.66699 33.998 4.66992 47.998 6.00293s27 2 39 2c11.333 0 25 -0.666992 41 -2s31.667 -3.33301 47 -6v-364c-39.333 -14.667 -78.166 -24.334 -116.499 -29.001s-71.166 -7 -98.499 -7c-58.667 0 -110 9.16699 -154 27.5s-80.833 43.833 -110.5 76.5
s-51.834 71.667 -66.501 117s-22 94.666 -22 147.999s7.66699 102.833 23 148.5s37.5 85.167 66.5 118.5s64.833 59.333 107.5 78s91 28 145 28c32 0 62.5 -2.33301 91.5 -7s60.833 -14.334 95.5 -29.001c-1.33301 -27.333 -6.33301 -54 -15 -80s-17.667 -48 -27 -66
c-13.333 4.66699 -25.5 8.66699 -36.5 12s-21.5 6 -31.5 8s-20 3.5 -30 4.5s-20.667 1.5 -32 1.5c-54 0 -95.667 -18.167 -125 -54.5s-44 -90.5 -44 -162.5c0 -71.333 14.333 -124.5 43 -159.5s71.334 -52.5 128.001 -52.5c12.667 0 24 1 34 3v240zM368.998 909.003
c8.66699 0 20.002 -0.333008 34.002 -1s26.333 -2 37 -4l127 -123c-8.66699 -2.66699 -19.667 -4.5 -33 -5.5s-26.666 -1.5 -39.999 -1.5c-12.667 0 -25.334 0.333008 -38.001 1s-25.334 2.66699 -38.001 6l-49 48l-49 -48c-12.667 -3.33301 -25.334 -5.33301 -38.001 -6
s-25.334 -1 -38.001 -1c-13.333 0 -26.666 0.5 -39.999 1.5s-24.333 2.83301 -33 5.5l127 123c10.667 2 23 3.33301 37 4s25.333 1 34 1z" />
    <glyph glyph-name="gcircumflex" unicode="&#x11d;" horiz-adv-x="536" 
d="M297 -12c-48 0 -88.834 7.16797 -122.501 21.501s-61.167 33.833 -82.5 58.5s-36.833 53.667 -46.5 87s-14.5 69 -14.5 107c0 36.667 5.83301 71.334 17.5 104.001s29 61 52 85s51.5 43 85.5 57s73.333 21 118 21c23.333 0 49 -2.66699 77 -8s58.667 -14.666 92 -27.999
c-0.666992 -11.333 -2 -22 -4 -32s-4.5 -20.167 -7.5 -30.5s-6.66699 -21.333 -11 -33s-9.5 -24.834 -15.5 -39.501c-22.667 9.33301 -43.667 16.166 -63 20.499s-36 6.5 -50 6.5c-22 0 -40.667 -3.33301 -56 -10s-27.666 -15.667 -36.999 -27s-16.166 -24.5 -20.499 -39.5
s-6.5 -30.5 -6.5 -46.5c0 -44.667 9.66699 -77.5 29 -98.5s47.666 -31.5 84.999 -31.5h18v147c16.667 3.33301 31.5 5.66602 44.5 6.99902s25.5 2 37.5 2c23.333 0 51 -3 83 -9v-254c-19.333 -7.33301 -46.333 -15.333 -81 -24s-75 -13 -121 -13zM285.999 714.001
c8.66699 0 20.002 -0.333008 34.002 -1s26.333 -2 37 -4l127 -123c-8.66699 -2.66699 -19.667 -4.5 -33 -5.5s-26.666 -1.5 -39.999 -1.5c-12.667 0 -25.334 0.333008 -38.001 1s-25.334 2.66699 -38.001 6l-49 48l-49 -48c-12.667 -3.33301 -25.334 -5.33301 -38.001 -6
s-25.334 -1 -38.001 -1c-13.333 0 -26.666 0.5 -39.999 1.5s-24.333 2.83301 -33 5.5l127 123c10.667 2 23 3.33301 37 4s25.333 1 34 1z" />
    <glyph glyph-name="Gbreve" unicode="&#x11e;" horiz-adv-x="659" 
d="M434 389c18 2.66699 33.998 4.66992 47.998 6.00293s27 2 39 2c11.333 0 25 -0.666992 41 -2s31.667 -3.33301 47 -6v-364c-39.333 -14.667 -78.166 -24.334 -116.499 -29.001s-71.166 -7 -98.499 -7c-58.667 0 -110 9.16699 -154 27.5s-80.833 43.833 -110.5 76.5
s-51.834 71.667 -66.501 117s-22 94.666 -22 147.999s7.66699 102.833 23 148.5s37.5 85.167 66.5 118.5s64.833 59.333 107.5 78s91 28 145 28c32 0 62.5 -2.33301 91.5 -7s60.833 -14.334 95.5 -29.001c-1.33301 -27.333 -6.33301 -54 -15 -80s-17.667 -48 -27 -66
c-13.333 4.66699 -25.5 8.66699 -36.5 12s-21.5 6 -31.5 8s-20 3.5 -30 4.5s-20.667 1.5 -32 1.5c-54 0 -95.667 -18.167 -125 -54.5s-44 -90.5 -44 -162.5c0 -71.333 14.333 -124.5 43 -159.5s71.334 -52.5 128.001 -52.5c12.667 0 24 1 34 3v240zM368.998 853.003
c19.333 0 33.333 4.33301 42 13s13.334 20.667 14.001 36c10 2 20.333 3.66699 31 5s22.334 2 35.001 2c13.333 0 26.166 -0.5 38.499 -1.5s22.5 -2.5 30.5 -4.5c-2.66699 -27.333 -10.334 -49.666 -23.001 -66.999s-28 -30.833 -46 -40.5s-37.667 -16.334 -59 -20.001
s-42.333 -5.5 -63 -5.5s-41.667 1.83301 -63 5.5s-41 10.334 -59 20.001s-33.333 23.167 -46 40.5s-20.334 39.666 -23.001 66.999c8 2 18.167 3.5 30.5 4.5s25.166 1.5 38.499 1.5c12.667 0 24.334 -0.666992 35.001 -2s21 -3 31 -5
c0.666992 -15.333 5.33398 -27.333 14.001 -36s22.667 -13 42 -13z" />
    <glyph glyph-name="gbreve" unicode="&#x11f;" horiz-adv-x="536" 
d="M297 -12c-48 0 -88.834 7.16797 -122.501 21.501s-61.167 33.833 -82.5 58.5s-36.833 53.667 -46.5 87s-14.5 69 -14.5 107c0 36.667 5.83301 71.334 17.5 104.001s29 61 52 85s51.5 43 85.5 57s73.333 21 118 21c23.333 0 49 -2.66699 77 -8s58.667 -14.666 92 -27.999
c-0.666992 -11.333 -2 -22 -4 -32s-4.5 -20.167 -7.5 -30.5s-6.66699 -21.333 -11 -33s-9.5 -24.834 -15.5 -39.501c-22.667 9.33301 -43.667 16.166 -63 20.499s-36 6.5 -50 6.5c-22 0 -40.667 -3.33301 -56 -10s-27.666 -15.667 -36.999 -27s-16.166 -24.5 -20.499 -39.5
s-6.5 -30.5 -6.5 -46.5c0 -44.667 9.66699 -77.5 29 -98.5s47.666 -31.5 84.999 -31.5h18v147c16.667 3.33301 31.5 5.66602 44.5 6.99902s25.5 2 37.5 2c23.333 0 51 -3 83 -9v-254c-19.333 -7.33301 -46.333 -15.333 -81 -24s-75 -13 -121 -13zM283.999 658.001
c19.333 0 33.333 4.33301 42 13s13.334 20.667 14.001 36c10 2 20.333 3.66699 31 5s22.334 2 35.001 2c13.333 0 26.166 -0.5 38.499 -1.5s22.5 -2.5 30.5 -4.5c-2.66699 -27.333 -10.334 -49.666 -23.001 -66.999s-28 -30.833 -46 -40.5s-37.667 -16.334 -59 -20.001
s-42.333 -5.5 -63 -5.5s-41.667 1.83301 -63 5.5s-41 10.334 -59 20.001s-33.333 23.167 -46 40.5s-20.334 39.666 -23.001 66.999c8 2 18.167 3.5 30.5 4.5s25.166 1.5 38.499 1.5c12.667 0 24.334 -0.666992 35.001 -2s21 -3 31 -5
c0.666992 -15.333 5.33398 -27.333 14.001 -36s22.667 -13 42 -13z" />
    <glyph glyph-name="Gdotaccent" unicode="&#x120;" horiz-adv-x="659" 
d="M434 389c18 2.66699 33.998 4.66992 47.998 6.00293s27 2 39 2c11.333 0 25 -0.666992 41 -2s31.667 -3.33301 47 -6v-364c-39.333 -14.667 -78.166 -24.334 -116.499 -29.001s-71.166 -7 -98.499 -7c-58.667 0 -110 9.16699 -154 27.5s-80.833 43.833 -110.5 76.5
s-51.834 71.667 -66.501 117s-22 94.666 -22 147.999s7.66699 102.833 23 148.5s37.5 85.167 66.5 118.5s64.833 59.333 107.5 78s91 28 145 28c32 0 62.5 -2.33301 91.5 -7s60.833 -14.334 95.5 -29.001c-1.33301 -27.333 -6.33301 -54 -15 -80s-17.667 -48 -27 -66
c-13.333 4.66699 -25.5 8.66699 -36.5 12s-21.5 6 -31.5 8s-20 3.5 -30 4.5s-20.667 1.5 -32 1.5c-54 0 -95.667 -18.167 -125 -54.5s-44 -90.5 -44 -162.5c0 -71.333 14.333 -124.5 43 -159.5s71.334 -52.5 128.001 -52.5c12.667 0 24 1 34 3v240zM290.998 845.003
c0 10.667 0.833008 21.167 2.5 31.5l5.5 32.5c10 2 21.667 3.5 35 4.5s24.666 1.5 33.999 1.5s20.666 -0.5 33.999 -1.5s25.333 -2.5 36 -4.5l5.5 -32c1.66699 -10 2.5 -20.667 2.5 -32s-0.833008 -22 -2.5 -32l-5.5 -32c-10.667 -2 -22.667 -3.5 -36 -4.5
s-24.666 -1.5 -33.999 -1.5s-20.666 0.5 -33.999 1.5s-25 2.5 -35 4.5l-5.5 32.5c-1.66699 10.333 -2.5 20.833 -2.5 31.5z" />
    <glyph glyph-name="gdotaccent" unicode="&#x121;" horiz-adv-x="536" 
d="M297 -12c-48 0 -88.834 7.16797 -122.501 21.501s-61.167 33.833 -82.5 58.5s-36.833 53.667 -46.5 87s-14.5 69 -14.5 107c0 36.667 5.83301 71.334 17.5 104.001s29 61 52 85s51.5 43 85.5 57s73.333 21 118 21c23.333 0 49 -2.66699 77 -8s58.667 -14.666 92 -27.999
c-0.666992 -11.333 -2 -22 -4 -32s-4.5 -20.167 -7.5 -30.5s-6.66699 -21.333 -11 -33s-9.5 -24.834 -15.5 -39.501c-22.667 9.33301 -43.667 16.166 -63 20.499s-36 6.5 -50 6.5c-22 0 -40.667 -3.33301 -56 -10s-27.666 -15.667 -36.999 -27s-16.166 -24.5 -20.499 -39.5
s-6.5 -30.5 -6.5 -46.5c0 -44.667 9.66699 -77.5 29 -98.5s47.666 -31.5 84.999 -31.5h18v147c16.667 3.33301 31.5 5.66602 44.5 6.99902s25.5 2 37.5 2c23.333 0 51 -3 83 -9v-254c-19.333 -7.33301 -46.333 -15.333 -81 -24s-75 -13 -121 -13zM225.999 650.001
c0 10.667 0.833008 21.167 2.5 31.5l5.5 32.5c10 2 21.667 3.5 35 4.5s24.666 1.5 33.999 1.5s20.666 -0.5 33.999 -1.5s25.333 -2.5 36 -4.5l5.5 -32c1.66699 -10 2.5 -20.667 2.5 -32s-0.833008 -22 -2.5 -32l-5.5 -32c-10.667 -2 -22.667 -3.5 -36 -4.5
s-24.666 -1.5 -33.999 -1.5s-20.666 0.5 -33.999 1.5s-25 2.5 -35 4.5l-5.5 32.5c-1.66699 10.333 -2.5 20.833 -2.5 31.5z" />
    <glyph glyph-name="Gcommaaccent" unicode="&#x122;" horiz-adv-x="659" 
d="M434 389c18 2.66699 33.998 4.66992 47.998 6.00293s27 2 39 2c11.333 0 25 -0.666992 41 -2s31.667 -3.33301 47 -6v-364c-39.333 -14.667 -78.166 -24.334 -116.499 -29.001s-71.166 -7 -98.499 -7c-58.667 0 -110 9.16699 -154 27.5s-80.833 43.833 -110.5 76.5
s-51.834 71.667 -66.501 117s-22 94.666 -22 147.999s7.66699 102.833 23 148.5s37.5 85.167 66.5 118.5s64.833 59.333 107.5 78s91 28 145 28c32 0 62.5 -2.33301 91.5 -7s60.833 -14.334 95.5 -29.001c-1.33301 -27.333 -6.33301 -54 -15 -80s-17.667 -48 -27 -66
c-13.333 4.66699 -25.5 8.66699 -36.5 12s-21.5 6 -31.5 8s-20 3.5 -30 4.5s-20.667 1.5 -32 1.5c-54 0 -95.667 -18.167 -125 -54.5s-44 -90.5 -44 -162.5c0 -71.333 14.333 -124.5 43 -159.5s71.334 -52.5 128.001 -52.5c12.667 0 24 1 34 3v240zM304.998 -67.9971
c22.667 4.66699 46.999 7 72.999 7c12 0 24.333 -0.5 37 -1.5s25.334 -2.83301 38.001 -5.5l-71 -168c-19.333 -4.66699 -39 -7 -59 -7s-41.667 2.33301 -65 7z" />
    <glyph glyph-name="gcommaaccent" unicode="&#x123;" horiz-adv-x="536" 
d="M297 -12c-48 0 -88.834 7.16797 -122.501 21.501s-61.167 33.833 -82.5 58.5s-36.833 53.667 -46.5 87s-14.5 69 -14.5 107c0 36.667 5.83301 71.334 17.5 104.001s29 61 52 85s51.5 43 85.5 57s73.333 21 118 21c23.333 0 49 -2.66699 77 -8s58.667 -14.666 92 -27.999
c-0.666992 -11.333 -2 -22 -4 -32s-4.5 -20.167 -7.5 -30.5s-6.66699 -21.333 -11 -33s-9.5 -24.834 -15.5 -39.501c-22.667 9.33301 -43.667 16.166 -63 20.499s-36 6.5 -50 6.5c-22 0 -40.667 -3.33301 -56 -10s-27.666 -15.667 -36.999 -27s-16.166 -24.5 -20.499 -39.5
s-6.5 -30.5 -6.5 -46.5c0 -44.667 9.66699 -77.5 29 -98.5s47.666 -31.5 84.999 -31.5h18v147c16.667 3.33301 31.5 5.66602 44.5 6.99902s25.5 2 37.5 2c23.333 0 51 -3 83 -9v-254c-19.333 -7.33301 -46.333 -15.333 -81 -24s-75 -13 -121 -13zM374.999 587.001
c-12 -2.66699 -24.332 -4.5 -36.999 -5.5s-25.334 -1.5 -38.001 -1.5c-13.333 0 -26.5 0.5 -39.5 1.5s-26.167 2.83301 -39.5 5.5l73 148c21.333 4.66699 42.333 7 63 7c10 0 20.333 -0.5 31 -1.5s22.667 -2.83301 36 -5.5z" />
    <glyph glyph-name="Hcircumflex" unicode="&#x124;" horiz-adv-x="651" 
d="M503 -6c-24.667 0 -54.334 3 -89.001 9v292h-177v-292c-35.333 -6 -64.666 -9 -87.999 -9c-24.667 0 -54.334 3 -89.001 9v714c18 2.66699 34.333 4.66699 49 6s27.667 2 39 2c12 0 25.5 -0.666992 40.5 -2s31.167 -3.33301 48.5 -6v-265h177v265
c18 2.66699 34.167 4.66699 48.5 6s27.5 2 39.5 2s25.5 -0.666992 40.5 -2s31.167 -3.33301 48.5 -6v-714c-35.333 -6 -64.666 -9 -87.999 -9zM325 909c8.66699 0 20.002 -0.333008 34.002 -1s26.333 -2 37 -4l127 -123c-8.66699 -2.66699 -19.667 -4.5 -33 -5.5
s-26.666 -1.5 -39.999 -1.5c-12.667 0 -25.334 0.333008 -38.001 1s-25.334 2.66699 -38.001 6l-49 48l-49 -48c-12.667 -3.33301 -25.334 -5.33301 -38.001 -6s-25.334 -1 -38.001 -1c-13.333 0 -26.666 0.5 -39.999 1.5s-24.333 2.83301 -33 5.5l127 123
c10.667 2 23 3.33301 37 4s25.333 1 34 1z" />
    <glyph glyph-name="hcircumflex" unicode="&#x125;" horiz-adv-x="598" 
d="M373 191h-148v-190c-17.333 -2.66699 -33 -4.66699 -47 -6s-26.667 -2 -38 -2s-24 0.666992 -38 2s-29.333 3.33301 -46 6v516c14.667 3.33301 29.167 5.66602 43.5 6.99902s28.166 2 41.499 2c12.667 0 26.334 -0.666992 41.001 -2s29 -3.66602 43 -6.99902v-176h148
v176c14.667 3.33301 29.167 5.66602 43.5 6.99902s28.166 2 41.499 2c12.667 0 26.334 -0.666992 41.001 -2s29 -3.66602 43 -6.99902v-516c-17.333 -2.66699 -33 -4.66699 -47 -6s-26.667 -2 -38 -2s-24 0.666992 -38 2s-29.333 3.33301 -46 6v190zM299 714
c8.66699 0 20.002 -0.333008 34.002 -1s26.333 -2 37 -4l127 -123c-8.66699 -2.66699 -19.667 -4.5 -33 -5.5s-26.666 -1.5 -39.999 -1.5c-12.667 0 -25.334 0.333008 -38.001 1s-25.334 2.66699 -38.001 6l-49 48l-49 -48c-12.667 -3.33301 -25.334 -5.33301 -38.001 -6
s-25.334 -1 -38.001 -1c-13.333 0 -26.666 0.5 -39.999 1.5s-24.333 2.83301 -33 5.5l127 123c10.667 2 23 3.33301 37 4s25.333 1 34 1z" />
    <glyph glyph-name="Hbar" unicode="&#x126;" horiz-adv-x="651" 
d="M0 568c0 16.667 3 33.999 9 51.999h51v97c18 2.66699 34.333 4.66699 49 6s27.667 2 39 2c12 0 25.5 -0.666992 40.5 -2s31.167 -3.33301 48.5 -6v-97h177v97c18 2.66699 34.167 4.66699 48.5 6s27.5 2 39.5 2s25.5 -0.666992 40.5 -2s31.167 -3.33301 48.5 -6v-97h52
c3.33301 -9.33301 5.5 -18.166 6.5 -26.499s1.5 -16.5 1.5 -24.5s-0.5 -16.333 -1.5 -25s-3.16699 -17.667 -6.5 -27h-52v-514c-35.333 -6 -64.666 -9 -87.999 -9c-24.667 0 -54.334 3 -89.001 9v282h-177v-282c-35.333 -6 -64.666 -9 -87.999 -9
c-24.667 0 -54.334 3 -89.001 9v514h-51c-6 18 -9 35 -9 51zM414 431.999v85h-177v-85h177z" />
    <glyph glyph-name="hbar" unicode="&#x127;" horiz-adv-x="598" 
d="M542 362v-361c-17.333 -2.66699 -33 -4.66699 -47 -6s-26.667 -2 -38 -2s-24 0.666992 -38 2s-29.333 3.33301 -46 6v190h-148v-190c-17.333 -2.66699 -33 -4.66699 -47 -6s-26.667 -2 -38 -2s-24 0.666992 -38 2s-29.333 3.33301 -46 6v361h-43
c-3.33301 8 -5.33301 15.833 -6 23.5s-1 14.5 -1 20.5c0 5.33301 0.333008 11.833 1 19.5s2.66699 15.5 6 23.5h43v68c14.667 3.33301 29.167 5.66602 43.5 6.99902s28.166 2 41.499 2c12.667 0 26.334 -0.666992 41.001 -2s29 -3.66602 43 -6.99902v-68h148v68
c14.667 3.33301 29.167 5.66602 43.5 6.99902s28.166 2 41.499 2c12.667 0 26.334 -0.666992 41.001 -2s29 -3.66602 43 -6.99902v-68h43c3.33301 -8 5.33301 -15.833 6 -23.5s1 -14.167 1 -19.5c0 -6 -0.333008 -12.833 -1 -20.5s-2.66699 -15.5 -6 -23.5h-43zM373 311v51
h-148v-51h148z" />
    <glyph glyph-name="Itilde" unicode="&#x128;" horiz-adv-x="297" 
d="M149 -6c-24.667 0 -54.334 3 -89.001 9v714c18 2.66699 34.333 4.66699 49 6s27.667 2 39 2c12 0 25.5 -0.666992 40.5 -2s31.167 -3.33301 48.5 -6v-714c-35.333 -6 -64.666 -9 -87.999 -9zM-42 870c12.667 14.667 28.8359 27.333 48.5029 38s42.167 16 67.5 16
c13.333 0 25.833 -1.83301 37.5 -5.5s23.834 -7.83398 36.501 -12.501c11.333 -4.66699 23.166 -8.83398 35.499 -12.501s25.166 -5.5 38.499 -5.5s25.166 1.83301 35.499 5.5s22.5 12.167 36.5 25.5c10.667 -11.333 19.834 -24.666 27.501 -39.999s13.834 -31 18.501 -47
c-12 -15.333 -28 -28.166 -48 -38.499s-41.667 -15.5 -65 -15.5c-14.667 0 -28.667 2 -42 6s-26 8 -38 12c-12.667 4.66699 -24.834 8.83398 -36.501 12.501s-23.5 5.5 -35.5 5.5c-13.333 0 -25.5 -2 -36.5 -6s-22.5 -12.333 -34.5 -25
c-10.667 11.333 -19.834 24.666 -27.501 39.999s-13.834 31 -18.501 47z" />
    <glyph glyph-name="itilde" unicode="&#x129;" horiz-adv-x="285" 
d="M-48 675c12.667 14.667 28.8359 27.333 48.5029 38s42.167 16 67.5 16c13.333 0 25.833 -1.83301 37.5 -5.5s23.834 -7.83398 36.501 -12.501c11.333 -4.66699 23.166 -8.83398 35.499 -12.501s25.166 -5.5 38.499 -5.5s25.166 1.83301 35.499 5.5s22.5 12.167 36.5 25.5
c10.667 -11.333 19.834 -24.666 27.501 -39.999s13.834 -31 18.501 -47c-12 -15.333 -28 -28.166 -48 -38.499s-41.667 -15.5 -65 -15.5c-14.667 0 -28.667 2 -42 6s-26 8 -38 12c-12.667 4.66699 -24.834 8.83398 -36.501 12.501s-23.5 5.5 -35.5 5.5
c-13.333 0 -25.5 -2 -36.5 -6s-22.5 -12.333 -34.5 -25c-10.667 11.333 -19.834 24.666 -27.501 39.999s-13.834 31 -18.501 47zM227.002 0.999023c-17.333 -2.66699 -33 -4.66699 -47 -6s-26.667 -2 -38 -2s-24 0.666992 -38 2s-29.333 3.33301 -46 6v516
c14.667 3.33301 29.167 5.66602 43.5 6.99902s28.166 2 41.499 2c12.667 0 26.334 -0.666992 41.001 -2s29 -3.66602 43 -6.99902v-516z" />
    <glyph glyph-name="Imacron" unicode="&#x12a;" horiz-adv-x="297" 
d="M149 -6c-24.667 0 -54.334 3 -89.001 9v714c18 2.66699 34.333 4.66699 49 6s27.667 2 39 2c12 0 25.5 -0.666992 40.5 -2s31.167 -3.33301 48.5 -6v-714c-35.333 -6 -64.666 -9 -87.999 -9zM300 908c4.66699 -18 7 -36.6689 7 -56.002c0 -8 -0.5 -17 -1.5 -27
s-2.83301 -19.667 -5.5 -29h-302c-2.66699 9.33301 -4.5 18.833 -5.5 28.5s-1.5 18.834 -1.5 27.501s0.5 17.834 1.5 27.501s2.83301 19.167 5.5 28.5h302z" />
    <glyph glyph-name="imacron" unicode="&#x12b;" horiz-adv-x="285" 
d="M294 713c4.66699 -18 7 -36.6689 7 -56.002c0 -8 -0.5 -17 -1.5 -27s-2.83301 -19.667 -5.5 -29h-302c-2.66699 9.33301 -4.5 18.833 -5.5 28.5s-1.5 18.834 -1.5 27.501s0.5 17.834 1.5 27.501s2.83301 19.167 5.5 28.5h302zM227 0.998047
c-17.333 -2.66699 -33 -4.66699 -47 -6s-26.667 -2 -38 -2s-24 0.666992 -38 2s-29.333 3.33301 -46 6v516c14.667 3.33301 29.167 5.66602 43.5 6.99902s28.166 2 41.499 2c12.667 0 26.334 -0.666992 41.001 -2s29 -3.66602 43 -6.99902v-516z" />
    <glyph glyph-name="Ibreve" unicode="&#x12c;" horiz-adv-x="297" 
d="M149 -6c-24.667 0 -54.334 3 -89.001 9v714c18 2.66699 34.333 4.66699 49 6s27.667 2 39 2c12 0 25.5 -0.666992 40.5 -2s31.167 -3.33301 48.5 -6v-714c-35.333 -6 -64.666 -9 -87.999 -9zM149 853c19.333 0 33.333 4.33301 42 13s13.334 20.667 14.001 36
c10 2 20.333 3.66699 31 5s22.334 2 35.001 2c13.333 0 26.166 -0.5 38.499 -1.5s22.5 -2.5 30.5 -4.5c-2.66699 -27.333 -10.334 -49.666 -23.001 -66.999s-28 -30.833 -46 -40.5s-37.667 -16.334 -59 -20.001s-42.333 -5.5 -63 -5.5s-41.667 1.83301 -63 5.5
s-41 10.334 -59 20.001s-33.333 23.167 -46 40.5s-20.334 39.666 -23.001 66.999c8 2 18.167 3.5 30.5 4.5s25.166 1.5 38.499 1.5c12.667 0 24.334 -0.666992 35.001 -2s21 -3 31 -5c0.666992 -15.333 5.33398 -27.333 14.001 -36s22.667 -13 42 -13z" />
    <glyph glyph-name="ibreve" unicode="&#x12d;" horiz-adv-x="285" 
d="M143 658c19.333 0 33.333 4.33301 42 13s13.334 20.667 14.001 36c10 2 20.333 3.66699 31 5s22.334 2 35.001 2c13.333 0 26.166 -0.5 38.499 -1.5s22.5 -2.5 30.5 -4.5c-2.66699 -27.333 -10.334 -49.666 -23.001 -66.999s-28 -30.833 -46 -40.5
s-37.667 -16.334 -59 -20.001s-42.333 -5.5 -63 -5.5s-41.667 1.83301 -63 5.5s-41 10.334 -59 20.001s-33.333 23.167 -46 40.5s-20.334 39.666 -23.001 66.999c8 2 18.167 3.5 30.5 4.5s25.166 1.5 38.499 1.5c12.667 0 24.334 -0.666992 35.001 -2s21 -3 31 -5
c0.666992 -15.333 5.33398 -27.333 14.001 -36s22.667 -13 42 -13zM227 1c-17.333 -2.66699 -33 -4.66699 -47 -6s-26.667 -2 -38 -2s-24 0.666992 -38 2s-29.333 3.33301 -46 6v516c14.667 3.33301 29.167 5.66602 43.5 6.99902s28.166 2 41.499 2
c12.667 0 26.334 -0.666992 41.001 -2s29 -3.66602 43 -6.99902v-516z" />
    <glyph glyph-name="Iogonek" unicode="&#x12e;" horiz-adv-x="297" 
d="M149 -6c-24.667 0 -54.334 3 -89.001 9v714c18 2.66699 34.333 4.66699 49 6s27.667 2 39 2c12 0 25.5 -0.666992 40.5 -2s31.167 -3.33301 48.5 -6v-714c-35.333 -6 -64.666 -9 -87.999 -9zM237 26c-34 -20 -62.333 -40.833 -85 -62.5s-34 -46.5 -34 -74.5
c0 -16 4.66699 -27.167 14 -33.5s20.333 -9.5 33 -9.5c8 0 16 1 24 3s13.667 3.66699 17 5c8 -10.667 13.833 -23.5 17.5 -38.5s5.5 -29.167 5.5 -42.5c-10 -4 -23.833 -7.5 -41.5 -10.5s-37.167 -4.5 -58.5 -4.5c-17.333 0 -34 1.66699 -50 5s-30.5 9 -43.5 17
s-23.333 18.667 -31 32s-11.5 30 -11.5 50c0 32 11.333 62.667 34 92s55 53.333 97 72h113z" />
    <glyph glyph-name="iogonek" unicode="&#x12f;" horiz-adv-x="281" 
d="M225 1c-17.333 -2.66699 -33 -4.66699 -47 -6s-26.667 -2 -38 -2s-24 0.666992 -38 2s-29.333 3.33301 -46 6v516c14.667 3.33301 29.167 5.66602 43.5 6.99902s28.166 2 41.499 2c12.667 0 26.334 -0.666992 41.001 -2s29 -3.66602 43 -6.99902v-516zM225 26
c-34 -20 -62.333 -40.833 -85 -62.5s-34 -46.5 -34 -74.5c0 -16 4.66699 -27.167 14 -33.5s20.333 -9.5 33 -9.5c8 0 16 1 24 3s13.667 3.66699 17 5c8 -10.667 13.833 -23.5 17.5 -38.5s5.5 -29.167 5.5 -42.5c-10 -4 -23.833 -7.5 -41.5 -10.5s-37.167 -4.5 -58.5 -4.5
c-17.333 0 -34 1.66699 -50 5s-30.5 9 -43.5 17s-23.333 18.667 -31 32s-11.5 30 -11.5 50c0 32 11.333 62.667 34 92s55 53.333 97 72h113z" />
    <glyph glyph-name="Idotaccent" unicode="&#x130;" horiz-adv-x="297" 
d="M149 -6c-24.667 0 -54.334 3 -89.001 9v714c18 2.66699 34.333 4.66699 49 6s27.667 2 39 2c12 0 25.5 -0.666992 40.5 -2s31.167 -3.33301 48.5 -6v-714c-35.333 -6 -64.666 -9 -87.999 -9zM71 845c0 10.667 0.833008 21.167 2.5 31.5l5.5 32.5c10 2 21.667 3.5 35 4.5
s24.666 1.5 33.999 1.5s20.666 -0.5 33.999 -1.5s25.333 -2.5 36 -4.5l5.5 -32c1.66699 -10 2.5 -20.667 2.5 -32s-0.833008 -22 -2.5 -32l-5.5 -32c-10.667 -2 -22.667 -3.5 -36 -4.5s-24.666 -1.5 -33.999 -1.5s-20.666 0.5 -33.999 1.5s-25 2.5 -35 4.5l-5.5 32.5
c-1.66699 10.333 -2.5 20.833 -2.5 31.5z" />
    <glyph glyph-name="IJ" unicode="&#x132;" horiz-adv-x="708" 
d="M149 -6c-24.667 0 -54.334 3 -89.001 9v714c18 2.66699 34.333 4.66699 49 6s27.667 2 39 2c12 0 25.5 -0.666992 40.5 -2s31.167 -3.33301 48.5 -6v-714c-35.333 -6 -64.666 -9 -87.999 -9zM332 152c6 -1.33301 14.999 -2.99805 26.999 -4.99805s24.667 -3 38 -3
c8 0 16.667 0.5 26 1.5s17.833 4 25.5 9s14.167 12.5 19.5 22.5s8 24 8 42v344h-109c-6 28 -9 54.333 -9 79c0 23.333 3 49 9 77h286v-520c0 -38 -6 -70.5 -18 -97.5s-28.333 -48.833 -49 -65.5s-44.834 -28.834 -72.501 -36.501s-57.5 -11.5 -89.5 -11.5
c-19.333 0 -38.666 1.5 -57.999 4.5s-36.666 6.83301 -51.999 11.5c-0.666992 5.33301 -1.16699 10.666 -1.5 15.999s-0.5 11 -0.5 17c0 38.667 6.66699 77 20 115z" />
    <glyph glyph-name="ij" unicode="&#x133;" horiz-adv-x="658" 
d="M225 1c-17.333 -2.66699 -33 -4.66699 -47 -6s-26.667 -2 -38 -2s-24 0.666992 -38 2s-29.333 3.33301 -46 6v516c14.667 3.33301 29.167 5.66602 43.5 6.99902s28.166 2 41.499 2c12.667 0 26.334 -0.666992 41.001 -2s29 -3.66602 43 -6.99902v-516zM341 376
c-3.33301 13.333 -5.49805 25.8359 -6.49805 37.5029s-1.5 22.834 -1.5 33.501s0.5 21.667 1.5 33s3.16699 23.666 6.5 36.999h269v-318c0 -38 -5.5 -70.5 -16.5 -97.5s-26.333 -48.833 -46 -65.5s-42.667 -28.834 -69 -36.501s-54.833 -11.5 -85.5 -11.5
c-10 0 -24.167 1.16699 -42.5 3.5s-37.5 6.83301 -57.5 13.5c-0.666992 5.33301 -1.16699 10.5 -1.5 15.5s-0.5 10.167 -0.5 15.5c0 17.333 1.66699 34.666 5 51.999s8 35.333 14 54c2.66699 -0.666992 6.66699 -1.5 12 -2.5s11.166 -1.83301 17.499 -2.5
s12.333 -1.33398 18 -2.00098s10.167 -1 13.5 -1c7.33301 0 15.166 0.5 23.499 1.5s16 4 23 9s12.667 12.5 17 22.5s6.5 24 6.5 42v167h-100z" />
    <glyph glyph-name="Jcircumflex" unicode="&#x134;" horiz-adv-x="411" 
d="M35 152c6 -1.33301 14.999 -2.99805 26.999 -4.99805s24.667 -3 38 -3c8 0 16.667 0.5 26 1.5s17.833 4 25.5 9s14.167 12.5 19.5 22.5s8 24 8 42v344h-109c-6 28 -9 54.333 -9 79c0 23.333 3 49 9 77h286v-520c0 -38 -6 -70.5 -18 -97.5s-28.333 -48.833 -49 -65.5
s-44.834 -28.834 -72.501 -36.501s-57.5 -11.5 -89.5 -11.5c-19.333 0 -38.666 1.5 -57.999 4.5s-36.666 6.83301 -51.999 11.5c-0.666992 5.33301 -1.16699 10.666 -1.5 15.999s-0.5 11 -0.5 17c0 38.667 6.66699 77 20 115zM207.999 909.002
c8.66699 0 20.002 -0.333008 34.002 -1s26.333 -2 37 -4l127 -123c-8.66699 -2.66699 -19.667 -4.5 -33 -5.5s-26.666 -1.5 -39.999 -1.5c-12.667 0 -25.334 0.333008 -38.001 1s-25.334 2.66699 -38.001 6l-49 48l-49 -48c-12.667 -3.33301 -25.334 -5.33301 -38.001 -6
s-25.334 -1 -38.001 -1c-13.333 0 -26.666 0.5 -39.999 1.5s-24.333 2.83301 -33 5.5l127 123c10.667 2 23 3.33301 37 4s25.333 1 34 1z" />
    </font>
</defs>
</svg>
